<svg width="491" height="777" viewBox="0 0 491 777" fill="none" xmlns="http://www.w3.org/2000/svg">
<mask id="mask0_224_1288" style="mask-type:alpha" maskUnits="userSpaceOnUse" x="0" y="0" width="491" height="777">
<rect width="491" height="777" fill="#D9D9D9"/>
</mask>
<g mask="url(#mask0_224_1288)">
<path d="M37.0229 793.378C8.88795 793.378 -14 770.485 -14 742.355V28.0229C-14 -0.112051 8.88895 -23 37.0229 -23H453.716C481.849 -23 504.739 -0.111052 504.739 28.0229V742.355C504.739 770.486 481.848 793.378 453.716 793.378H37.0229Z" fill="#52B446"/>
<mask id="mask1_224_1288" style="mask-type:luminance" maskUnits="userSpaceOnUse" x="-14" y="-23" width="519" height="817">
<path d="M37.0229 793.378C8.88795 793.378 -14 770.485 -14 742.355V28.0229C-14 -0.112051 8.88895 -23 37.0229 -23H453.716C481.849 -23 504.739 -0.111052 504.739 28.0229V742.355C504.739 770.486 481.848 793.378 453.716 793.378H37.0229Z" fill="white"/>
</mask>
<g mask="url(#mask1_224_1288)">
<path d="M27.5255 752.128C29.2985 755.896 30.9535 759.757 32.2285 763.835C36.0975 776.198 38.6586 788.409 39.1346 801.194C39.6366 814.612 44.4475 827.643 45.7395 841.108C47.1845 856.219 51.3294 871.331 56.3374 885.569C59.1894 893.678 64.2945 899.128 69.1615 905.913C73.5285 912.007 75.7414 920.257 81.5874 925.237C91.9134 934.038 109.642 930.481 122.216 932.661C139.65 935.684 153.479 943.472 171.776 938.45C182.104 935.62 191.025 931.413 201.908 930.639C214.01 929.772 226.217 931.395 238.34 931.037C264.889 930.258 289.094 927.135 314.861 921.668C330.345 919.189 346.446 918.035 361.276 912.586C374.208 907.828 378.848 899.502 388.428 890.596C402.33 877.676 417.004 878.514 434.479 881.772C457.094 885.991 474.52 885.534 496.479 877.999C525.813 867.938 556.112 860.866 585.565 851.122C607.96 843.71 641.218 831.974 657.419 813.997C637.614 804.329 612.677 804.393 591.435 799.53C567.929 794.151 548.407 788.134 527.584 775.466C507.748 763.402 493.084 751.15 477.6 733.835C449.096 701.966 428.708 657.067 432.613 612.858C434.236 594.483 441.685 580.713 448.445 564.102C451.353 556.954 452.338 549.43 456.783 542.997C462.349 534.934 467.564 527.382 475.388 521.651C480.636 517.807 490.459 512.387 490.293 504.766C490.047 493.686 477.174 496.971 469.797 497.893C455.311 499.709 445.067 496.491 430.954 493.959C415.243 491.143 399.721 486.441 383.699 485.734C374.195 485.318 364.822 487.677 355.328 487.578C345.531 487.474 340.326 483.765 332.115 479.746C320.322 473.963 307.091 477.031 294.524 477.402C283.008 477.746 271.844 474.992 260.967 471.705C238.832 465.016 216.462 475.24 194.007 478.187C170.511 481.269 145.303 489.066 128.461 507.212C115.934 520.706 99.5065 539.177 94.4925 556.989C91.9415 566.048 97.3965 570.059 97.0475 579.575C96.3675 598.128 75.2346 599.346 61.9946 604.848C56.3326 607.203 53.7446 611.625 49.2236 615.393C30.9036 630.674 12.6295 643.735 11.4385 669.497C10.7005 685.423 15.2355 701.155 15.4895 716.794C15.7055 730.097 22.1545 740.703 27.5255 752.128Z" fill="#206AB4"/>
<path d="M24.3186 754.003C32.1816 771.353 33.3736 788.626 35.9276 807.198C38.3066 824.462 41.4666 841.944 44.8276 859.05C48.0156 875.286 53.0636 890.589 63.0266 903.845C70.9266 914.359 73.9815 926.663 86.6965 932.386C98.6455 937.765 113.724 934.734 126.357 937.277C142.656 940.554 155.986 945.597 172.761 942.031C182.745 939.91 191.622 935.617 201.907 934.355C210.423 933.308 219.399 934.339 227.932 934.677C246.305 935.404 265.097 933.609 283.27 930.988C301.141 928.41 318.825 924.863 336.694 922.238C349.801 920.31 365.352 917.656 375.647 908.511C390.075 895.702 399.422 882.835 420.764 883.593C439.688 884.261 456.418 889.456 475.668 886.98C492.582 884.802 508.914 877.683 525.191 872.851C545.644 866.779 566.252 861.296 586.548 854.703C612.39 846.308 640.724 836.594 660.042 816.623C661.565 815.051 661.542 811.795 659.292 810.789C642.458 803.275 624.575 801.207 606.495 798.541C584.593 795.312 562.722 789.031 542.714 779.547C504.546 761.451 472.882 728.955 453.294 691.887C442.808 672.043 436.972 649.965 435.901 627.602C434.717 602.922 445.501 583.186 453.581 560.768C457.794 549.08 462.632 540.026 470.948 530.567C476.016 524.803 483.1 521.165 488.772 516.028C495.585 509.858 495.588 500.087 488.379 494.651C485.061 492.145 479.025 493.02 475.326 493.399C465.279 494.434 456.662 494.876 446.611 493.215C425.578 489.74 405.021 483.527 383.695 482.024C371.56 481.169 359.9 485.385 347.763 482.817C339.474 481.061 332.413 475.286 324.017 473.309C316.087 471.444 307.255 472.844 299.261 473.45C284.423 474.567 271.005 470.348 256.839 466.872C239.478 462.612 220.2 469.188 203.372 472.821C184.347 476.928 166.29 479.038 148.528 487.663C132.825 495.286 121.395 508.829 110.518 522.048C101.098 533.489 89.1756 549.111 90.3826 564.761C91.2926 576.574 96.9936 585.513 83.7346 593.218C76.8946 597.195 68.3556 598.458 61.0046 601.271C53.8586 604.005 48.8995 610.863 43.1645 615.615C34.3875 622.888 25.8246 630.103 18.7546 639.107C6.85956 654.253 6.81357 672.349 9.02257 690.63C10.2886 701.107 10.3586 712.306 12.2626 722.653C14.3496 733.97 19.3576 743.714 24.3186 754.003C26.3966 758.316 32.8026 754.548 30.7326 750.253C25.4786 739.355 20.1115 729.105 19.2055 716.796C18.4265 706.23 17.0906 695.886 15.8186 685.362C12.6976 659.542 22.7285 642.76 41.6645 626.481C48.7075 620.424 57.0456 610.702 65.7286 607.381C71.6646 605.111 77.8745 603.682 83.7945 601.33C93.9155 597.31 99.5325 590.287 100.764 579.576C101.805 570.5 96.2966 563.4 99.4276 553.859C103.104 542.67 111.532 532.451 118.862 523.545C133.833 505.357 149.958 493.006 172.774 486.211C191.467 480.645 211.987 478.033 231.174 474.455C255.709 469.877 279.103 482.396 304.04 480.514C316.661 479.559 326.232 480.918 337.732 486.748C343.386 489.615 349.056 490.828 355.328 491.291C366.517 492.119 377.705 489.025 389.021 489.822C402.798 490.795 416.441 494.953 429.966 497.541C446.804 500.76 461.271 502.271 478.333 500.518C488.077 499.514 483.343 511.284 478.794 514.748C476.833 516.24 474.677 517.469 472.763 519.023C464.966 525.353 459.267 532.933 453.575 541.121C449.067 547.607 447.496 555.801 444.863 563.113C441.394 572.734 436.76 581.886 433.36 591.552C426.965 609.708 427.676 629.396 430.61 648.128C436.549 686.044 458.43 720.021 484.872 746.941C505.2 767.636 530.423 783.642 557.517 793.81C589.162 805.689 624.871 803.509 655.544 817.205C655.294 815.26 655.044 813.314 654.794 811.371C633.73 833.144 601.626 842.244 573.495 851.08C556.845 856.31 539.97 860.807 523.22 865.687C504.132 871.248 485.712 879.013 465.724 880.58C441.273 882.492 411.181 866.721 389.615 884.777C376.094 896.097 368.219 907.115 350.232 912.064C333.212 916.744 314.857 918.103 297.484 921.279C279.81 924.509 261.929 926.238 243.994 927.119C228.174 927.896 211.211 924.353 195.627 927.709C176.885 931.744 162.566 938.51 142.912 933.869C128.476 930.459 115.869 928.42 101.057 927.717C81.3726 926.783 76.7496 909.819 66.5726 896.283C54.2916 879.937 51.3026 855.767 48.8186 836.076C46.8846 820.736 43.5866 805.803 41.9476 790.359C40.4806 776.517 36.4616 762.897 30.7326 750.253C28.7606 745.899 22.3576 749.675 24.3186 754.003Z" fill="black"/>
<path d="M441.577 488.019C414.171 495.632 404.276 542.066 396.663 564.902C385.247 602.965 387.53 640.265 394.382 679.086C406.562 749.885 450.71 813.066 497.148 866.346C501.714 859.496 510.087 860.258 515.418 854.932C505.52 836.662 488.773 821.44 477.355 803.932C466.695 787.942 456.802 771.957 447.664 755.211C430.16 723.236 419.502 688.982 413.41 653.969C408.844 625.803 408.844 603.727 419.502 577.846C431.68 549.68 447.664 526.084 461.371 500.201C455.279 495.633 446.906 492.586 440.816 486.498" fill="#0A4B7F"/>
<path d="M440.589 484.437C416.276 492.636 406.909 520.265 399.73 542.484C387.375 580.711 382.621 616.892 387.312 657.052C396.931 739.339 441.345 807.616 494.523 868.97C495.8 870.445 498.488 870.4 499.773 868.97C504.644 863.562 511.669 862.46 517.293 858.14C518.902 856.9 519.732 854.978 518.625 853.056C511.893 841.372 503.422 831.136 494.828 820.794C483.668 807.366 474.31 792.812 465.146 777.98C446.945 748.515 432.826 717.71 423.767 684.248C415.285 652.91 410.085 620.021 419.574 588.379C428.781 557.68 449.531 530.092 464.578 502.076C465.582 500.201 464.965 498.16 463.246 496.994C456.637 492.515 449.502 489.172 443.441 483.871C439.851 480.732 434.578 485.965 438.191 489.125C444.722 494.84 452.347 498.564 459.496 503.406C459.053 501.715 458.607 500.019 458.162 498.326C442.566 527.369 423.228 555.06 412.412 586.406C402.426 615.349 407.551 646.795 414.051 675.859C421.696 710.05 435.371 741.761 452.887 771.972C461.282 786.452 470.082 801.238 480.334 814.495C491.16 828.495 503.332 841.401 512.209 856.806C512.654 855.113 513.1 853.419 513.543 851.722C507.301 856.523 499.918 857.722 494.523 863.72C496.271 863.72 498.023 863.72 499.773 863.72C453.175 809.954 411.003 749.382 397.962 678.097C390.737 638.585 389.878 599.077 401.982 560.452C409.283 537.151 416.191 500.491 442.564 491.6C447.077 490.078 445.141 482.902 440.589 484.437Z" fill="black"/>
<path d="M362.406 481.931C341.09 511.617 334.242 551.202 331.959 586.98C329.674 631.89 331.197 682.894 345.658 726.283C368.496 788.709 401.228 861.025 450.707 908.217C457.559 896.797 465.172 902.891 456.037 886.145C450.707 876.249 443.855 866.346 437.767 856.456C426.347 837.425 415.691 818.393 405.035 798.601C386.765 765.109 371.543 728.57 363.928 691.269C355.555 655.49 354.035 623.521 356.317 586.982C359.364 552.726 360.883 513.142 383.721 485.738C378.391 484.215 372.305 482.695 366.213 481.933" fill="#0A4B7F"/>
<path d="M359.2 480.056C338.446 510.255 331.47 546.359 328.571 582.292C325.219 623.837 327.18 666.851 336.471 707.53C345.026 744.971 362.932 782.089 380.369 816.124C398.125 850.776 420.094 883.618 448.082 910.841C449.902 912.612 452.543 912.048 453.916 910.091C458.574 903.441 465.348 901.714 463.23 892.784C459.652 877.706 445.964 862.944 438.132 849.821C415.726 812.272 394.069 773.708 379.269 732.452C364.513 691.315 358.281 647.557 359.246 603.979C360.09 565.745 361.783 519.643 386.346 488.362C388.01 486.245 387.647 482.96 384.707 482.155C378.904 480.565 373.15 479.264 367.199 478.348C362.515 477.627 360.504 484.784 365.226 485.51C371.175 486.426 376.929 487.727 382.734 489.317C382.185 487.247 381.64 485.178 381.095 483.108C360.669 509.12 356.577 541.35 353.767 573.342C350.046 615.717 352.597 656.039 361.484 697.576C370.035 737.537 387.757 774.642 407.158 810.306C417.554 829.419 428.217 848.458 439.912 866.806C445.664 875.829 451.93 884.841 456.066 894.759C457.207 897.491 449.148 903.986 447.5 906.339C449.445 906.091 451.391 905.837 453.332 905.589C402.109 855.767 366.332 783.573 346.234 715.532C334.97 677.399 333.941 636.512 335.23 597.053C336.517 557.739 342.906 516.838 365.615 483.803C368.335 479.847 361.895 476.136 359.2 480.056Z" fill="black"/>
<path d="M300.749 483.455C251.269 549.68 272.583 641.787 291.616 715.625C303.796 762.822 322.823 805.449 348.708 847.32C360.124 864.828 369.261 882.336 379.917 900.605C385.247 909.74 386.769 916.589 397.425 912.787C409.605 908.978 407.323 903.652 401.993 895.273C379.917 857.978 358.6 821.439 341.858 781.853C327.391 748.361 307.6 719.433 301.51 682.132C296.184 651.685 287.045 618.948 287.807 586.98C288.569 554.248 309.123 515.425 323.584 486.498C318.26 481.17 310.645 480.408 304.557 476.602" fill="#0A4B7F"/>
<path d="M297.541 481.58C253.223 542.976 265.166 621.93 281.588 690.894C291.162 731.097 303.654 769.781 321.901 806.931C331.53 826.535 343.153 844.863 354.409 863.535C364.305 879.951 371.946 899.293 384.046 914.172C388.991 920.252 402.167 917.406 406.651 912.248C414.698 903 404.393 892.043 399.462 883.684C376.089 844.079 356.761 803.387 336.761 762.084C327.698 743.375 317.968 725.135 311.144 705.434C303.601 683.645 300.738 659.571 296.468 636.961C291.948 613.01 289.277 588.883 294.673 564.895C299.734 542.397 310.405 521.239 320.605 500.719C322.652 496.596 324.732 492.489 326.794 488.373C327.476 487.008 327.562 484.935 326.21 483.871C320.032 479.004 313.405 477.023 306.433 473.394C302.187 471.187 298.433 477.597 302.683 479.808C308.835 483.009 320.437 484.513 316.304 492.746C311.882 501.551 307.558 510.392 303.429 519.338C296.257 534.881 290.21 550.912 286.449 567.633C277.951 605.428 291.226 646.08 297.931 683.121C304.499 719.426 323.952 750.43 338.652 783.728C356.004 823.039 376.929 860.193 398.785 897.148C402.234 900.921 401.453 904.941 396.439 909.207C388.902 912.102 385.519 903.016 383.126 898.73C377.636 888.91 371.999 879.166 366.427 869.392C355.558 850.324 343.484 832.056 333.167 812.662C313.769 776.195 300.866 737.566 290.882 697.625C273.542 628.264 259.027 547.572 303.956 485.33C306.765 481.437 300.318 477.736 297.541 481.58Z" fill="black"/>
<path d="M293.842 480.984C280.961 480.984 271.588 496.207 263.393 504.408C242.311 525.486 229.428 544.228 225.916 574.676C218.887 626.209 231.768 673.057 250.51 721.074C270.416 774.945 289.158 826.478 334.832 865.127C348.885 876.84 407.443 906.119 369.965 916.654C347.713 922.513 318.438 883.865 303.213 867.47C232.94 789.001 195.463 677.738 206.002 572.335C208.346 547.739 217.715 519.63 231.768 499.722C251.678 472.784 266.905 468.099 296.184 472.784" fill="#0A4B7F"/>
<path d="M293.842 477.271C279.916 478.878 272.045 489.142 263.264 499.132C251.711 512.275 240.112 523.745 232.041 539.519C215.254 572.324 218.529 615.197 224.969 650.181C232.561 691.433 249.498 731.925 265.651 770.486C279.811 804.283 298.26 835.679 324.839 861.195C332.187 868.246 387.237 901.691 376.036 910.136C351.534 928.613 312.964 873.222 299.542 857.62C244.37 793.495 212.913 709.436 208.378 625.347C206.489 590.318 209.069 554.745 223.245 522.306C229.944 506.974 240.046 492.243 253.632 482.271C265.751 473.373 281.144 474.296 295.198 476.367C299.882 477.055 301.897 469.898 297.171 469.203C266.437 464.683 247.353 473.193 228.562 497.848C205.468 528.153 200.964 569.274 200.539 606.024C199.635 684.305 224.828 762.442 267.674 827.557C285.824 855.137 308.375 882.028 332.774 904.338C344.989 915.506 372.594 931.889 384.938 911.141C393.663 896.475 361.319 878.688 352.774 873.02C322.364 852.834 300.809 825.129 284.098 792.844C272.035 769.537 263.172 744.656 254.092 720.086C243.008 690.094 232.951 660.27 229.078 628.363C225.697 600.496 226.609 569.111 238.457 543.269C243.547 532.16 251.465 522.58 259.635 513.628C268.43 503.995 280.125 486.282 293.844 484.698C298.541 484.156 298.597 476.722 293.842 477.271Z" fill="black"/>
<path d="M179.065 738.64C189.606 777.288 203.662 814.765 227.084 847.56C251.678 880.355 292.667 907.285 309.063 945.933C317.264 943.595 326.634 938.908 333.662 935.398C308.482 900.324 274.958 872.351 248.032 838.724C221.721 805.859 204.109 773.433 193.41 732.781C188.09 712.572 185.471 691.818 180.525 671.621C175.002 649.055 173.209 627.314 173.209 603.637C173.209 574.938 179.463 553.914 188.436 526.627C194.911 506.951 200.447 487.955 217.888 475.229C163.49 463.981 151.517 541.969 151.204 581.635C150.786 635.031 164.716 687.617 179.065 738.64Z" fill="#0A4B7F"/>
<path d="M175.486 739.628C186.443 779.167 200.83 821.257 227.06 853.56C252.871 885.347 288.658 909.617 305.857 947.808C306.509 949.257 308.603 949.982 310.052 949.513C318.907 946.659 327.214 942.745 335.536 938.605C337.216 937.769 338.009 935.082 336.87 933.523C313.175 901.197 283.317 874.351 257.241 844.068C228.987 811.255 208.364 773.586 196.989 731.793C191.059 710 188.018 687.436 182.897 665.439C177.434 641.974 176.208 617.22 177.208 593.207C178.075 572.42 184.046 552.328 190.364 532.66C196.96 512.137 202.969 491.758 220.512 477.855C222.629 476.177 221.477 472.105 218.873 471.646C173.914 463.746 156.57 509.322 150.523 545.707C139.705 610.785 158.033 677.415 175.486 739.628C176.775 744.233 183.943 742.273 182.646 737.651C166.689 680.766 150.849 621.856 155.896 562.229C158.769 528.262 171.431 470.815 216.9 478.807C216.355 476.739 215.806 474.67 215.263 472.6C201.812 483.258 194.712 497.26 189.013 513.139C181.505 534.053 174.755 555.573 171.353 577.565C164.326 622.963 176.318 667.374 184.855 711.557C193.152 754.495 210.037 793.405 235.726 828.772C264.048 867.752 301.978 898.42 330.455 937.272C330.9 935.579 331.346 933.885 331.787 932.19C324.578 935.778 313.291 945.678 308.541 936.223C304.459 928.096 298.943 920.766 293.369 913.627C280.42 897.049 264.496 882.885 249.81 867.902C214.525 831.908 195.919 785.542 182.646 737.651C181.369 733.045 174.203 735.003 175.486 739.628Z" fill="black"/>
<path d="M73.6602 621.525C74.8322 635.578 91.2302 660.17 95.9102 676.566C105.283 710.533 108.797 744.494 116.992 778.461C122.849 806.568 133.39 835.848 146.273 861.611C162.668 890.89 188.433 909.629 214.199 930.711C225.914 940.08 237.623 951.793 249.336 959.99C254.02 955.302 258.705 951.793 263.391 948.277C165.012 878.011 136.903 772.601 112.309 660.17C107.627 642.604 99.4262 616.838 104.112 599.272C98.2552 601.616 92.4031 602.784 86.5461 605.127" fill="#0A4B7F"/>
<path d="M70.0809 622.511C71.8099 634.386 77.9809 645.382 83.1879 656.031C91.0829 672.177 95.3358 688.304 99.0118 705.857C106.772 742.968 111.739 780.468 123.594 816.621C133.737 847.555 147.448 875.381 170.617 898.535C182.109 910.015 195.105 919.992 207.711 930.189C221.102 941.029 233.543 953.019 247.461 963.199C248.82 964.187 250.84 963.676 251.961 962.615C256.231 958.594 260.568 955.033 265.266 951.484C267.594 949.724 267.67 946.818 265.266 945.07C211.034 905.707 174.805 851.093 151.362 788.931C140.368 759.775 132.305 729.564 125.012 699.306C121.489 684.683 118.766 669.81 114.84 655.3C110.047 637.595 103.832 618.702 107.692 600.257C108.225 597.706 105.975 594.667 103.126 595.689C97.3099 597.775 91.3739 599.46 85.5599 601.546C81.0849 603.15 83.0128 610.327 87.5328 608.708C93.3488 606.622 99.2849 604.937 105.099 602.851C103.576 601.328 102.052 599.806 100.533 598.283C97.5878 612.346 99.9529 626.121 103.115 639.945C107.123 657.478 111.701 674.896 115.761 692.433C123.802 727.162 133.152 761.609 145.74 794.988C169.326 857.523 207.15 912.019 261.517 951.484C261.517 949.347 261.517 947.207 261.517 945.07C257.669 947.978 253.902 950.929 250.224 954.05C247.228 956.597 230.792 939.997 228.54 938.017C216.071 927.05 202.86 916.97 190.175 906.257C160.169 880.917 143.497 851.527 130.755 814.644C118.384 778.828 113.56 740.898 106.173 703.882C103.173 688.847 99.7059 674.175 93.3839 660.181C87.5599 647.286 79.3138 634.745 77.2408 620.536C76.5518 615.812 69.3989 617.828 70.0809 622.511Z" fill="black"/>
<path d="M31.502 633.234C44.383 650.8 43.2109 680.082 47.8979 699.992C53.7519 730.443 54.9229 762.066 61.9509 791.346C77.1739 858.102 109.967 910.801 156.814 958.819C170.869 971.704 174.38 976.385 191.947 965.844C176.724 938.908 147.447 918.998 131.049 893.235C116.994 870.981 102.942 846.389 92.401 821.792C74.835 777.29 70.151 721.075 61.952 673.058C58.436 653.146 56.0969 632.068 56.0969 612.154C51.4129 613.326 44.384 613.326 39.699 614.496" fill="#0A4B7F"/>
<path d="M28.2925 635.109C38.6165 650.787 39.6065 669.843 42.0325 687.941C44.5165 706.468 48.1555 724.804 50.4345 743.394C54.8645 779.511 61.9895 814.91 76.5385 848.457C90.4315 880.496 109.149 909.574 131.44 936.395C141.266 948.223 151.93 961.668 164.586 970.596C174.883 977.86 183.399 974.897 193.82 969.051C195.574 968.067 196.18 965.684 195.155 963.969C180.993 940.289 159.331 922.867 141.833 901.852C119.946 875.567 101.894 839.36 91.0805 807.122C81.3205 778.032 76.9025 747.208 72.4025 716.962C67.2265 682.157 60.1775 647.441 59.8085 612.153C59.7795 609.577 57.4705 608.149 55.1055 608.571C49.6605 609.55 44.1565 609.938 38.7095 610.913C33.9985 611.757 36.0025 618.915 40.6845 618.075C46.1335 617.1 51.6355 616.712 57.0825 615.735C55.5145 614.542 53.9455 613.348 52.3795 612.153C52.7235 644.78 59.0125 676.575 63.7405 708.743C68.7115 742.538 73.6315 776.429 83.9185 809.098C93.5535 839.703 110.898 868.09 127.84 895.11C144.754 922.09 172.333 940.28 188.739 967.719C189.184 966.026 189.629 964.332 190.07 962.637C181.105 967.666 174.788 969.512 166.21 962.364C160.114 957.286 154.771 951.378 149.384 945.575C137.745 933.028 127.024 919.667 117.086 905.745C98.1115 879.173 83.5826 849.753 73.3326 818.792C62.1826 785.112 59.1585 750.126 54.1995 715.216C52.0155 699.872 49.3035 684.595 47.0235 669.259C45.0195 655.784 42.2835 642.872 34.7075 631.361C32.0875 627.378 25.6495 631.095 28.2925 635.109Z" fill="black"/>
<path d="M-3.71104 668.685C-7.61504 656.191 5.6579 647.605 6.4369 635.109C7.2199 625.74 4.09494 617.154 12.6829 610.125C21.2749 603.879 29.0789 608.561 36.8919 606.221C43.1379 604.658 43.919 601.535 48.603 599.196C51.724 597.632 56.408 597.632 59.535 596.069C63.437 594.51 66.5599 589.823 69.6849 588.262C77.4899 585.139 89.9859 589.043 89.2049 578.11C88.4219 567.18 76.7129 571.864 83.7359 557.028C87.6459 549.223 93.8879 547.659 94.6699 537.51C95.4509 530.483 89.9859 524.237 92.3299 516.428C95.4509 507.838 104.818 509.401 109.506 504.715C111.069 502.375 109.506 496.904 111.848 494.565C114.192 489.879 117.315 489.879 120.438 486.756C126.686 479.731 128.245 477.387 136.834 475.043C146.986 472.703 149.326 472.703 157.916 467.236C168.848 460.207 179.781 458.646 193.053 457.867C208.67 447.715 226.627 443.81 244.586 446.156C252.397 447.715 260.205 447.715 268.795 448.494C271.135 448.494 276.602 450.842 278.945 450.842C284.408 450.059 287.533 446.156 292.998 446.156C303.928 446.156 307.049 456.302 316.42 458.646C322.006 460.042 327.541 457.792 333.119 457.576C339.801 457.322 347.205 459.715 354.033 458.18C362.58 456.258 360.486 454.729 369.072 458.52C380.642 463.627 394.83 456.229 405.052 463.665C408.247 465.985 407.154 467.679 410.956 469.155C414.589 470.565 416.852 468.55 420.261 468.38C426.595 468.071 432.876 470.589 438.531 472.78C445.681 475.551 446.783 479.983 455.295 480.409C461.9 480.739 467.213 475.202 472.768 475.764C479.311 476.432 480.825 484.284 484.991 487.065C491.745 491.573 494.702 487.588 496.401 497.917C497.635 505.399 501.163 512.554 501.217 520.253C501.274 527.284 501.274 535.101 499.147 541.853C497.899 545.818 497.303 550.009 496.118 553.951C494.878 558.084 492.518 563.027 488.054 563.088C483.144 563.156 482.882 562.303 481.132 558.258C479.652 554.83 475.421 550.279 471.069 551.567C466.917 552.794 465.276 559.081 460.655 561.073C458.76 561.891 455.243 563.005 453.772 561.405C453.381 560.979 453.206 557.55 452.881 556.753C452.149 554.98 450.098 553.69 449.488 552.177C448.654 550.087 449.722 548.669 450.343 546.507C452.427 539.271 449.212 532.521 440.599 534.042C435.107 535.011 430.665 541.015 425.722 540.501C422.122 540.126 419.04 537.495 417.243 542.122C416.013 545.288 417.243 544.038 414.481 545.827C413.188 546.663 412.057 547.796 410.766 548.786C407.498 551.282 404.493 550.872 400.676 549.214C395.488 546.964 394.203 545.345 392.24 540.425C389.906 534.589 385.062 534.195 379.375 533.991C377.395 533.921 374.393 534.598 372.586 533.743C371.086 533.04 370.877 531.259 369.225 530.932C367.52 530.596 364.829 532.612 363.129 532.977C361.77 533.268 360.086 533.555 358.652 533.329C354.515 532.677 354.015 529.866 353.99 526.548C353.929 518.517 352.383 509.652 347.586 503.013C344.926 499.327 342.113 498.124 338.285 496.216C337.242 495.698 325.066 487.398 325.008 487.538C317.981 505.497 298.461 479.733 285.969 489.102C282.846 490.665 285.969 494.567 280.502 496.907C278.16 497.69 272.695 493.788 269.57 494.567C261.763 496.907 263.322 507.061 250.832 507.061C250.832 496.907 241.461 485.977 231.309 486.758C232.092 501.594 218.039 493.787 211.793 499.25C200.859 507.84 217.256 510.963 208.668 519.551C197.738 530.485 189.148 516.43 182.121 514.086C177.435 512.525 171.969 516.43 168.066 514.865C163.382 513.306 163.382 506.279 158.697 505.496C145.422 502.377 148.543 517.988 146.203 521.894C141.517 530.484 135.271 528.921 127.465 533.607C123.559 537.511 121.996 540.634 119.656 544.541C119.656 544.541 120.435 547.66 119.656 549.225C118.092 551.567 113.406 551.567 111.845 554.69C110.284 560.157 114.189 561.717 113.406 566.403C112.629 572.649 111.845 571.087 109.504 576.553C108.723 580.455 104.816 581.235 104.041 585.92C115.75 585.141 117.312 586.701 121.996 596.854C121.996 596.071 126.684 606.223 125.902 605.444C127.465 610.907 131.369 612.471 125.902 617.936C121.218 623.399 118.875 617.936 114.189 620.28C109.503 621.839 106.382 624.182 101.695 627.305C88.4199 635.895 89.9839 627.305 77.4879 628.086C67.3379 628.865 63.435 642.141 53.285 642.922C42.355 642.922 40.793 636.674 29.078 642.922C27.519 644.481 19.7109 649.947 18.9299 651.51C15.8089 655.414 16.586 660.1 15.026 662.442C13.465 665.565 7.99693 667.909 6.43593 670.253C5.65693 671.812 2.53395 682.745 2.53395 682.745C2.53395 683.524 2.53395 684.304 2.53395 685.089C-8.40005 686.648 -2.93304 671.812 -4.49504 665.566" fill="white"/>
<path d="M-0.13128 667.699C-2.02428 657.652 5.41976 651.789 8.28876 643.187C10.4798 636.613 10.2247 630.425 10.2337 623.556C10.2547 607.951 32.7317 611.73 41.6847 608.372C43.2807 607.774 44.6538 606.704 45.9578 605.624C51.4148 601.106 56.0187 602.474 61.4087 599.274C68.3927 595.128 72.7467 591.022 81.2937 590.053C85.1177 589.621 87.7387 588.475 90.5787 586.065C97.1337 580.51 90.7427 570.42 86.1687 566.405C81.5887 562.391 94.8758 548.778 97.0668 543.811C99.2738 538.803 98.3247 533.377 97.0897 528.313C93.9527 515.485 103.901 513.448 111.379 507.92C112.174 507.332 112.836 506.705 113.086 505.701C114.629 499.467 117.024 494.013 122.311 489.961C129.647 484.338 132.43 479.838 142.309 477.611C148.836 476.142 154.071 473.886 159.789 470.439C170.287 464.113 181.004 462.414 193.051 461.578C195.352 461.418 197.487 459.519 199.242 458.459C206.017 454.354 213.646 452.131 221.301 450.41C240.84 446.019 259.778 454.553 278.944 454.553C280.86 454.553 282.835 453.805 284.551 452.985C291.442 449.694 299.379 451.307 305.145 456.29C309.928 460.421 314.37 462.138 320.598 462.811C322.891 463.059 332.114 461.399 333.118 461.288C338.124 460.745 343.813 462.091 348.823 462.411C352.141 462.622 355.868 461.534 359.042 460.694C363.868 459.413 367.63 461.952 372.028 463.376C378.708 465.538 386.899 463.839 393.753 463.874C402.521 463.917 405.771 473.331 414.226 473.331C425.482 473.331 433.443 473.132 443.195 479.745C448.33 483.225 452.99 484.368 459.115 483.712C467.254 482.839 473.369 481.366 480.467 487.933C486.53 493.544 491.678 493.652 493.787 503.359C496.322 515.009 498.342 524.681 496.603 536.699C496.091 540.234 488.876 566.322 484.339 556.381C479.81 546.469 470.021 545.524 463.409 553.406C452.2 566.765 455.86 544.629 454.235 538.73C452.587 532.73 445.926 528.287 439.61 530.457C435.883 531.738 432.985 533.389 429.635 535.518C425.68 538.038 421.231 534.205 417.565 536.354C415.083 537.807 414.717 541.29 412.606 542.618C396.196 552.958 399.223 539.929 393.178 534.907C390.676 532.829 389.703 532.259 386.676 531.079C383.008 529.649 376.36 532.208 373.586 529.567C372.148 528.194 370.32 526.831 368.238 527.348C366.857 527.524 365.545 527.903 364.3 528.483C355.886 532.036 357.476 521.895 357.081 518.348C355.077 500.338 341.227 492.53 326.882 484.328C325.21 483.375 322.712 483.838 321.798 485.66C315.28 498.703 293.685 475.055 283.343 486.473C281.566 488.436 281.101 489.125 280.534 491.723C280.214 493.172 271.221 490.94 269.569 490.852C261.999 490.438 258.803 502.582 250.831 503.346C252.071 504.584 253.308 505.821 254.546 507.059C253.103 494 244.888 483.879 231.308 483.043C229.23 482.914 227.671 484.832 227.593 486.756C227.323 493.67 211.808 494.07 206.652 499.047C200.547 504.938 209.943 511.891 206.043 516.922C199.941 524.789 189.102 513.354 183.996 510.879C180.816 509.336 177.07 510.272 173.812 510.895C164.921 512.596 168.019 505.895 162.894 503.415C159.142 501.599 156.124 501.255 151.964 501.888C146.46 502.724 144.511 510.025 143.925 514.454C142.82 522.794 136.335 524.995 129.362 528.501C123.014 531.692 120.022 536.646 116.448 542.665C114.44 546.052 117.317 546.895 112.343 549.196C110.351 550.116 108.329 552.434 108.13 554.688C107.626 560.454 110.919 566.376 107.784 571.665C105.2 576.024 102.218 580.186 100.46 584.931C99.6337 587.16 101.765 589.732 104.04 589.632C111.575 589.306 121.811 596.538 122.186 605.443C122.268 607.339 129.19 618.459 118.323 616.111C116.385 615.693 114.077 616.322 112.313 617.072C106.627 619.49 96.4687 628.441 90.2837 627.041C87.2917 626.363 84.7918 624.541 81.5728 624.467C72.6798 624.262 67.7327 627.932 61.5847 634.045C53.3467 642.238 42.5637 635.217 32.5457 637.373C27.5067 638.459 18.0357 645.074 15.7217 649.635C13.8407 653.346 13.1517 658.881 10.6177 662.022C8.56674 664.563 4.94574 665.444 3.22474 668.377C0.579738 672.895 -1.18328 679.826 -1.18328 685.088C0.0567176 683.85 1.29575 682.611 2.53174 681.373C-2.84126 681.377 -0.368281 668.658 -0.782281 665.564C-1.40528 660.888 -8.84127 660.826 -8.21227 665.564C-6.94827 675.017 -11.3803 688.806 2.53174 688.802C4.55675 688.802 6.24671 687.111 6.24671 685.087C6.24671 675.337 12.2817 671.722 17.6487 665.066C21.0807 660.814 20.4787 654.718 25.0137 650.886C32.0367 644.954 39.4318 644.195 48.1288 646.175C55.7868 647.919 61.4668 644.29 66.8378 639.296C73.5018 633.095 79.3238 630.614 88.3108 634.204C91.7108 635.561 95.1077 634.503 98.3417 633.352C103.119 631.653 107.444 627.887 111.783 625.305C115.217 623.258 121.642 625.701 124.627 623.483C127.416 621.407 131.006 619.073 132.006 615.432C133.444 610.207 129.809 610.098 129.598 605.02C129.385 599.946 124.459 593.161 122.069 588.877C118.255 582.051 110.967 581.904 104.04 582.203C105.235 583.771 106.429 585.338 107.62 586.904C110.145 580.09 117.472 574.424 117.12 566.4C116.849 560.254 115.432 556.959 121.53 552.429C123.671 550.839 123.948 547.822 123.528 545.308C122.368 538.337 146.52 531.245 149.78 522.878C150.979 519.812 151.05 516.37 151.641 513.155C153.151 504.983 164.651 517.776 167.077 518.444C172.19 519.85 177.763 516.085 182.647 518.454C186.85 520.495 189.835 524.673 194.426 526.122C201.41 528.327 211.494 526.311 214.127 518.112C215.076 515.151 215.068 513.073 213.908 510.178C210.644 502.037 218.025 501.084 224.006 500.229C231.994 499.09 234.717 494.504 235.022 486.754C233.784 487.992 232.547 489.231 231.307 490.467C240.881 491.817 246.153 497.346 247.116 507.057C247.323 508.912 248.659 510.979 250.831 510.772C259.776 509.917 262.64 506.233 268.124 499.709C272.534 494.457 282.728 505.994 286.804 495.902C292.835 480.959 318.376 509.086 328.214 489.408C326.521 489.853 324.823 490.297 323.132 490.74C327.716 493.361 331.898 496.674 336.409 499.418C352.042 508.924 345.339 521.131 352.401 533.889C354.54 537.748 361.714 537.567 365.003 536.18C368.978 534.502 369.64 537.082 372.585 537.451C380.661 538.467 386.425 536.525 390.448 545.428C395.839 557.346 413.413 555.811 419.8 545.963C420.95 544.186 433.273 542.002 436.284 540.084C449.968 531.375 445.636 548.92 445.77 552.172C445.916 555.619 449.413 558.776 450.188 562.387C450.446 563.588 451.588 564.713 452.78 564.983C458.051 566.171 461.061 565.329 465.518 562.124C468.291 560.132 472.323 550.69 477.92 560.13C478.912 561.798 479.369 563.433 480.775 564.839C486.82 570.884 496.271 564.304 498.539 558.097C503.227 545.265 507.334 528.409 504.393 514.702C502.284 504.889 502.041 489.343 490.893 485.8C478.924 481.993 480.498 468.187 465.129 473.669C447.469 479.968 434.42 461.931 416.15 465.386C410.42 466.47 407.443 459.546 402.492 458.116C395.412 456.071 388.584 456.491 381.267 456.757C373.699 457.03 367.734 452.052 360.54 452.663C356.614 452.997 352.837 454.585 348.819 454.983C342.235 455.635 335.645 453.587 328.934 454.315C317.782 455.532 313.317 451.624 304.61 446.284C300.907 444.011 296.532 441.821 292.006 442.573C283.832 443.936 278.324 446.563 269.776 444.913C260.094 443.042 249.532 442.933 239.684 441.958C231.268 441.122 222.77 442.476 214.586 444.315C205.773 446.295 196.965 453.879 188.176 454.489C169.797 455.764 157.446 466.44 140.33 470.45C128.906 473.124 118.387 479.764 111.209 489.276C107.025 494.823 107.342 502.678 100.768 505.006C95.2967 506.94 91.8987 509.432 89.1177 514.551C86.6177 519.153 88.6527 525.731 89.9227 530.287C93.7957 544.205 84.1607 546.109 80.1527 556.039C78.6897 559.654 76.7327 564.021 78.4617 567.93C80.7547 573.127 90.9388 581.534 78.3857 582.955C66.4497 584.307 58.9147 591.896 47.6127 595.611C40.6397 597.904 37.4548 603.177 29.0498 603.17C21.7938 603.162 17.2467 603.424 10.8037 606.916C0.0247164 612.76 3.77271 628.322 2.27271 637.76C0.315712 650.065 -9.84228 656.172 -7.29528 669.67C-6.40628 674.374 0.75372 672.378 -0.13128 667.699Z" fill="black"/>
<path d="M88.7386 588.343C93.8536 586.03 100.135 586.448 105.602 585.728C110.28 585.113 110.338 577.677 105.602 578.3C98.6817 579.212 91.4586 579.003 84.9886 581.931C80.6296 583.902 84.4086 590.302 88.7386 588.343Z" fill="black"/>
<path d="M88.4211 598.222C100.247 599.156 103.339 609.122 103.446 619.493C103.501 624.28 110.926 624.284 110.876 619.493C110.72 604.663 104.511 592.061 88.4211 590.796C83.6411 590.419 83.6771 597.849 88.4211 598.222Z" fill="black"/>
<path d="M53.0086 616.654C59.3856 621.929 57.7567 632.312 65.4657 636.754C69.6237 639.152 73.3637 632.731 69.2157 630.342C66.2877 628.656 65.4797 624.539 64.4327 621.578C63.0867 617.785 61.4246 614.019 58.2586 611.402C54.5996 608.372 49.3146 613.597 53.0086 616.654Z" fill="black"/>
<path d="M193.832 477.976C200.607 478.183 201.693 483.22 202.902 488.912C203.957 493.887 205.33 498.851 209.92 501.672C214.012 504.19 217.74 497.762 213.67 495.26C209.6 492.76 209.838 484.559 208.346 480.447C205.971 473.892 200.651 470.758 193.832 470.551C189.039 470.404 189.053 477.831 193.832 477.976Z" fill="black"/>
<path d="M251.613 467.824C256.863 468.25 257.217 474.928 257.715 478.972C258.061 481.777 258.365 484.536 258.899 487.312C259.485 490.373 261.506 492.421 260.751 495.783C259.702 500.449 266.862 502.429 267.911 497.758C268.813 493.744 268.134 490.973 266.628 487.188C264.837 482.692 265.103 477.364 264.208 472.616C262.901 465.684 258.753 460.973 251.614 460.397C246.834 460.007 246.871 467.439 251.613 467.824Z" fill="black"/>
<path d="M142.872 497.367C145.479 497.953 146.968 499.846 148.091 502.58C148.857 504.449 150.529 505.76 152.657 505.174C154.432 504.686 156.02 502.481 155.251 500.606C153.278 495.801 150.22 491.411 144.847 490.204C142.872 489.763 140.833 490.778 140.279 492.798C139.761 494.677 140.897 496.921 142.872 497.367Z" fill="black"/>
<path d="M160.936 487.455C165.059 488.758 169.563 490.389 171.957 494.26C173.439 496.653 173.922 499.809 174.898 502.432C176.779 507.493 180.203 510.842 185.773 510.93C188.421 510.973 189.683 508.543 189.353 506.231C188.632 501.184 189.482 496.262 189.761 491.227C190.062 485.77 188.351 480.713 185.937 475.905C183.787 471.626 177.378 475.387 179.521 479.655C184.171 488.913 180.785 498.378 182.193 508.206C183.386 506.638 184.578 505.071 185.773 503.505C181.085 503.429 180.097 493.982 178.373 490.511C175.547 484.833 168.541 482.075 162.91 480.294C158.333 478.843 156.387 486.015 160.936 487.455Z" fill="black"/>
<path d="M216.732 468.296C223.119 468.909 224.242 475.857 226.724 480.671C227.99 483.12 231.857 483.058 233.138 480.671C237.283 472.946 241.07 464.698 237.572 455.985C235.81 451.596 228.625 453.51 230.412 457.96C233.166 464.821 229.974 470.862 226.724 476.921C228.861 476.921 231.001 476.921 233.138 476.921C231.271 473.296 230.113 469.21 227.513 466.005C224.728 462.566 221.029 461.28 216.732 460.87C211.963 460.413 212.008 467.847 216.732 468.296Z" fill="black"/>
<path d="M359.749 484.251C359.284 489.159 362.394 492.194 366.075 494.903C368.452 496.647 370.985 497.71 372.11 500.651C373.546 504.397 372.452 509.149 371.049 512.7C370.342 514.479 371.805 516.917 373.643 517.268C381.616 518.791 385.819 512.534 387.866 505.651C388.929 502.079 388.866 498.508 388.8 494.842C388.714 489.881 393.491 485.119 393.909 479.852C394.292 475.075 386.858 475.112 386.479 479.852C385.995 485.963 381.291 490.243 381.405 496.768C381.462 499.924 380.768 511.09 375.616 510.106C376.481 511.629 377.346 513.151 378.21 514.674C380.308 509.377 381.409 501.412 378.304 496.235C376.027 492.438 366.784 488.409 367.179 484.251C367.632 479.482 360.202 479.525 359.749 484.251Z" fill="black"/>
<path d="M425.97 485.863C431.769 490.408 431.937 498.109 428.097 504.033C426.117 507.092 429.368 509.896 432.292 509.488C435.198 509.086 438.241 508.474 440.499 506.449C442.694 504.472 443.956 501.691 445.772 499.396C448.713 495.683 443.491 490.388 440.522 494.144C439.073 495.972 437.772 497.859 436.502 499.81C435.143 501.89 432.584 502.011 430.316 502.326C431.712 504.144 433.111 505.963 434.511 507.783C439.984 499.34 439.497 487.099 431.218 480.611C427.495 477.693 422.202 482.91 425.97 485.863Z" fill="black"/>
<path d="M453.458 536.355C453.442 534.433 454.292 533.189 455.165 531.554C456.212 529.605 456.423 527.531 456.601 525.363C456.964 520.9 455.169 516.246 453.999 512.025C452.724 507.414 445.556 509.375 446.839 514C447.931 517.947 450.54 523.746 448.751 527.805C447.431 530.811 446.005 532.934 446.028 536.356C446.063 541.144 453.489 541.148 453.458 536.355Z" fill="black"/>
<path d="M468.094 502.781C471.196 506.26 472.532 508.738 472.582 513.531C472.629 518.129 472.098 522.324 473.228 526.855C474.06 530.199 478.265 530.232 480.015 527.742C483.812 522.338 490.49 518.722 491.347 511.656C491.921 506.908 484.49 506.965 483.917 511.656C483.644 513.937 480.142 516.633 478.647 518.179C476.854 520.036 475.088 521.874 473.6 523.992C475.864 524.289 478.125 524.584 480.387 524.881C479.08 519.637 480.448 514.293 479.707 508.979C479.051 504.26 476.428 500.987 473.342 497.528C470.147 493.947 464.915 499.218 468.094 502.781Z" fill="black"/>
<path d="M390.275 526.464C393.941 529.491 391.38 535.148 390.673 539.091C389.833 543.775 396.989 545.777 397.833 541.066C399.052 534.293 401.781 526.382 395.523 521.211C391.866 518.183 386.58 523.408 390.275 526.464Z" fill="black"/>
<path d="M280.94 464.052C284.217 465.683 285.092 470.312 286.909 473.277C287.946 474.966 289.374 476.459 290.577 478.021C292.1 479.992 292.143 481.953 292.546 484.306C293.386 489.257 297.28 492.46 302.179 490.298C306.333 488.462 308.242 481.874 309.445 478.007C310.906 473.323 312.316 467.452 311.093 462.566C309.937 457.921 302.773 459.892 303.933 464.541C304.669 467.492 303.546 471.174 302.841 474.027C302.152 476.822 301.06 482.172 298.429 483.882C300.187 482.741 300.058 485.015 299.683 482.077C299.531 480.901 299.359 479.739 299.132 478.573C298.575 475.725 296.343 473.376 294.577 471.202C290.934 466.725 290.243 460.405 284.69 457.639C280.417 455.509 276.655 461.917 280.94 464.052Z" fill="black"/>
<path d="M403.194 513.378C402.309 517.675 404.538 519.808 406.95 523.007C409.85 526.851 409.839 530.736 409.823 535.341C409.815 537.989 412.188 539.251 414.526 538.923C421.725 537.909 425.26 530.146 427.61 524.148C429.362 519.683 422.174 517.765 420.45 522.173C419.003 525.859 416.968 531.14 412.552 531.761C414.12 532.954 415.687 534.148 417.253 535.341C417.265 531.652 417.31 528.011 416.149 524.466C415.53 522.583 414.483 520.878 413.366 519.257C412.88 518.556 410.194 516.144 410.354 515.353C411.315 510.679 404.155 508.687 403.194 513.378Z" fill="black"/>
<path d="M469.713 537.372C469.897 543.104 472.932 548.011 473.432 553.61C473.858 558.342 481.291 558.383 480.862 553.61C480.358 548.006 477.321 542.969 477.143 537.372C476.986 532.595 469.56 532.58 469.713 537.372Z" fill="black"/>
</g>
<path d="M99.0987 149.576C98.6147 142.547 98.1457 135.513 97.8757 128.472C97.7427 124.974 97.6567 121.476 97.6457 117.976C97.6377 115.417 96.8798 111.144 97.8898 108.765C99.2378 105.585 104.982 105.744 107.79 105.648C111.267 105.527 114.776 105.644 118.243 105.955C124.749 106.539 132.227 107.975 137.288 112.439C152.876 125.947 141.964 147.252 126.376 154.007C139.364 153.486 148.72 166.997 143.005 179.987C137.288 193.497 113.384 192.456 101.435 192.456H100.915C101.74 192.456 99.3487 153.134 99.0987 149.576ZM127.045 139.113C130.51 135.824 132.068 129.931 130.51 125.429C129.838 123.491 128.408 121.263 126.74 120.027C124.726 118.541 121.924 118.869 119.623 118.154C117.803 117.591 112.279 115.98 110.646 117.508C109.615 118.471 109.833 122.319 109.814 123.738C109.779 126.009 109.748 128.283 109.732 130.558C109.703 135.134 109.351 140.037 109.994 144.566C116.049 145.878 122.689 143.466 127.045 139.113ZM122.568 162.55C121.857 162.331 121.152 162.173 120.47 162.097C118.208 161.835 115.843 162.413 113.652 162.712C111.707 162.978 111.355 162.829 110.748 164.314C109.445 167.49 110.424 171.531 110.541 174.849C110.65 177.964 110.826 181.146 110.99 184.292C110.986 184.229 114.228 184.271 114.482 184.247C118.175 183.895 122.722 183.497 125.81 181.128C130.322 177.661 132.097 172.872 129.31 167.683C128.01 165.263 125.283 163.404 122.568 162.55Z" fill="#00C136"/>
<path d="M101.724 149.576C101.126 140.795 100.609 132.023 100.341 123.226C100.028 112.953 102.29 108.281 113.019 108.265C126.505 108.245 141.415 112.947 142.22 128.876C142.738 139.161 133.128 147.624 125.052 151.741C122.564 153.009 123.95 156.471 126.376 156.632C140.23 157.55 147.071 172.335 137.673 183.075C134.476 186.731 128.394 187.807 123.859 188.757C116.423 190.312 108.47 189.831 100.916 189.831C101.76 190.938 102.604 192.046 103.447 193.153C105.185 188.194 103.431 180.503 103.187 175.409C102.779 166.796 102.297 158.181 101.724 149.576C101.501 146.215 96.2494 146.195 96.4744 149.576C96.9124 156.135 97.2693 162.701 97.6223 169.265C97.9543 175.41 100.458 185.839 98.3844 191.759C97.8144 193.39 99.2983 195.081 100.915 195.081C113.118 195.081 136.503 197.044 143.778 183.989C152.176 168.917 143.52 152.518 126.376 151.382C126.817 153.013 127.257 154.644 127.7 156.273C146.485 146.699 158.372 114.089 130.97 105.865C123.572 103.644 103.974 98.535 97.7554 105.094C94.8064 108.203 94.7204 110.694 94.8554 114.981C95.2204 126.528 95.6894 138.045 96.4744 149.577C96.7054 152.933 101.957 152.956 101.724 149.576Z" fill="black"/>
<path d="M128.9 140.968C133.046 136.486 134.642 130.655 133.041 124.732C131.002 117.181 124.67 116.793 118.381 115.07C113.983 113.865 107.957 113.371 107.354 119.236C106.51 127.379 106.467 136.455 107.37 144.566C107.489 145.644 108.073 146.894 109.296 147.097C116.709 148.32 123.408 146.038 128.9 140.968C131.394 138.669 127.67 134.964 125.185 137.257C121.189 140.946 116.154 142.937 110.689 142.034C111.332 142.878 111.976 143.722 112.619 144.565C112.349 142.137 111.074 119.501 113.723 119.518C116.817 119.536 120.264 120.971 123.33 121.463C130.928 122.674 128.689 133.468 125.185 137.257C122.892 139.739 126.595 143.46 128.9 140.968Z" fill="black"/>
<path d="M123.263 160.019C120.214 159.21 117.368 159.486 114.286 159.976C112.421 160.275 109.817 160.263 108.829 162.279C107.47 165.056 107.364 167.853 107.587 170.894C107.909 175.359 108.13 179.822 108.364 184.292C108.434 185.612 109.509 187.058 110.989 186.917C118.282 186.218 126.309 186.563 130.919 179.618C136.176 171.695 131.549 163.058 123.263 160.019C120.079 158.851 118.716 163.925 121.868 165.082C129.108 167.738 129.665 175.41 123.403 179.582C119.798 181.984 115.051 181.279 110.989 181.668C111.864 182.543 112.737 183.418 113.614 184.293C113.38 179.824 113.259 175.35 112.837 170.895C112.665 169.106 111.946 165.612 114.349 165.245C116.939 164.849 119.294 164.401 121.869 165.083C125.146 165.951 126.533 160.886 123.263 160.019Z" fill="black"/>
<path d="M161.365 114.169C161.711 123.351 160.326 132.53 160.674 141.708C161.02 151.235 159.979 161.454 162.578 170.636C164.137 176.003 166.736 181.2 172.105 183.105C176.955 185.009 183.537 185.185 188.558 184.146C193.408 183.105 199.294 181.892 202.587 178.083C206.052 174.099 207.61 168.901 208.13 163.88C209.169 155.394 210.036 147.597 209.341 139.112C208.65 130.798 208.304 122.311 209.862 113.997C206.051 113.651 202.411 113.651 198.602 113.302C197.217 122.829 198.084 133.224 198.084 142.749C198.084 151.235 198.775 164.921 190.289 169.769C187.172 171.501 180.762 172.54 177.471 170.636C173.487 168.384 173.66 160.417 172.969 156.261C171.235 146.212 172.104 136.515 172.795 126.292C172.969 121.792 172.795 116.94 172.795 112.265C169.156 113.132 165.176 112.265 161.709 113.132" fill="#00C136"/>
<path d="M158.74 114.169C158.861 138.53 147.467 187.661 184.551 187.314C222.531 186.96 209.008 138.263 212.395 114.695C212.647 112.951 211.717 111.486 209.864 111.373C206.112 111.143 202.358 110.91 198.604 110.678C197.065 110.582 196.127 111.953 195.979 113.303C194.688 125.313 201.596 162.473 186.737 168.373C173.198 173.748 174.635 147.631 174.6 141.342C174.545 131.649 175.502 121.985 175.422 112.266C175.41 110.957 174.229 109.481 172.797 109.641C169.084 110.057 165.42 110.079 161.711 110.508C158.389 110.895 158.35 116.149 161.711 115.758C173.385 114.406 170.49 121.623 169.822 131.365C169.176 140.803 169.551 149.763 170.697 159.136C171.842 168.519 173.705 174.138 183.947 174.191C194.189 174.246 198.646 165.222 200.16 156.611C201.226 150.543 200.724 144.048 200.652 137.922C200.593 132.963 200.451 128.018 200.478 123.055C200.521 115.664 203.173 116.211 209.863 116.623C209.019 115.516 208.175 114.408 207.332 113.301C204.631 132.11 215.699 173.578 191.635 180.766C154.217 191.942 164.09 134.264 163.99 114.17C163.972 110.785 158.722 110.783 158.74 114.169Z" fill="black"/>
<path d="M263.556 123.697C265.701 119.031 261.572 116.418 258.161 114.269C255.774 112.763 253.122 111.689 250.368 111.074C245.018 109.879 239.182 110.424 234.284 112.961C224.583 117.982 222.331 131.84 229.782 139.633C237.055 147.256 250.001 145.348 252.251 157.645C254.159 168.903 243.028 176.35 233.071 170.461C229.637 168.432 227.747 164.25 226.116 159.809C222.477 160.159 217.655 161.977 217.829 166.305C218.001 170.461 222.681 175.659 225.274 178.604C232.032 186.227 244.503 184.668 252.122 179.125C260.958 172.715 264.249 163.881 261.477 153.314C259.571 145.697 251.258 138.591 244.157 135.996C240.344 134.783 235.971 134.219 235.104 129.197C234.586 125.039 238.268 121.793 242.077 121.271C249.353 120.408 258.707 134.261 263.556 123.697Z" fill="#00C136"/>
<path d="M266.09 124.394C269.422 105.058 237.36 105.339 227.524 115.058C222.68 119.843 221.198 129.628 224.196 135.671C226.38 140.083 229.202 142.937 233.374 145.519C235.313 146.718 239.919 148.443 241.579 149.152C242.434 149.586 243.288 150.019 244.143 150.455C236.778 167.33 231.614 170.215 228.651 159.111C228.09 157.699 226.95 156.982 225.422 157.277C208.719 160.515 217.188 174.838 225.871 182.668C235.488 191.338 253.559 184.668 259.973 175.199C269.403 161.269 264.334 146.564 251.69 136.967C248.817 134.781 245.362 133.617 241.958 132.598C243.774 125.772 246.476 123.926 250.062 127.061C251.607 127.959 253.529 129.27 255.3 129.692C260.466 130.913 263.058 129.352 265.825 125.022C267.653 122.161 263.11 119.532 261.29 122.374C258.593 126.595 244.31 117.819 238.614 119.614C232.635 121.501 231.813 128.044 233.821 132.905C234.51 134.573 236.18 135.889 237.833 136.557C247.185 140.336 255.065 143.473 258.95 154.012C263.526 166.428 253.54 177.241 242.583 180.616C236.958 182.118 231.81 180.829 227.138 176.747C219.169 169.563 227.837 169.696 225.148 164.388C232.25 178.402 251.466 178.665 254.961 161.943C256.373 155.185 251.938 149.441 246.795 145.923C241.932 142.595 236.291 141.806 231.643 137.778C222.373 129.743 230.483 117.296 238.815 113.958C242.862 112.339 262.694 113.349 261.03 123.001C260.455 126.308 265.515 127.726 266.09 124.394Z" fill="black"/>
<path d="M276.199 182.583C281.394 165.612 282.781 146.56 287.629 129.239C289.707 121.616 290.402 112.956 299.406 113.651C309.107 114.342 313.957 126.813 316.383 135.473C320.885 149.676 325.737 164.571 328.16 179.465C317.074 183.971 318.611 178.434 314.305 168.383C311.68 162.26 306.336 163.879 299.754 163.879C295.25 163.879 293.649 163.836 291.225 166.608C288.799 169.379 288.582 173.147 288.237 176.61C287.891 181.462 288.321 182.241 283.473 183.278C281.047 183.624 278.276 183.278 276.2 182.932M300.621 132.79C299.93 136.603 297.33 140.323 296.289 144.134C293.519 151.755 292.488 154.54 302.18 154.181C316.209 153.662 305.867 139.462 300.621 132.79Z" fill="#00C136"/>
<path d="M278.731 183.281C284.313 163.617 286.737 143.205 291.829 123.392C296.462 122.111 301.093 120.829 305.724 119.548C308.451 122.632 310.492 126.116 311.849 130.005C313.937 135.046 315.238 140.542 316.876 145.735C317.851 148.839 327.454 176.938 324.208 178.073C318.812 179.96 317.388 166.821 314.274 163.708C310.618 160.054 304.294 161.112 299.754 161.255C295.914 161.378 291.215 161.398 288.957 165.284C285.148 171.837 286.809 181.616 276.199 180.307C272.844 179.893 272.885 185.147 276.199 185.557C281.133 186.164 285.482 186.491 289.398 183.231C290.158 182.598 290.357 181.01 290.558 180.249C292.398 173.339 295.431 166.642 303.54 166.386C315.417 166.011 312.151 176.634 317.38 181.865C320.53 185.015 325.339 183.226 328.855 181.998C330.3 181.492 330.957 180.254 330.691 178.769C327.623 161.73 322.601 144.949 316.91 128.611C314.5 121.693 308.344 110.379 299.406 111.027C290.51 111.672 288.023 117.115 285.933 125.242C281.117 143.978 278.953 163.279 273.667 181.887C272.743 185.148 277.807 186.533 278.731 183.281Z" fill="black"/>
<path d="M298.092 132.093C296.639 138.31 291.086 145.029 291.811 151.687C292.469 157.771 300.752 157.083 305.049 156.494C319.654 154.484 306.721 136.357 302.479 130.935C300.393 128.271 296.706 132.015 298.764 134.648C301.223 137.789 311.313 149.74 303.655 151.431C301.686 151.867 299.104 151.734 297.159 151.208C296.641 151.067 297.333 149.214 297.538 148.519C299.054 143.378 301.938 138.695 303.155 133.488C303.924 130.195 298.861 128.798 298.092 132.093Z" fill="black"/>
<path d="M356.914 168.384C357.109 171.65 357.336 174.935 354.437 177.011C351.749 178.937 347.421 179.066 345.257 176.419C341.069 171.314 344.421 160.767 344.218 154.722C343.87 144.609 343.06 134.513 343.06 124.388C343.06 114.691 340.98 108.8 352.761 108.454C363.152 108.108 367.656 119.886 372.849 127.854C379.085 137.553 380.818 151.063 388.437 159.723C395.021 153.485 390.171 140.323 389.132 132.356C388.093 125.428 387.745 117.46 388.437 110.184C389.478 101.524 400.564 102.219 401.255 111.225C402.296 122.307 401.948 133.739 401.948 144.479C401.948 151.754 404.026 160.069 402.639 167.342C401.254 174.965 389.823 176.697 384.28 172.192C378.741 168.034 361.417 128.2 355.182 132.702C349.64 136.515 356.57 162.496 356.914 168.384Z" fill="#00C136"/>
<path d="M354.289 168.384C351.453 168.136 348.617 167.886 345.779 167.64C345.89 165.341 346.097 163.054 346.406 160.773C347.019 155.355 346.656 150.052 346.388 144.613C345.921 135.097 345.464 125.554 345.581 116.025C345.743 102.88 363.265 117.363 365.374 120.531C367.938 124.385 370.21 128.529 372.509 132.543C377.878 141.918 379.491 152.313 386.171 161.049C387.073 162.229 389.15 163.061 390.296 161.58C394.323 156.363 395.05 150.838 393.968 144.297C392.827 137.395 391.423 130.651 390.863 123.656C390.687 120.644 390.66 117.633 390.769 114.621C393.511 115.078 396.253 115.535 398.996 115.994C399.184 119.189 399.299 122.387 399.34 125.586C399.496 131.879 399.346 138.188 399.324 144.481C399.299 151.711 405.133 170.52 392.162 172.024C383.195 173.065 377.129 156.354 373.705 150.372C371.176 145.952 362.008 125.665 353.859 130.438C344.539 135.894 353.469 160.603 354.289 168.384C354.641 171.714 359.894 171.749 359.539 168.384C358.523 158.745 355.834 149.435 355.672 139.679C355.518 130.134 361.504 140.591 363.402 143.449C366.523 148.137 369.238 153.115 372.017 158.008C375.656 164.414 378.773 171.944 385.281 175.858C390.943 179.266 400.605 176.956 403.949 171.251C406.187 167.431 405.719 162.431 405.621 158.251C405.41 148.938 404.609 139.728 404.631 130.374C404.643 124.104 407.402 104.624 397.869 102.126C373.332 95.6959 393.379 149.073 386.582 157.868C387.955 158.046 389.332 158.223 390.707 158.401C380.103 144.538 378.219 119.712 362.758 109.294C354.287 103.587 341.766 104.571 340.332 116.026C338.98 126.846 340.855 138.823 341.387 149.669C341.748 157.034 337.938 168.517 341.625 175.255C347.865 186.646 359.836 179.296 359.539 168.386C359.449 165.005 354.199 164.996 354.289 168.384Z" fill="black"/>
<path d="M210.038 210.298C206.921 210.644 198.952 209.952 196.528 211.685C191.676 214.802 194.794 218.611 198.604 219.999C201.17 220.931 204.842 219.911 207.557 220.052C207.186 226.948 208.651 234.105 208.651 241.136C208.655 248.616 210.276 256.087 210.333 263.599C210.358 266.947 210.628 271.251 208.999 274.318C206.337 279.334 199.362 276.754 196.874 281.312C194.103 286.855 200.337 287.894 204.147 287.894C212.807 287.548 222.163 286.855 230.823 285.818C239.136 285.123 240.52 275.769 232.206 274.386C230.128 274.036 224.241 275.769 222.163 274.386C220.083 272.652 220.774 266.763 220.774 263.646C220.774 256.023 220.6 248.232 219.909 240.263C219.216 234.029 215.167 220.65 221.725 219.478C225.87 218.74 229.955 220.605 232.205 217.228C233.924 214.646 231.168 211.685 229.088 210.99C224.584 208.914 215.233 210.299 209.69 210.299" fill="#00C136"/>
<path d="M210.038 207.673C203.056 207.999 191.491 206.569 191.694 216.491C191.749 219.27 195.581 221.889 197.909 222.53C199.546 222.981 204.936 221.657 204.948 225.266C204.966 232.373 205.956 239.629 206.284 246.745C206.827 258.671 211.909 271.569 198.136 276.784C195.277 277.866 193.575 281.198 193.575 284.124C193.575 295.571 220.893 289.456 225.555 289.022C231.907 288.432 244.893 285.379 239.289 275.811C237.396 272.582 233.447 271.733 230.053 271.807C219.151 272.047 223.319 254.151 222.963 246.205C222.578 237.717 216.326 222.381 229.41 221.771C233.336 221.587 234.66 218.4 235.154 215.314C236.896 204.449 214.091 207.521 209.689 207.671C206.314 207.786 206.302 213.036 209.689 212.921C213.765 212.78 217.832 212.564 221.91 212.472C227.314 216.206 227.254 217.665 221.724 216.851C221.251 216.853 220.808 216.972 220.4 217.208C215.857 219.433 215.453 223.196 215.47 227.97C215.511 237.876 217.878 247.884 218.111 257.894C218.228 262.896 216.146 272.082 220.304 276.24C221.138 277.076 222.591 277.195 223.618 277.451C224.798 277.652 225.985 277.635 227.182 277.396C232.305 276.052 231.762 278.177 225.553 283.771C218.442 284.556 211.289 284.929 204.145 285.267C200.838 281.816 201.122 280.115 204.993 280.162C206.091 279.717 207.188 279.262 208.278 278.799C213.387 275.807 212.993 268.561 212.956 263.598C212.841 249.08 210.22 234.6 210.181 220.051C210.179 218.684 208.99 217.34 207.556 217.426C203.441 219.129 201.402 217.711 201.431 213.172C204.244 212.818 207.201 213.055 210.036 212.922C213.409 212.767 213.425 207.515 210.038 207.673Z" fill="black"/>
<path d="M291.576 210.906C285.133 206.822 274.478 208.148 268.117 210.338C257.33 213.426 252.73 218.537 254.23 230.57C255.425 240.193 263.242 246.9 271.404 250.769C278.406 253.738 289.162 256.322 286.42 265.722C284.299 272.999 278.873 276.144 271.869 273.173C266.758 271.364 259.025 257.898 252.836 264.255C246.045 271.382 260.432 280.411 265.246 282.607C273.064 286.517 280.41 286.652 287.459 281.587C301.943 271.755 302.557 251.431 285.889 243.732C279.229 240.72 269.221 238.826 265.873 231.562C261.967 222.621 268.541 219.361 276.66 220.095C280.873 220.269 287.146 222.978 291.099 221.089C295.053 219.203 296.385 213.099 291.576 210.906Z" fill="#00C136"/>
<path d="M292.9 208.64C281.119 203.261 265.269 205.437 255.537 214.228C246.119 222.734 252.938 238.746 259.737 246.082C264.751 251.486 272.146 253.674 278.629 256.594C275.943 268.846 272.365 272.244 267.895 266.789C266.502 265.41 265.036 264.117 263.495 262.906C261.675 261.394 260.022 260.789 257.843 260.078C248.488 257.021 247.003 271.082 251.777 275.976C262.002 286.456 275.466 291.429 288.785 283.853C298.148 278.529 304.035 264.589 299.558 254.435C296.876 248.349 292.98 244.664 287.214 241.466C283.269 239.277 278.454 238.103 274.386 236.187C266.882 224.619 268.565 220.265 279.44 223.121C280.936 223.512 282.451 223.801 283.98 223.992C292.976 224.916 303.043 216.644 293.433 209.051C290.806 206.977 287.066 210.664 289.718 212.762C295.73 217.512 274.784 217.434 273.304 217.407C270.98 217.36 267.757 218.065 265.921 219.63C260.478 224.269 261.831 230.146 265.421 235.693C271.8 245.548 286.956 243.847 293.757 254.211C303.187 268.576 284.537 284.756 270.58 281.959C267.642 280.963 264.874 279.633 262.282 277.963C255.415 273.893 259.458 266.092 264.182 270.504C269.389 275.363 274.479 278.197 281.674 275.826C286.352 274.281 290.488 266.471 289.381 261.806C287.615 254.386 281.467 251.966 274.869 249.349C263.189 244.716 252.131 233.12 258.119 219.523C262.4 209.806 283.105 209.912 290.252 213.173C293.306 214.566 295.974 210.042 292.9 208.64Z" fill="black"/>
<path d="M115.119 368.611C114.439 375.398 121.861 388.117 112.867 391.084C101.045 394.98 104.617 374.986 104.381 369.994C104.033 362.719 104.033 355.445 104.033 348.17C104.033 337.434 103.342 326.348 103.689 315.609C117.544 313.529 135.904 306.949 147.334 317.687C159.461 329.119 145.949 344.707 135.904 351.982C140.06 359.601 144.461 366.685 150.107 373.113C154.134 377.701 155.689 379.304 153.263 382.767C150.493 386.578 144.564 387.316 141.447 384.544C135.213 379.347 133.131 368.956 128.629 362.718C126.897 360.642 122.049 357.87 118.928 358.909C115.467 360.296 115.467 365.144 115.119 368.611ZM113.734 327.04C113.388 333.274 113.388 340.895 114.08 347.132C123.086 348.519 138.674 338.818 136.252 328.423C134.172 319.071 120.314 324.269 113.734 324.269C113.734 324.96 113.388 326.001 113.734 327.04Z" fill="#00C136"/>
<path d="M112.495 368.611C112.593 372.072 113.206 375.222 113.948 378.621C108.86 387.564 106.446 388.435 106.706 381.234C106.657 379.468 106.675 377.707 106.769 375.941C107.128 364.906 106.714 353.826 106.611 342.775C106.543 335.517 106.261 328.265 106.222 321.004C106.189 315.272 121.238 315.07 124.304 314.658C135.464 313.16 156.603 317.004 146.753 336.754C144.046 342.18 138.737 346.481 134.046 350.125C133.12 350.848 133.112 352.373 133.636 353.309C136.156 357.789 138.769 362.127 141.601 366.418C142.695 367.986 143.831 369.525 145.007 371.035C150.796 375.588 148.87 377.812 139.236 377.711C134.929 371.412 133.974 363.746 127.894 358.723C118.581 351.023 113.319 360.292 112.495 368.611C112.163 371.98 117.415 371.947 117.745 368.611C121.218 368.054 124.692 367.5 128.163 366.943C129.304 369.129 130.362 371.353 131.337 373.617C132.884 377.033 134.499 381.137 137.155 383.883C141.626 388.504 145.212 389.66 151.385 387.574C167.319 382.187 143.477 359.765 140.701 355.164C138.537 351.578 151.744 340.207 153.244 335.379C154.885 330.1 155.807 323.719 151.885 319.043C139.155 303.867 119.877 310.197 102.99 313.078C101.84 313.275 101.084 314.529 101.064 315.609C100.748 333.683 101.091 351.927 101.755 369.994C102.021 377.289 99.9821 384.974 104.321 391.459C107.329 395.957 113.212 393.918 116.841 391.813C123.673 387.846 117.892 373.907 117.743 368.612C117.651 365.232 112.401 365.222 112.495 368.611Z" fill="black"/>
<path d="M111.109 327.04C110.771 333.741 110.781 340.452 111.455 347.132C111.611 348.685 112.541 349.585 114.08 349.757C124.904 350.97 138.768 341.917 139.129 330.425C139.574 316.185 121.897 321.433 113.734 321.644C112.189 321.683 111.259 322.816 111.109 324.269C110.933 325.193 110.933 326.115 111.109 327.04C111.396 330.388 116.646 330.415 116.359 327.04C116.183 326.114 116.183 325.192 116.359 324.269C115.482 325.144 114.611 326.019 113.734 326.894C118.896 326.761 131.724 322.046 133.72 329.121C136.325 338.355 121.189 345.305 114.079 344.508C114.954 345.383 115.829 346.258 116.704 347.133C116.03 340.453 116.02 333.742 116.358 327.041C116.529 323.656 111.279 323.671 111.109 327.04Z" fill="black"/>
<path d="M218.35 312.837C204.838 311.107 190.985 313.874 177.473 312.491C175.741 332.581 178.858 353.02 178.166 373.112C178.166 375.536 176.432 381.081 177.822 383.159C180.244 385.93 190.635 384.198 194.101 384.198C198.259 384.198 210.728 387.315 214.539 384.889C218.697 381.772 216.965 373.457 213.498 372.073C207.959 369.993 200.685 373.803 195.139 371.727C190.985 369.993 191.676 367.914 191.33 363.067C190.984 357.87 190.291 356.137 195.834 355.098C200.686 354.403 213.154 358.909 216.272 354.752C217.311 353.711 216.965 346.092 216.272 345.051C215.233 343.668 211.077 343.668 209.342 343.668C203.453 343.32 193.408 346.092 190.635 340.895C187.174 333.965 190.985 324.959 198.26 323.922C204.494 323.229 211.768 324.959 218.35 324.959C219.737 321.496 219.737 316.99 218.698 313.873" fill="#00C136"/>
<path d="M218.35 310.212C204.717 308.991 191.12 310.782 177.473 309.866C175.975 309.764 174.936 311.139 174.848 312.491C173.526 332.72 175.914 352.876 175.541 373.112C175.41 380.323 172.725 385.675 181.65 387.19C185.681 387.876 190.048 387.034 194.101 386.823C200.216 386.509 206.208 388.669 212.423 388.241C218.581 387.817 220.493 380.688 219.091 375.587C215.839 363.765 194.511 374.273 193.954 363.067C193.442 352.735 211.919 362.815 218.126 356.608C220.419 354.315 220.849 344.475 217.595 342.786C213.894 340.862 210.259 341.034 206.103 341.077C204.9 341.159 203.697 341.243 202.492 341.325C194.494 342.817 194.699 337.848 203.101 326.417C208.105 326.282 213.343 327.327 218.349 327.585C219.49 327.644 220.609 326.743 220.88 325.657C222.017 321.141 222.118 317.743 221.228 313.177C220.58 309.855 215.521 311.265 216.165 314.572C218.663 327.39 203.161 319.48 197.56 321.392C192.947 322.968 190.798 324.669 188.154 328.874C185.42 333.222 186.144 343.458 191.877 345.413C196.639 347.036 201.104 346.669 206.104 346.327C208.938 346.136 213.971 345.223 214.295 349.901C214.733 356.172 202.893 352.999 201.461 352.827C195.022 352.057 189.322 352.632 188.482 359.776C187.525 367.922 189.837 373.426 197.947 374.893C199.422 375.135 200.908 375.094 202.4 374.772C208.197 374.44 214.48 383.45 206.205 383.01C200.189 382.69 194.932 381.451 188.877 381.918C179.158 382.672 180.779 373.781 180.893 367.625C181.094 356.598 180.143 345.525 179.717 334.512C179.373 325.651 176.237 315.391 187.658 315.51C197.957 315.617 208.047 314.539 218.349 315.461C221.723 315.765 221.694 310.513 218.35 310.212Z" fill="black"/>
<path d="M245.022 385.931C244.077 387.964 239.792 386.804 238.221 386.478C237.53 386.337 236.842 386.179 236.158 386.019C235.715 385.919 234.861 385.91 234.498 385.685C233.301 384.941 234.318 382.515 234.455 381.492C234.719 379.547 235.002 377.599 235.31 375.656C235.912 371.816 236.593 367.984 237.32 364.16C239.318 353.705 241.697 343.324 243.986 332.93C245.716 326.348 244.677 314.916 251.259 312.145C253.681 311.108 259.224 311.108 261.65 311.799C267.541 312.838 268.58 317.342 271.002 322.539C277.932 336.738 283.475 353.367 287.631 368.611C288.672 371.382 290.748 376.925 289.709 379.693C289.018 382.119 284.17 385.236 281.049 383.851C276.201 381.773 278.278 369.65 273.776 366.185C270.659 363.414 263.038 364.453 259.225 364.798C253.682 365.144 251.26 365.839 249.53 371.728C248.489 375.537 246.731 382.269 245.022 385.931ZM256.108 330.849C254.723 335.699 254.032 340.55 253.682 345.398C253.338 347.132 251.606 352.328 252.647 353.367C253.682 354.404 260.612 354.062 261.999 353.713C270.312 352.676 269.968 346.787 266.851 340.205C265.464 337.434 259.226 326.348 256.109 330.504" fill="#00C136"/>
<path d="M243.697 383.663C231.447 391.126 240.154 363.331 240.881 359.636C242.828 349.74 245.916 339.851 247.213 329.851C248.193 322.285 247.428 312.456 260.955 314.33C267.377 315.221 272.557 332.24 274.334 336.568C279.191 348.39 282.096 360.789 286.334 372.798C284.254 374.005 282.178 375.212 280.1 376.419C279.76 374.312 279.35 372.22 278.87 370.14C278.313 367.538 277.218 366.312 275.632 364.327C272.839 360.829 265.575 361.682 261.905 361.919C246.346 362.917 247.675 372.142 242.491 385.233C241.245 388.383 246.323 389.737 247.554 386.628C249.394 381.983 250.749 377.241 252.062 372.425C254.914 361.958 273.042 367.962 274.47 374.636C275.988 381.724 276.667 386.378 284.527 386.554C304.06 386.986 280.136 336.972 277.527 330.62C275.349 325.325 272.195 313.05 265.957 310.651C260.738 308.647 250.492 306.549 246.609 312.495C240.375 322.052 240.406 336.921 238.013 347.823C235.609 358.79 229.074 375.352 231.968 386.382C232.189 387.216 232.933 388.04 233.804 388.216C238.306 389.122 242.222 390.71 246.347 388.196C249.232 386.439 246.595 381.898 243.697 383.663Z" fill="black"/>
<path d="M253.575 330.152C252.141 335.465 252.118 341.021 250.761 346.287C250.115 348.797 248.587 353.021 250.786 355.223C254.241 358.678 265.774 356.832 268.901 353.672C273.964 348.555 270.495 341.037 267.407 335.805C265.11 331.912 259.302 323.305 254.251 328.649C251.927 331.106 255.634 334.827 257.966 332.36C258.575 331.715 263.599 339.694 264.062 340.532C266.148 344.331 268.082 349.528 262.607 350.966C260.865 351.423 258.97 351.413 257.189 351.437C256.228 351.449 255.25 351.414 254.3 351.248C254.513 351.547 254.728 351.846 254.943 352.143C254.978 351.348 255.095 350.565 255.297 349.793C256.568 343.729 257.018 337.559 258.639 331.549C259.524 328.275 254.458 326.886 253.575 330.152Z" fill="black"/>
<path d="M316.037 305.218C331.973 305.218 344.443 310.757 353.795 324.269C364.533 339.855 362.804 369.65 344.792 379.347C336.132 384.199 325.738 385.581 316.037 383.851C304.951 381.773 308.068 371.033 309.455 362.027C312.226 343.67 312.226 324.615 315.346 306.256M343.058 334.316C339.505 328.728 332.151 324.099 325.444 324.668C325.01 333.268 325.082 341.711 323.658 350.25C322.963 354.404 321.58 358.564 320.887 362.719C320.196 367.571 319.503 368.262 324.355 369.651C340.634 374.499 350.334 345.747 343.058 334.316Z" fill="#00C136"/>
<path d="M316.039 307.843C347.68 308.876 368.713 340.157 352.164 368.956C346.934 378.054 335.496 381.001 325.881 381.905C308.361 383.553 311.297 367.788 312.742 357.198C315.019 340.501 315.32 323.628 317.879 306.952C318.387 303.641 313.33 302.218 312.816 305.557C310.505 320.612 309.64 335.787 308.209 350.94C307.602 357.364 302.484 372.96 306.453 379.733C315.254 394.758 341.601 386.003 352.055 377.274C365.303 366.21 365.01 343.835 359.442 329.245C352.587 311.28 333.965 303.179 316.04 302.593C312.652 302.482 312.662 307.734 316.039 307.843Z" fill="black"/>
<path d="M345.326 332.99C340.412 326.312 333.883 322.117 325.443 322.043C323.963 322.031 322.879 323.25 322.818 324.668C322.447 332.988 322.334 341.297 321.127 349.553C320.277 355.354 317.166 361.541 317.916 367.485C318.686 373.602 328.926 373.243 333.084 371.856C346.879 367.257 351.736 344.546 345.326 332.99C343.681 330.031 339.146 332.677 340.791 335.64C346.178 345.351 341.299 363.589 330.197 367.288C326.271 368.597 322.799 367.477 323.418 363.415C324.057 359.218 325.352 355.11 326.189 350.946C327.918 342.372 327.681 333.366 328.068 324.667C327.191 325.542 326.318 326.417 325.443 327.292C331.937 327.351 336.994 330.478 340.791 335.64C342.775 338.335 347.336 335.722 345.326 332.99Z" fill="black"/>
<path d="M379.212 323.576C384.759 330.158 390.993 336.392 392.38 345.053C393.765 353.713 393.765 362.719 393.415 371.383C393.415 373.459 391.685 380.389 393.071 382.119C394.11 383.506 401.731 384.199 403.466 383.16C409.353 379.693 405.542 365.494 405.196 359.601C404.848 353.712 404.501 344.361 406.233 338.818C408.313 331.89 416.973 322.539 421.477 316.992C424.594 313.529 433.946 306.256 431.522 301.06C423.553 284.431 403.465 324.96 398.266 325.306C391.684 326.001 383.028 310.417 379.563 305.911C376.573 302.024 374.52 298.44 368.872 298.632C356.012 299.068 376.878 320.804 379.212 323.576Z" fill="#00C136"/>
<path d="M377.357 325.431C388.24 338.14 391.033 349.601 390.951 366.148C390.931 369.89 387.772 380.533 391.214 383.976C398.62 391.38 408.134 384.456 409.224 376.433C410.132 369.769 407.96 362.386 407.63 355.71C406.833 339.569 413.455 330.737 423.334 318.847C428.397 312.753 441.701 301.531 429.17 294.988C421.666 291.07 412.886 303.801 409.417 308.213C405.96 312.609 402.853 317.283 399.146 321.481C394.791 326.415 382.009 304.167 379.283 301.252C376.095 297.846 362.96 291.641 362.229 300.859C361.495 310.06 371.826 319.124 377.357 325.431C379.595 327.982 383.292 324.253 381.073 321.718C379.053 319.417 377.017 317.136 375.049 314.792C373.467 312.905 371.986 310.942 370.611 308.903C368.037 305.237 365.558 291.839 377.299 307.237C382.697 314.317 386.629 322.745 394.682 327.237C403.745 332.296 417.053 306.63 421.803 302.214C427.592 297.245 428.373 300.046 424.151 310.62C421.921 313.046 419.583 315.184 417.467 317.727C413.84 322.094 410.326 326.42 407.113 331.104C401.029 339.965 401.782 351.999 402.839 362.163C403.132 364.351 403.428 366.542 403.729 368.729C403.834 369.917 403.94 371.102 404.043 372.29C405.455 379.976 402.674 380.675 395.699 374.39C396.564 368.183 396.256 361.808 396.068 355.568C395.64 341.158 390.225 332.41 381.073 321.718C378.866 319.144 375.168 322.874 377.357 325.431Z" fill="black"/>
<path d="M91.8296 141.955C91.3396 134.928 90.8706 127.892 90.6006 120.853C90.4696 117.355 90.3836 113.853 90.3716 110.355C90.3636 107.794 89.6037 103.523 90.6137 101.144C91.9617 97.962 97.7076 98.124 100.512 98.027C103.992 97.908 107.5 98.025 110.965 98.336C117.473 98.918 124.953 100.354 130.012 104.816C145.602 118.328 134.688 139.632 119.1 146.384C132.09 145.866 141.446 159.374 135.729 172.364C130.012 185.876 106.11 184.837 94.1607 184.837H93.6376C94.4666 184.837 92.0756 145.511 91.8296 141.955ZM119.769 131.49C123.236 128.201 124.794 122.312 123.236 117.808C122.564 115.872 121.134 113.642 119.465 112.406C117.451 110.922 114.649 111.25 112.35 110.535C110.53 109.969 105.004 108.357 103.373 109.885C102.342 110.848 102.56 114.698 102.541 116.119C102.506 118.389 102.473 120.662 102.459 122.935C102.428 127.515 102.076 132.415 102.719 136.945C108.775 138.257 115.412 135.847 119.769 131.49ZM115.293 154.931C114.584 154.71 113.877 154.552 113.195 154.476C110.933 154.216 108.568 154.79 106.377 155.091C104.432 155.359 104.08 155.208 103.475 156.695C102.17 159.871 103.151 163.91 103.268 167.23C103.375 170.343 103.551 173.523 103.715 176.671C103.713 176.61 106.951 176.651 107.207 176.628C110.9 176.276 115.447 175.874 118.537 173.507C123.049 170.038 124.822 165.249 122.037 160.064C120.736 157.644 118.01 155.783 115.293 154.931Z" fill="#FF659B"/>
<path d="M94.4548 141.955C93.8528 133.176 93.3339 124.402 93.0679 115.605C92.7549 105.332 95.0129 100.66 105.744 100.644C119.23 100.624 134.142 105.324 134.945 121.257C135.463 131.542 125.853 140.003 117.777 144.118C115.287 145.386 116.675 148.848 119.101 149.009C132.958 149.929 139.796 164.712 130.398 175.454C127.199 179.11 121.123 180.186 116.584 181.136C109.146 182.693 101.193 182.212 93.6388 182.212C94.4828 183.319 95.3268 184.427 96.1698 185.534C97.9138 180.581 96.1558 172.878 95.9118 167.79C95.5058 159.175 95.0208 150.562 94.4548 141.955C94.2318 138.596 88.9818 138.574 89.2048 141.955C89.6388 148.516 89.9978 155.078 90.3498 161.643C90.6818 167.782 93.1899 178.227 91.1079 184.141C90.5339 185.77 92.0218 187.463 93.6388 187.463C105.842 187.463 129.229 189.426 136.504 176.369C144.904 161.297 136.246 144.898 119.102 143.76C119.545 145.391 119.987 147.022 120.426 148.653C139.211 139.081 151.1 106.465 123.696 98.2429C116.301 96.0259 96.6959 90.915 90.4829 97.473C87.5319 100.584 87.4478 103.071 87.5848 107.36C87.9478 118.909 88.4168 130.423 89.2058 141.956C89.4308 145.314 94.6848 145.335 94.4548 141.955Z" fill="black"/>
<path d="M121.627 133.347C125.772 128.863 127.369 123.036 125.768 117.111C123.725 109.56 117.398 109.175 111.109 107.449C106.711 106.242 100.683 105.75 100.078 111.613C99.2395 119.758 99.1925 128.836 100.095 136.945C100.214 138.025 100.798 139.275 102.023 139.476C109.433 140.699 116.135 138.413 121.627 133.347C124.117 131.046 120.398 127.341 117.913 129.634C113.917 133.325 108.884 135.316 103.417 134.413C104.062 135.257 104.702 136.101 105.345 136.944C105.075 134.518 103.799 111.878 106.451 111.893C109.539 111.913 112.99 113.352 116.055 113.842C123.655 115.055 121.417 125.847 117.913 129.634C115.62 132.118 119.322 135.835 121.627 133.347Z" fill="black"/>
<path d="M115.99 152.4C112.939 151.591 110.095 151.865 107.013 152.355C105.15 152.652 102.542 152.642 101.556 154.658C100.197 157.435 100.091 160.234 100.31 163.275C100.634 167.738 100.855 172.201 101.089 176.671C101.159 177.993 102.235 179.439 103.714 179.296C111.009 178.597 119.036 178.944 123.646 171.997C128.9 164.074 124.275 155.439 115.99 152.4C112.806 151.23 111.443 156.306 114.595 157.463C121.831 160.117 122.394 167.791 116.13 171.961C112.521 174.363 107.778 173.658 103.714 174.047C104.591 174.922 105.462 175.797 106.339 176.672C106.105 172.205 105.987 167.731 105.56 163.276C105.39 161.485 104.672 157.993 107.075 157.624C109.661 157.228 112.021 156.78 114.596 157.464C117.871 158.331 119.26 153.267 115.99 152.4Z" fill="black"/>
<path d="M154.092 106.55C154.436 115.732 153.051 124.909 153.401 134.089C153.745 143.616 152.706 153.835 155.303 163.017C156.862 168.384 159.461 173.581 164.83 175.486C169.68 177.39 176.264 177.566 181.283 176.525C186.133 175.486 192.021 174.273 195.314 170.464C198.777 166.48 200.335 161.282 200.853 156.261C201.894 147.773 202.761 139.978 202.068 131.49C201.377 123.179 201.029 114.691 202.588 106.377C198.777 106.031 195.139 106.031 191.33 105.684C189.943 115.211 190.81 125.606 190.81 135.129C190.81 143.617 191.501 157.301 183.015 162.15C179.898 163.88 173.488 164.918 170.197 163.017C166.213 160.763 166.386 152.794 165.695 148.638C163.961 138.591 164.83 128.894 165.521 118.673C165.695 114.173 165.521 109.321 165.521 104.642C161.884 105.509 157.902 104.642 154.435 105.509" fill="#FF659B"/>
<path d="M151.468 106.55C151.587 130.911 140.195 180.04 177.277 179.695C215.256 179.34 201.738 130.644 205.121 107.074C205.371 105.332 204.445 103.867 202.59 103.752C198.838 103.523 195.086 103.291 191.332 103.059C189.791 102.963 188.853 104.332 188.707 105.684C187.414 117.692 194.324 154.856 179.465 160.752C165.926 166.127 167.361 140.01 167.326 133.723C167.273 124.028 168.228 114.362 168.148 104.643C168.136 103.334 166.957 101.858 165.523 102.018C161.812 102.434 158.148 102.457 154.437 102.885C151.117 103.27 151.078 108.526 154.437 108.135C166.113 106.783 163.218 114.004 162.55 123.744C161.902 133.183 162.277 142.14 163.423 151.514C164.569 160.899 166.433 166.516 176.675 166.571C186.919 166.626 191.372 157.606 192.886 148.993C193.952 142.925 193.452 136.43 193.378 130.304C193.319 125.345 193.177 120.4 193.206 115.435C193.247 108.044 195.901 108.591 202.589 109.003C201.745 107.896 200.901 106.788 200.058 105.681C197.359 124.492 208.423 165.958 184.363 173.146C146.945 184.324 156.816 126.646 156.718 106.552C156.698 103.163 151.448 103.163 151.468 106.55Z" fill="black"/>
<path d="M256.282 116.074C258.427 111.41 254.3 108.797 250.889 106.646C248.5 105.144 245.85 104.068 243.096 103.453C237.744 102.258 231.908 102.803 227.01 105.34C217.311 110.36 215.057 124.217 222.508 132.012C229.783 139.633 242.729 137.729 244.979 150.024C246.885 161.284 235.756 168.731 225.799 162.842C222.365 160.811 220.475 156.627 218.842 152.19C215.205 152.538 210.381 154.354 210.555 158.684C210.729 162.842 215.407 168.039 218.002 170.983C224.758 178.606 237.229 177.046 244.85 171.503C253.682 165.095 256.975 156.263 254.205 145.694C252.297 138.075 243.986 130.973 236.885 128.374C233.072 127.165 228.697 126.599 227.83 121.575C227.312 117.417 230.992 114.175 234.803 113.653C242.079 112.785 251.432 126.642 256.282 116.074Z" fill="#FF659B"/>
<path d="M258.813 116.771C262.151 97.4349 230.081 97.722 220.247 107.437C215.405 112.22 213.921 122.007 216.919 128.05C219.105 132.46 221.925 135.316 226.097 137.898C228.04 139.097 232.644 140.822 234.304 141.531C235.159 141.965 236.015 142.398 236.867 142.832C229.504 159.707 224.338 162.594 221.375 151.492C220.816 150.08 219.674 149.361 218.148 149.658C201.445 152.894 209.914 167.219 218.595 175.047C228.214 183.717 246.284 177.047 252.697 167.578C262.125 153.648 257.062 138.941 244.418 129.344C241.541 127.16 238.086 125.992 234.684 124.977C236.5 118.151 239.2 116.305 242.786 119.44C244.331 120.34 246.253 121.649 248.028 122.069C253.19 123.292 255.782 121.729 258.551 117.399C260.379 114.54 255.832 111.907 254.016 114.751C251.321 118.97 237.032 110.2 231.336 111.995C225.357 113.88 224.537 120.423 226.547 125.286C227.235 126.954 228.906 128.268 230.559 128.934C239.911 132.715 247.793 135.854 251.676 146.391C256.248 158.807 246.262 169.618 235.307 172.993C229.682 174.497 224.536 173.208 219.862 169.128C211.893 161.944 220.563 162.075 217.87 156.767C224.974 170.781 244.19 171.046 247.684 154.322C249.098 147.564 244.661 141.822 239.52 138.301C234.657 134.975 229.014 134.186 224.368 130.158C215.095 122.127 223.212 109.678 231.54 106.34C235.583 104.721 255.419 105.727 253.753 115.379C253.179 118.687 258.239 120.105 258.813 116.771Z" fill="black"/>
<path d="M268.926 174.964C274.123 157.991 275.51 138.937 280.358 121.62C282.436 113.997 283.129 105.337 292.135 106.03C301.834 106.721 306.684 119.194 309.11 127.854C313.612 142.057 318.464 156.952 320.887 171.846C309.801 176.348 311.338 170.815 307.033 160.762C304.408 154.637 299.064 156.256 292.48 156.256C287.978 156.256 286.375 156.215 283.951 158.985C281.525 161.758 281.31 165.526 280.963 168.989C280.619 173.841 281.049 174.62 276.201 175.657C273.775 176.003 271.002 175.657 268.926 175.311M293.347 125.167C292.656 128.98 290.056 132.702 289.017 136.511C286.246 144.134 285.214 146.921 294.906 146.56C308.935 146.042 298.595 131.841 293.347 125.167Z" fill="#FF659B"/>
<path d="M271.457 175.662C277.041 155.996 279.463 135.586 284.557 115.773C289.188 114.492 293.819 113.209 298.452 111.929C301.177 115.011 303.218 118.497 304.575 122.384C306.663 127.425 307.968 132.921 309.602 138.116C310.577 141.216 320.182 169.317 316.936 170.452C311.538 172.339 310.116 159.2 307 156.085C303.344 152.431 297.021 153.489 292.48 153.632C288.646 153.753 283.939 153.777 281.685 157.661C277.878 164.216 279.537 173.995 268.925 172.686C265.571 172.274 265.609 177.528 268.925 177.936C273.859 178.545 278.206 178.872 282.126 175.61C282.888 174.977 283.083 173.389 283.286 172.63C285.126 165.718 288.157 159.019 296.266 158.763C308.141 158.39 304.877 169.013 310.106 174.243C313.256 177.391 318.067 175.606 321.583 174.378C323.03 173.872 323.685 172.632 323.417 171.149C320.349 154.11 315.329 137.329 309.636 120.989C307.228 114.073 301.07 102.759 292.134 103.405C283.239 104.05 280.749 109.493 278.661 117.622C273.845 136.358 271.679 155.659 266.393 174.267C265.469 177.529 270.533 178.913 271.457 175.662Z" fill="black"/>
<path d="M290.818 124.47C289.365 130.689 283.816 137.406 284.537 144.068C285.195 150.15 293.478 149.464 297.779 148.875C312.381 146.863 299.445 128.734 295.207 123.312C293.121 120.648 289.434 124.39 291.492 127.023C293.949 130.164 304.039 142.119 296.383 143.812C294.41 144.246 291.832 144.113 289.887 143.589C289.367 143.448 290.063 141.591 290.266 140.898C291.78 135.757 294.662 131.074 295.881 125.865C296.652 122.572 291.59 121.173 290.818 124.47Z" fill="black"/>
<path d="M349.638 160.763C349.831 164.031 350.06 167.312 347.159 169.392C344.473 171.316 340.145 171.445 337.981 168.8C333.793 163.693 337.141 153.144 336.938 147.103C336.594 136.99 335.782 126.89 335.782 116.769C335.782 107.068 333.704 101.179 345.483 100.833C355.876 100.487 360.376 112.265 365.571 120.231C371.805 129.93 373.54 143.442 381.161 152.1C387.743 145.866 382.895 132.702 381.856 124.737C380.815 117.807 380.469 109.839 381.161 102.565C382.2 93.905 393.286 94.598 393.977 103.604C395.018 114.688 394.668 126.12 394.668 136.86C394.668 144.133 396.75 152.448 395.363 159.723C393.976 167.342 382.547 169.077 377.004 164.571C371.463 160.415 354.141 120.579 347.906 125.079C342.365 128.894 349.293 154.874 349.638 160.763Z" fill="#FF659B"/>
<path d="M347.012 160.763C344.176 160.515 341.336 160.267 338.5 160.019C338.609 157.722 338.816 155.431 339.125 153.152C339.738 147.734 339.377 142.431 339.109 136.992C338.644 127.476 338.187 117.933 338.304 108.402C338.462 95.261 355.988 109.744 358.093 112.91C360.657 116.764 362.931 120.906 365.23 124.92C370.597 134.297 372.21 144.691 378.892 153.426C379.794 154.606 381.871 155.438 383.017 153.957C387.048 148.742 387.775 143.217 386.691 136.676C385.548 129.776 384.144 123.03 383.586 116.035C383.41 113.025 383.381 110.014 383.492 107C386.234 107.459 388.976 107.916 391.719 108.375C391.907 111.568 392.02 114.766 392.063 117.965C392.215 124.258 392.065 130.567 392.043 136.861C392.018 144.091 397.856 162.894 384.883 164.402C375.916 165.445 369.852 148.734 366.43 142.75C363.899 138.332 354.729 118.041 346.582 122.814C337.262 128.273 346.192 152.98 347.012 160.763C347.364 164.095 352.617 164.128 352.262 160.763C351.246 151.126 348.555 141.812 348.395 132.058C348.239 122.511 354.225 132.97 356.124 135.826C359.247 140.517 361.96 145.494 364.739 150.389C368.38 156.795 371.497 164.325 378.003 168.239C383.665 171.645 393.331 169.335 396.671 163.63C398.909 159.81 398.441 154.81 398.345 150.63C398.13 141.317 397.329 132.109 397.351 122.755C397.365 116.485 400.128 97.005 390.591 94.505C366.056 88.077 386.103 141.45 379.304 150.247C380.681 150.423 382.056 150.601 383.429 150.778C372.824 136.915 370.943 112.092 355.48 101.673C347.013 95.968 334.49 96.95 333.056 108.403C331.702 119.227 333.577 131.202 334.107 142.048C334.468 149.415 330.66 160.898 334.349 167.634C340.587 179.025 352.562 171.677 352.263 160.765C352.173 157.386 346.919 157.374 347.012 160.763Z" fill="black"/>
<path d="M202.761 202.675C199.644 203.025 191.675 202.333 189.251 204.064C184.399 207.181 187.517 210.99 191.329 212.377C193.895 213.311 197.567 212.291 200.282 212.43C199.911 219.328 201.376 226.487 201.376 233.518C201.378 240.997 202.997 248.467 203.056 255.979C203.083 259.329 203.353 263.631 201.724 266.7C199.06 271.716 192.083 269.134 189.599 273.692C186.826 279.235 193.06 280.276 196.872 280.276C205.532 279.926 214.888 279.235 223.548 278.198C231.859 277.505 233.243 268.149 224.931 266.766C222.853 266.418 216.964 268.149 214.888 266.766C212.806 265.032 213.497 259.143 213.497 256.026C213.497 248.403 213.325 240.614 212.634 232.645C211.939 226.411 207.892 213.03 214.45 211.858C218.593 211.12 222.68 212.987 224.93 209.608C226.649 207.028 223.891 204.065 221.813 203.372C217.309 201.294 207.958 202.677 202.415 202.677" fill="#FF659B"/>
<path d="M202.763 200.05C195.781 200.38 184.218 198.95 184.421 208.868C184.476 211.651 188.308 214.266 190.634 214.907C192.273 215.358 197.665 214.036 197.675 217.643C197.691 224.752 198.685 232.008 199.007 239.123C199.552 251.053 204.638 263.947 190.862 269.162C188.003 270.244 186.299 273.576 186.299 276.502C186.299 287.951 213.619 281.834 218.279 281.402C224.634 280.812 237.619 277.759 232.011 268.189C230.122 264.962 226.175 264.111 222.777 264.185C211.879 264.425 216.045 246.529 215.687 238.583C215.302 230.095 209.052 214.759 222.132 214.149C226.06 213.967 227.384 210.778 227.88 207.692C229.62 196.829 206.816 199.897 202.415 200.047C199.04 200.164 199.028 205.414 202.415 205.297C206.493 205.158 210.556 204.938 214.634 204.852C220.04 208.582 219.978 210.043 214.45 209.229C213.975 209.231 213.536 209.352 213.126 209.588C208.583 211.813 208.177 215.574 208.198 220.348C208.235 230.254 210.602 240.264 210.835 250.274C210.952 255.276 208.872 264.46 213.028 268.618C213.864 269.454 215.317 269.575 216.342 269.829C217.52 270.032 218.709 270.013 219.906 269.776C225.031 268.43 224.486 270.557 218.277 276.151C211.168 276.934 204.013 277.307 196.871 277.647C193.562 274.196 193.844 272.495 197.719 272.542C198.817 272.095 199.912 271.642 201.002 271.179C206.111 268.185 205.719 260.941 205.68 255.976C205.567 241.456 202.946 226.978 202.907 212.427C202.903 211.062 201.716 209.716 200.282 209.802C196.169 211.507 194.126 210.091 194.157 205.55C196.97 205.196 199.925 205.433 202.761 205.298C206.132 205.14 206.149 199.89 202.763 200.05Z" fill="black"/>
<path d="M284.302 203.285C277.859 199.201 267.204 200.529 260.843 202.717C250.058 205.805 245.456 210.918 246.954 222.949C248.151 232.574 255.968 239.279 264.132 243.15C271.132 246.117 281.888 248.699 279.146 258.103C277.025 265.376 271.599 268.523 264.597 265.552C259.484 263.745 251.753 250.277 245.562 256.634C238.773 263.763 253.16 272.792 257.972 274.986C265.788 278.898 273.136 279.033 280.187 273.966C294.671 264.134 295.283 243.808 278.617 236.112C271.957 233.096 261.949 231.204 258.601 223.938C254.695 215 261.269 211.739 269.386 212.475C273.601 212.647 279.872 215.358 283.827 213.467C287.78 211.581 289.112 205.48 284.302 203.285Z" fill="#FF659B"/>
<path d="M285.625 201.019C273.842 195.642 257.998 197.816 248.264 206.607C238.842 215.115 245.662 231.125 252.463 238.461C257.477 243.867 264.871 246.053 271.358 248.973C268.669 261.227 265.092 264.625 260.62 259.17C259.229 257.791 257.761 256.498 256.222 255.285C254.402 253.773 252.749 253.17 250.57 252.457C241.213 249.402 239.73 263.463 244.504 268.355C254.727 278.835 268.192 283.808 281.512 276.234C290.875 270.908 296.76 256.968 292.283 246.812C289.601 240.73 285.707 237.042 279.941 233.847C275.994 231.658 271.183 230.484 267.111 228.566C259.609 217 261.293 212.644 272.168 215.5C273.662 215.891 275.174 216.18 276.703 216.371C285.703 217.295 295.769 209.023 286.16 201.43C283.531 199.356 279.791 203.043 282.445 205.141C288.457 209.893 267.509 209.815 266.031 209.786C263.707 209.741 260.484 210.446 258.648 212.009C253.201 216.648 254.558 222.521 258.146 228.072C264.523 237.927 279.683 236.228 286.482 246.59C295.914 260.955 277.265 277.137 263.304 274.34C260.366 273.344 257.601 272.01 255.007 270.342C248.14 266.272 252.183 258.471 256.909 262.883C262.116 267.744 267.204 270.578 274.399 268.203C279.077 266.66 283.213 258.849 282.104 254.185C280.34 246.765 274.194 244.345 267.596 241.728C255.916 237.095 244.856 225.498 250.844 211.904C255.127 202.185 275.828 202.293 282.977 205.552C286.033 206.945 288.701 202.421 285.625 201.019Z" fill="black"/>
<path d="M107.844 360.99C107.16 367.775 114.586 380.496 105.59 383.461C93.7705 387.361 97.3405 367.365 97.1045 362.373C96.7585 355.1 96.7585 347.824 96.7585 340.551C96.7585 329.813 96.0635 318.727 96.4125 307.99C110.266 305.91 128.627 299.326 140.058 310.066C152.183 321.498 138.671 337.087 128.626 344.361C132.784 351.982 137.183 359.062 142.829 365.49C146.858 370.082 148.413 371.683 145.987 375.146C143.216 378.959 137.286 379.697 134.169 376.921C127.935 371.728 125.855 361.335 121.351 355.099C119.621 353.021 114.773 350.249 111.652 351.29C108.19 352.675 108.19 357.525 107.844 360.99ZM106.458 319.421C106.114 325.655 106.115 333.275 106.807 339.509C115.811 340.896 131.401 331.195 128.979 320.804C126.897 311.452 113.04 316.646 106.458 316.646C106.458 317.341 106.114 318.38 106.458 319.421Z" fill="#FF659B"/>
<path d="M105.219 360.99C105.313 364.453 105.928 367.599 106.672 370.998C101.582 379.945 99.1684 380.816 99.4304 373.613C99.3774 371.849 99.4014 370.086 99.4934 368.322C99.8524 357.285 99.4363 346.207 99.3333 335.156C99.2673 327.896 98.9813 320.644 98.9423 313.385C98.9113 307.653 113.962 307.447 117.024 307.037C128.188 305.539 149.325 309.383 139.473 329.135C136.77 334.561 131.457 338.86 126.77 342.506C125.844 343.227 125.836 344.754 126.36 345.688C128.88 350.168 131.493 354.506 134.323 358.797C135.419 360.363 136.555 361.902 137.727 363.412C143.52 367.965 141.594 370.189 131.957 370.09C127.652 363.789 126.695 356.125 120.617 351.102C111.305 343.402 106.046 352.671 105.219 360.99C104.885 364.359 110.137 364.328 110.469 360.99C113.942 360.435 117.414 359.879 120.887 359.324C122.028 361.51 123.084 363.732 124.057 365.996C125.606 369.412 127.221 373.516 129.879 376.262C134.348 380.881 137.934 382.039 144.108 379.953C160.046 374.57 136.2 352.142 133.426 347.543C131.262 343.957 144.465 332.588 145.969 327.76C147.61 322.481 148.532 316.1 144.61 311.422C131.88 296.244 112.606 302.576 95.7153 305.459C94.5633 305.654 93.8053 306.908 93.7873 307.99C93.4693 326.062 93.8164 344.308 94.4784 362.373C94.7464 369.67 92.7073 377.355 97.0443 383.838C100.054 388.336 105.939 386.297 109.565 384.19C116.397 380.227 110.612 366.286 110.467 360.991C110.38 357.613 105.126 357.601 105.219 360.99Z" fill="black"/>
<path d="M103.833 319.421C103.497 326.12 103.505 332.829 104.181 339.509C104.335 341.062 105.267 341.962 106.806 342.134C117.63 343.347 131.494 334.296 131.851 322.804C132.298 308.566 114.622 313.808 106.458 314.021C104.915 314.062 103.983 315.193 103.833 316.646C103.661 317.57 103.661 318.496 103.833 319.421C104.122 322.769 109.374 322.796 109.083 319.421C108.911 318.495 108.911 317.569 109.083 316.646C108.208 317.521 107.335 318.398 106.458 319.271C111.622 319.138 124.45 314.427 126.446 321.501C129.05 330.733 113.915 337.681 106.805 336.884C107.68 337.759 108.553 338.636 109.43 339.509C108.754 332.829 108.747 326.12 109.083 319.421C109.256 316.035 104.005 316.052 103.833 319.421Z" fill="black"/>
<path d="M211.075 305.214C197.563 303.484 183.706 306.255 170.196 304.872C168.466 324.96 171.583 345.401 170.891 365.489C170.891 367.915 169.157 373.458 170.543 375.538C172.969 378.309 183.359 376.579 186.824 376.579C190.982 376.579 203.451 379.696 207.262 377.27C211.42 374.153 209.688 365.838 206.223 364.452C200.684 362.372 193.407 366.184 187.864 364.106C183.706 362.372 184.399 360.295 184.055 355.446C183.705 350.249 183.014 348.518 188.557 347.477C193.407 346.784 205.877 351.29 208.995 347.131C210.036 346.092 209.688 338.471 208.995 337.432C207.958 336.045 203.802 336.045 202.067 336.045C196.176 335.699 186.131 338.471 183.36 333.274C179.897 326.346 183.706 317.34 190.983 316.303C197.217 315.608 204.493 317.34 211.075 317.34C212.462 313.877 212.462 309.371 211.421 306.254" fill="#FF659B"/>
<path d="M211.076 302.589C197.441 301.368 183.846 303.163 170.197 302.247C168.701 302.145 167.662 303.518 167.572 304.872C166.252 325.101 168.638 345.255 168.267 365.489C168.134 372.704 165.443 378.055 174.376 379.571C178.407 380.255 182.774 379.413 186.825 379.204C192.94 378.89 198.934 381.05 205.149 380.62C211.305 380.196 213.219 373.069 211.817 367.968C208.563 356.146 187.233 366.652 186.68 355.447C186.166 345.115 204.641 355.197 210.852 348.988C213.143 346.695 213.571 336.859 210.319 335.168C206.618 333.238 202.983 333.412 198.829 333.457C197.626 333.541 196.421 333.623 195.214 333.705C187.22 335.197 187.423 330.228 195.825 318.799C200.829 318.662 206.065 319.709 211.075 319.967C212.216 320.026 213.333 319.125 213.606 318.039C214.743 313.523 214.842 310.125 213.952 305.559C213.306 302.237 208.245 303.647 208.889 306.954C211.387 319.772 195.887 311.864 190.285 313.774C185.668 315.348 183.523 317.051 180.879 321.256C178.145 325.602 178.867 335.84 184.602 337.793C189.364 339.416 193.829 339.051 198.829 338.707C201.665 338.514 206.696 337.6 207.02 342.283C207.458 348.554 195.618 345.379 194.184 345.209C187.746 344.439 182.047 345.014 181.207 352.156C180.248 360.304 182.562 365.806 190.672 367.273C192.145 367.515 193.629 367.476 195.125 367.152C200.918 366.822 207.203 375.832 198.928 375.39C192.914 375.072 187.655 373.831 181.602 374.3C171.881 375.052 173.504 366.161 173.616 360.003C173.817 348.976 172.866 337.905 172.442 326.894C172.098 318.033 168.962 307.773 180.383 307.89C190.68 307.995 200.77 306.917 211.074 307.839C214.447 308.142 214.42 302.888 211.076 302.589Z" fill="black"/>
<path d="M237.748 378.31C236.803 380.341 232.516 379.183 230.943 378.859C230.254 378.718 229.568 378.56 228.882 378.398C228.439 378.296 227.583 378.291 227.22 378.064C226.023 377.32 227.042 374.894 227.181 373.873C227.443 371.928 227.728 369.978 228.036 368.037C228.636 364.195 229.317 360.363 230.044 356.541C232.044 346.084 234.423 335.705 236.708 325.311C238.442 318.727 237.401 307.295 243.985 304.524C246.407 303.485 251.95 303.485 254.376 304.178C260.265 305.215 261.306 309.721 263.728 314.916C270.658 329.119 276.201 345.748 280.357 360.99C281.396 363.76 283.474 369.304 282.435 372.074C281.744 374.5 276.894 377.617 273.775 376.23C268.925 374.154 271.002 362.027 266.5 358.564C263.383 355.793 255.764 356.834 251.951 357.179C246.408 357.525 243.986 358.216 242.252 364.107C241.213 367.915 239.455 374.648 237.748 378.31ZM248.834 323.23C247.447 328.078 246.756 332.929 246.408 337.779C246.062 339.509 244.33 344.707 245.371 345.748C246.408 346.785 253.338 346.441 254.723 346.094C263.037 345.053 262.69 339.164 259.573 332.584C258.19 329.813 251.952 318.727 248.835 322.885" fill="#FF659B"/>
<path d="M236.425 376.044C224.171 383.499 232.878 355.716 233.607 352.015C235.554 342.12 238.64 332.23 239.937 322.23C240.919 314.669 240.158 304.828 253.681 306.709C260.109 307.605 265.281 324.613 267.062 328.949C271.917 340.769 274.82 353.168 279.058 365.178C276.98 366.385 274.904 367.592 272.828 368.799C272.49 366.692 272.08 364.598 271.598 362.52C271.039 359.918 269.946 358.692 268.36 356.709C265.563 353.211 258.301 354.063 254.631 354.299C239.07 355.299 240.404 364.52 235.219 377.613C233.971 380.765 239.051 382.117 240.282 379.008C242.122 374.363 243.475 369.623 244.786 364.805C247.634 354.336 265.77 360.346 267.2 367.016C268.716 374.102 269.395 378.76 277.255 378.934C296.786 379.366 272.864 329.352 270.253 323C268.079 317.707 264.921 305.428 258.685 303.031C253.462 301.027 243.22 298.927 239.337 304.877C233.103 314.432 233.13 329.301 230.739 340.205C228.335 351.176 221.805 367.728 224.692 378.762C224.913 379.598 225.657 380.422 226.528 380.596C231.032 381.502 234.946 383.09 239.075 380.578C241.962 378.82 239.325 374.279 236.425 376.044Z" fill="black"/>
<path d="M246.303 322.533C244.867 327.844 244.843 333.402 243.486 338.664C242.84 341.174 241.314 345.402 243.513 347.603C246.97 351.058 258.502 349.21 261.627 346.048C266.688 340.933 263.219 333.417 260.131 328.183C257.838 324.292 252.026 315.683 246.976 321.027C244.654 323.486 248.36 327.205 250.692 324.74C251.301 324.094 256.327 332.074 256.786 332.91C258.872 336.707 260.806 341.906 255.333 343.344C253.593 343.803 251.698 343.793 249.917 343.817C248.956 343.829 247.976 343.794 247.026 343.628C247.241 343.927 247.455 344.224 247.668 344.523C247.703 343.726 247.821 342.943 248.023 342.171C249.293 336.108 249.743 329.937 251.366 323.929C252.249 320.654 247.185 319.267 246.303 322.533Z" fill="black"/>
<path d="M308.764 297.597C324.698 297.597 337.17 303.138 346.522 316.646C357.26 332.236 355.528 362.027 337.514 371.728C328.856 376.58 318.463 377.962 308.764 376.23C297.678 374.154 300.795 363.414 302.182 354.408C304.952 336.047 304.952 316.996 308.069 298.635M335.784 326.695C332.231 321.109 324.878 316.48 318.169 317.049C317.735 325.647 317.808 334.09 316.386 342.627C315.691 346.785 314.308 350.941 313.613 355.1C312.922 359.952 312.228 360.643 317.078 362.028C333.358 366.878 343.059 338.126 335.784 326.695Z" fill="#FF659B"/>
<path d="M308.764 300.222C340.409 301.257 361.44 332.535 344.887 361.335C339.658 370.433 328.221 373.382 318.604 374.284C301.084 375.932 304.022 360.167 305.465 349.577C307.744 332.88 308.043 316.009 310.6 299.331C311.108 296.02 306.051 294.599 305.537 297.936C303.228 312.991 302.365 328.166 300.932 343.319C300.327 349.743 295.211 365.339 299.178 372.112C307.979 387.139 334.326 378.382 344.776 369.653C358.024 358.587 357.733 336.214 352.165 321.624C345.31 303.657 326.688 295.558 308.765 294.972C305.378 294.861 305.389 300.113 308.764 300.222Z" fill="black"/>
<path d="M338.053 325.371C333.139 318.693 326.608 314.496 318.168 314.424C316.689 314.41 315.607 315.629 315.543 317.049C315.174 325.369 315.061 333.672 313.854 341.93C313.002 347.731 309.895 353.92 310.643 359.864C311.413 365.981 321.651 365.618 325.809 364.235C339.603 359.638 344.463 336.925 338.053 325.371C336.408 322.41 331.873 325.058 333.518 328.021C338.905 337.73 334.024 355.97 322.924 359.666C318.994 360.975 315.526 359.857 316.143 355.797C316.784 351.598 318.077 347.488 318.916 343.324C320.643 334.75 320.406 325.748 320.793 317.049C319.916 317.922 319.045 318.799 318.168 319.674C324.662 319.731 329.721 322.857 333.518 328.021C335.5 330.715 340.058 328.101 338.053 325.371Z" fill="black"/>
<path d="M371.94 315.955C377.483 322.539 383.717 328.773 385.1 337.434C386.487 346.094 386.487 355.1 386.139 363.76C386.139 365.84 384.409 372.768 385.793 374.5C386.834 375.885 394.453 376.58 396.188 375.539C402.073 372.074 398.264 357.873 397.92 351.982C397.57 346.093 397.225 336.742 398.955 331.195C401.037 324.269 409.697 314.916 414.199 309.373C417.316 305.91 426.668 298.635 424.244 293.441C416.275 276.812 396.187 317.341 390.99 317.687C384.408 318.38 375.75 302.798 372.287 298.292C369.295 294.403 367.242 290.821 361.594 291.011C348.737 291.445 369.6 313.183 371.94 315.955Z" fill="#FF659B"/>
<path d="M370.082 317.812C380.961 330.519 383.756 341.982 383.674 358.527C383.656 362.269 380.496 372.912 383.938 376.355C391.344 383.759 400.854 376.837 401.946 368.814C402.856 362.148 400.684 354.765 400.352 348.091C399.555 331.948 406.176 323.116 416.059 311.228C421.122 305.134 434.422 293.91 421.895 287.369C414.389 283.449 405.61 296.182 402.141 300.592C398.684 304.988 395.578 309.662 391.871 313.862C387.516 318.796 374.732 296.548 372.008 293.632C368.82 290.228 355.684 284.021 354.951 293.239C354.218 302.439 364.549 311.507 370.082 317.812C372.32 320.359 376.021 316.632 373.797 314.099C371.777 311.798 369.742 309.517 367.772 307.173C366.19 305.284 364.713 303.321 363.336 301.28C360.762 297.614 358.279 284.217 370.022 299.616C375.422 306.696 379.352 315.124 387.407 319.618C396.47 324.677 409.778 299.009 414.528 294.593C420.313 289.624 421.098 292.427 416.874 303.001C414.647 305.427 412.306 307.564 410.194 310.105C406.563 314.474 403.051 318.8 399.835 323.484C393.753 332.345 394.505 344.38 395.564 354.543C395.857 356.732 396.156 358.922 396.455 361.111C396.557 362.297 396.662 363.484 396.768 364.67C398.182 372.356 395.401 373.057 388.424 366.77C389.289 360.563 388.983 354.19 388.795 347.946C388.363 333.54 382.949 324.79 373.799 314.1C371.592 311.523 367.894 315.255 370.082 317.812Z" fill="black"/>
</g>
</svg>
