<svg width="491" height="777" viewBox="0 0 491 777" fill="none" xmlns="http://www.w3.org/2000/svg">
<mask id="mask0_224_1286" style="mask-type:alpha" maskUnits="userSpaceOnUse" x="0" y="0" width="491" height="777">
<rect width="491" height="777" fill="#D9D9D9"/>
</mask>
<g mask="url(#mask0_224_1286)">
<path d="M38.023 794.378C9.89001 794.378 -13 771.487 -13 743.355V29.023C-13 0.890011 9.89101 -22 38.023 -22H454.716C482.851 -22 505.739 0.89101 505.739 29.023V743.355C505.739 771.488 482.85 794.378 454.716 794.378H38.023Z" fill="#FFDC5B"/>
<mask id="mask1_224_1286" style="mask-type:luminance" maskUnits="userSpaceOnUse" x="-13" y="-22" width="519" height="817">
<path d="M38.023 794.378C9.89001 794.378 -13 771.487 -13 743.355V29.023C-13 0.890011 9.89101 -22 38.023 -22H454.716C482.851 -22 505.739 0.89101 505.739 29.023V743.355C505.739 771.488 482.85 794.378 454.716 794.378H38.023Z" fill="white"/>
</mask>
<g mask="url(#mask1_224_1286)">
<path d="M28.5276 753.13C30.2986 756.9 31.9536 760.761 33.2286 764.835C37.0976 777.196 39.6606 789.407 40.1366 802.194C40.6366 815.612 45.4495 828.641 46.7405 842.11C48.1875 857.217 52.3306 872.333 57.3406 886.573C60.1926 894.68 65.2975 900.126 70.1645 906.917C74.5315 913.007 76.7425 921.261 82.5885 926.241C92.9145 935.036 110.644 931.483 123.218 933.663C140.654 936.684 154.482 944.476 172.777 939.452C183.107 936.62 192.029 932.417 202.912 931.638C215.012 930.775 227.221 932.398 239.342 932.04C265.893 931.257 290.096 928.136 315.863 922.671C331.349 920.194 347.447 919.036 362.279 913.585C375.209 908.831 379.849 900.503 389.431 891.599C403.331 878.677 418.005 879.517 435.482 882.775C458.095 886.992 475.521 886.539 497.48 879.004C526.814 868.94 557.115 861.871 586.566 852.125C608.961 844.715 642.22 832.973 658.423 814.998C638.618 805.328 613.681 805.394 592.437 800.533C568.931 795.156 549.408 789.133 528.587 776.47C508.751 764.406 494.087 752.15 478.601 734.833C450.099 702.966 429.71 658.069 433.615 613.86C435.24 595.483 442.689 581.714 449.447 565.104C452.357 557.956 453.342 550.432 457.787 543.999C463.353 535.936 468.568 528.384 476.392 522.651C481.638 518.809 491.462 513.389 491.294 505.77C491.048 494.688 478.177 497.971 470.798 498.895C456.312 500.713 446.068 497.491 431.957 494.961C416.244 492.147 400.724 487.443 384.7 486.738C375.196 486.322 365.825 488.679 356.329 488.58C346.532 488.478 341.327 484.767 333.118 480.748C321.323 474.967 308.093 478.033 295.528 478.404C284.01 478.748 272.848 475.994 261.969 472.707C239.836 466.016 217.465 476.242 195.008 479.189C171.512 482.271 146.305 490.068 129.463 508.214C116.936 521.708 100.508 540.181 95.4955 557.991C92.9445 567.048 98.3975 571.059 98.0505 580.575C97.3705 599.13 76.2365 600.348 62.9955 605.852C57.3335 608.204 54.7456 612.627 50.2256 616.395C31.9036 631.676 13.6315 644.735 12.4385 670.5C11.7005 686.42 16.2356 702.156 16.4916 717.797C16.7056 731.101 23.1566 741.707 28.5276 753.13Z" fill="#206AB4"/>
<path d="M25.319 755.005C33.18 772.355 34.376 789.626 36.932 808.198C39.309 825.462 42.469 842.942 45.828 860.05C49.016 876.288 54.064 891.589 64.027 904.847C71.929 915.359 74.98 927.665 87.697 933.388C99.648 938.765 114.726 935.734 127.359 938.277C143.656 941.556 156.988 946.601 173.761 943.035C183.743 940.914 192.624 936.621 202.909 935.351C211.421 934.304 220.399 935.343 228.932 935.679C247.305 936.404 266.1 934.609 284.272 931.988C302.143 929.412 319.827 925.867 337.692 923.24C350.799 921.312 366.356 918.654 376.647 909.513C391.077 896.704 400.422 883.835 421.764 884.593C440.688 885.261 457.42 890.456 476.67 887.98C493.584 885.804 509.916 878.687 526.193 873.853C546.646 867.781 567.252 862.3 587.548 855.707C613.396 847.311 641.724 837.594 661.044 817.625C662.567 816.051 662.544 812.797 660.294 811.791C643.456 804.275 625.575 802.205 607.497 799.543C585.595 796.316 563.722 790.031 543.716 780.547C505.548 762.457 473.884 729.953 454.294 692.887C443.81 673.045 437.974 650.969 436.901 628.606C435.717 603.924 446.505 584.19 454.583 561.77C458.794 550.082 463.632 541.028 471.95 531.571C477.016 525.805 484.102 522.169 489.774 517.03C496.585 510.86 496.59 501.091 489.379 495.653C486.061 493.147 480.025 494.022 476.328 494.401C466.279 495.436 457.664 495.878 447.611 494.219C426.578 490.742 406.021 484.53 384.695 483.028C372.562 482.173 360.902 486.387 348.763 483.817C340.478 482.065 333.413 476.29 325.019 474.311C317.087 472.446 308.257 473.844 300.261 474.45C285.423 475.569 272.005 471.35 257.839 467.876C240.48 463.612 221.202 470.189 204.374 473.821C185.347 477.93 167.292 480.04 149.53 488.665C133.827 496.29 122.397 509.833 111.516 523.05C102.1 534.493 90.176 550.113 91.383 565.763C92.295 577.574 97.998 586.515 84.737 594.22C77.895 598.197 69.358 599.462 62.005 602.275C54.857 605.009 49.901 611.865 44.167 616.617C35.386 623.89 26.825 631.105 19.757 640.107C7.86202 655.255 7.81201 673.349 10.023 691.63C11.289 702.11 11.359 713.31 13.265 723.657C15.352 734.972 20.36 744.716 25.319 755.005C27.399 759.318 33.803 755.548 31.735 751.255C26.479 740.359 21.112 730.105 20.208 717.8C19.427 707.232 18.091 696.89 16.821 686.364C13.7 660.544 23.731 643.76 42.665 627.483C49.708 621.426 58.048 611.708 66.731 608.385C72.665 606.114 78.876 604.682 84.797 602.332C94.916 598.312 100.535 591.289 101.766 580.576C102.805 571.502 97.297 564.4 100.43 554.861C104.104 543.672 112.535 533.451 119.866 524.547C134.833 506.359 150.958 494.008 173.774 487.213C192.469 481.647 212.989 479.033 232.176 475.455C256.711 470.879 280.106 483.396 305.043 481.514C317.664 480.563 327.234 481.92 338.731 487.748C344.387 490.617 350.057 491.83 356.329 492.293C367.518 493.119 378.704 490.029 390.024 490.826C403.799 491.799 417.442 495.955 430.969 498.543C447.805 501.764 462.274 503.273 479.336 501.518C489.078 500.516 484.344 512.288 479.795 515.75C477.836 517.242 475.68 518.471 473.766 520.025C465.967 526.357 460.27 533.935 454.577 542.123C450.067 548.609 448.501 556.805 445.868 564.117C442.399 573.738 437.763 582.888 434.362 592.555C427.969 610.713 428.678 630.401 431.614 649.131C437.552 687.047 459.434 721.022 485.876 747.942C506.204 768.639 531.427 784.643 558.517 794.815C590.163 806.69 625.876 804.51 656.548 818.204C656.298 816.261 656.046 814.315 655.798 812.37C634.732 834.145 602.63 843.249 574.497 852.085C557.849 857.312 540.974 861.812 524.222 866.69C505.132 872.253 486.716 880.018 466.728 881.581C442.279 883.491 412.185 867.724 390.617 885.78C377.096 897.1 369.221 908.116 351.236 913.063C334.215 917.747 315.861 919.108 298.486 922.28C280.812 925.509 262.931 927.239 244.998 928.122C229.178 928.901 212.211 925.352 196.631 928.71C177.887 932.747 163.568 939.515 143.914 934.87C129.478 931.462 116.873 929.423 102.06 928.718C82.376 927.784 77.749 910.822 67.578 897.284C55.295 880.936 52.303 856.77 49.822 837.077C47.888 821.737 44.588 806.802 42.951 791.358C41.482 777.516 37.463 763.899 31.736 751.254C29.76 746.898 23.36 750.675 25.319 755.005Z" fill="black"/>
<path d="M442.576 489.021C415.172 496.634 405.275 543.068 397.664 565.906C386.246 603.967 388.529 641.265 395.383 680.09C407.561 750.885 451.711 814.065 498.147 867.35C502.715 860.5 511.086 861.262 516.417 855.934C506.521 837.664 489.774 822.44 478.354 804.93C467.696 788.946 457.801 772.961 448.665 756.215C431.161 724.24 420.501 689.985 414.411 654.969C409.845 626.805 409.845 604.729 420.501 578.848C432.681 550.684 448.665 527.084 462.37 501.203C456.278 496.635 447.907 493.59 441.815 487.5" fill="#0A4B7F"/>
<path d="M441.59 485.441C417.274 493.636 407.91 521.267 400.729 543.486C388.377 581.715 383.62 617.894 388.313 658.054C397.928 740.343 442.344 808.617 495.522 869.976C496.799 871.449 499.489 871.402 500.772 869.976C505.645 864.566 512.668 863.462 518.292 859.14C519.903 857.902 520.731 855.98 519.626 854.058C512.89 842.374 504.423 832.136 495.827 821.796C484.669 808.366 475.309 793.812 466.145 778.983C447.944 749.52 433.825 718.713 424.766 685.249C416.286 653.911 411.086 621.022 420.575 589.38C429.78 558.681 450.532 531.093 465.579 503.077C466.583 501.202 465.966 499.161 464.245 497.995C457.636 493.516 450.499 490.175 444.44 484.872C440.854 481.733 435.579 486.966 439.19 490.126C445.723 495.841 453.346 499.565 460.495 504.407C460.052 502.714 459.606 501.02 459.161 499.327C443.567 528.368 424.225 556.061 413.411 587.405C403.425 616.35 408.552 647.796 415.05 676.86C422.696 711.051 436.372 742.762 453.886 772.973C462.282 787.453 471.083 802.237 481.333 815.493C492.159 829.495 504.333 842.401 513.208 857.807C513.653 856.112 514.099 854.418 514.542 852.725C508.302 857.524 500.919 858.725 495.522 864.721C497.27 864.721 499.024 864.721 500.772 864.721C454.178 810.955 412.002 750.387 398.961 679.1C391.734 639.588 390.879 600.077 402.981 561.454C410.28 538.155 417.192 501.493 443.563 492.602C448.079 491.082 446.141 483.906 441.59 485.441Z" fill="black"/>
<path d="M363.41 482.931C342.094 512.62 335.244 552.202 332.961 587.982C330.676 632.892 332.199 683.896 346.66 727.285C369.498 789.707 402.23 862.023 451.711 909.219C458.561 897.801 466.176 903.893 457.039 887.145C451.711 877.249 444.859 867.35 438.769 857.457C427.351 838.424 416.695 819.394 406.037 799.602C387.767 766.11 372.545 729.571 364.93 692.272C356.559 656.493 355.037 624.522 357.321 587.983C360.368 553.727 361.887 514.143 384.723 486.741C379.395 485.216 373.307 483.694 367.215 482.932" fill="#0A4B7F"/>
<path d="M360.203 481.056C339.449 511.257 332.473 547.359 329.572 583.294C326.22 624.839 328.183 667.855 337.476 708.53C346.025 745.971 363.933 783.089 381.371 817.124C399.129 851.776 421.096 884.618 449.086 911.845C450.906 913.616 453.545 913.052 454.918 911.093C459.578 904.443 466.352 902.718 464.232 893.786C460.656 878.706 446.968 863.944 439.136 850.823C416.73 813.272 395.073 774.71 380.273 733.454C365.515 692.317 359.285 648.559 360.25 604.981C361.094 566.749 362.785 520.645 387.348 489.366C389.012 487.245 388.649 483.964 385.711 483.157C379.906 481.565 374.152 480.264 368.203 479.348C363.519 478.627 361.506 485.784 366.228 486.51C372.179 487.428 377.933 488.729 383.736 490.319C383.191 488.251 382.644 486.182 382.097 484.112C361.671 510.124 357.579 542.352 354.769 574.342C351.05 616.717 353.597 657.041 362.488 698.58C371.039 738.539 388.761 775.644 408.164 811.31C418.559 830.421 429.219 849.458 440.914 867.81C446.666 876.831 452.935 885.841 457.07 895.759C458.209 898.493 450.152 904.988 448.504 907.341C450.449 907.091 452.395 906.841 454.336 906.591C403.117 856.767 367.336 784.575 347.238 716.534C335.972 678.399 334.945 637.513 336.234 598.055C337.517 558.739 343.914 517.84 366.617 484.803C369.335 480.847 362.898 477.136 360.203 481.056Z" fill="black"/>
<path d="M301.752 484.455C252.272 550.684 273.583 642.789 292.618 716.629C304.798 763.824 323.825 806.453 349.708 848.32C361.126 865.828 370.262 883.336 380.92 901.605C386.248 910.742 387.769 917.591 398.427 913.787C410.607 909.98 408.323 904.65 402.993 896.277C380.919 858.978 359.603 822.439 342.861 782.855C328.392 749.363 308.603 720.437 302.513 683.134C297.185 652.685 288.048 619.952 288.81 587.982C289.572 555.25 310.125 516.427 324.586 487.5C319.26 482.172 311.646 481.41 305.56 477.605" fill="#0A4B7F"/>
<path d="M298.542 482.58C254.224 543.978 266.169 622.934 282.591 691.902C292.165 732.101 304.657 770.785 322.904 807.933C332.533 827.537 344.154 845.863 355.412 864.535C365.307 880.949 372.947 900.293 385.051 915.176C389.994 921.254 403.168 918.406 407.656 913.248C415.701 904 405.394 893.045 400.463 884.687C377.094 845.08 357.764 804.388 337.764 763.085C328.701 744.374 318.969 726.136 312.147 706.433C304.602 684.646 301.741 660.57 297.471 637.96C292.951 614.011 290.28 589.884 295.674 565.896C300.735 543.398 311.408 522.238 321.606 501.72C323.655 497.597 325.731 493.49 327.795 489.374C328.479 488.007 328.565 485.935 327.213 484.872C321.033 480.005 314.408 478.024 307.436 474.397C303.19 472.19 299.434 478.6 303.686 480.811C309.838 484.01 321.44 485.514 317.305 493.747C312.885 502.55 308.561 511.393 304.432 520.339C297.26 535.882 291.213 551.913 287.452 568.632C278.952 606.429 292.227 647.081 298.932 684.12C305.502 720.425 324.955 751.429 339.653 784.729C357.007 824.042 377.936 861.194 399.788 898.151C403.237 901.924 402.454 905.942 397.44 910.204C389.903 913.1 386.522 904.015 384.127 899.729C378.641 889.909 372.998 880.165 367.428 870.389C356.561 851.323 344.487 833.057 334.168 813.66C314.772 777.199 301.869 738.566 291.885 698.629C274.543 629.264 260.03 548.572 304.959 486.328C307.764 482.437 301.319 478.736 298.542 482.58Z" fill="black"/>
<path d="M294.844 481.986C281.961 481.986 272.59 497.209 264.393 505.41C243.311 526.49 230.43 545.23 226.916 575.678C219.887 627.211 232.77 674.057 251.512 722.074C271.418 775.949 290.16 827.478 335.832 866.129C349.887 877.84 408.445 907.117 370.965 917.656C348.715 923.513 319.438 884.867 304.213 868.47C233.942 789.999 196.465 678.741 207.004 573.335C209.348 548.741 218.715 520.632 232.77 500.724C252.68 473.786 267.907 469.103 297.184 473.786" fill="#0A4B7F"/>
<path d="M294.844 478.273C280.916 479.88 273.047 490.144 264.264 500.134C252.711 513.277 241.114 524.749 233.043 540.521C216.254 573.326 219.531 616.199 225.969 651.181C233.561 692.435 250.5 732.927 266.655 771.488C280.811 805.283 299.262 836.681 325.841 862.195C333.189 869.25 388.237 902.691 377.04 911.138C352.54 929.617 313.962 874.22 300.544 858.62C245.374 794.493 213.915 710.44 209.38 626.347C207.489 591.32 210.071 555.747 224.245 523.308C230.946 507.976 241.048 493.245 254.632 483.273C266.751 474.377 282.142 475.302 296.198 477.369C300.884 478.058 302.899 470.902 298.173 470.207C267.439 465.686 248.357 474.195 229.564 498.85C206.468 529.153 201.966 570.276 201.541 607.028C200.635 685.305 225.828 763.442 268.674 828.557C286.824 856.137 309.377 883.03 333.776 905.338C345.991 916.508 373.6 932.893 385.94 912.143C394.663 897.473 362.319 879.69 353.774 874.02C323.364 853.834 301.811 826.129 285.102 793.844C273.038 770.537 264.172 745.656 255.092 721.086C244.01 691.094 233.951 661.27 230.08 629.365C226.697 601.496 227.609 570.113 239.457 544.269C244.549 533.164 252.465 523.583 260.635 514.63C269.432 504.997 281.127 487.284 294.846 485.698C299.544 485.158 299.596 477.722 294.844 478.273Z" fill="black"/>
<path d="M180.067 739.638C190.61 778.292 204.664 815.767 228.088 848.558C252.682 881.353 293.669 908.288 310.067 946.937C318.266 944.595 327.638 939.91 334.666 936.398C309.486 901.328 275.96 873.355 249.036 839.726C222.723 806.863 205.11 774.431 194.411 733.781C189.091 713.574 186.474 692.82 181.529 672.625C176.006 650.057 174.213 628.316 174.213 604.637C174.213 575.94 180.465 554.916 189.44 527.627C195.913 507.953 201.451 488.957 218.89 476.231C164.492 464.981 152.521 542.973 152.208 582.637C151.788 636.033 165.719 688.621 180.067 739.638Z" fill="#0A4B7F"/>
<path d="M176.489 740.626C187.446 780.167 201.829 822.253 228.059 854.558C253.875 886.347 289.659 910.619 306.86 948.812C307.512 950.261 309.604 950.984 311.055 950.517C319.91 947.66 328.215 943.747 336.539 939.605C338.219 938.769 339.012 936.082 337.871 934.523C314.174 902.199 284.32 875.355 258.242 845.07C229.988 812.257 209.367 774.586 197.992 732.793C192.062 711.002 189.017 688.438 183.898 666.441C178.435 642.976 177.21 618.224 178.21 594.207C179.077 573.422 185.05 553.328 191.366 533.66C197.96 513.137 203.97 492.758 221.512 478.857C223.631 477.179 222.479 473.107 219.873 472.648C174.916 464.746 157.572 510.324 151.525 546.707C140.708 611.785 159.032 678.416 176.489 740.626C177.78 745.231 184.946 743.272 183.649 738.651C167.69 681.764 151.852 622.856 156.897 563.231C159.77 529.264 172.434 471.815 217.903 479.811C217.356 477.741 216.809 475.672 216.264 473.604C202.813 484.26 195.715 498.26 190.014 514.139C182.508 535.055 175.758 556.575 172.354 578.569C165.329 623.967 177.321 668.376 185.856 712.559C194.153 755.498 211.038 794.407 236.727 829.772C265.049 868.756 302.981 899.422 331.457 938.272C331.902 936.577 332.348 934.883 332.789 933.19C325.578 936.778 314.291 946.68 309.543 937.225C305.461 929.1 299.945 921.768 294.369 914.629C281.42 898.051 265.496 883.883 250.81 868.902C215.525 832.904 196.921 786.541 183.648 738.65C182.372 734.043 175.204 736.001 176.489 740.626Z" fill="black"/>
<path d="M74.6641 622.525C75.8361 636.578 92.2321 661.173 96.9141 677.57C106.285 711.533 109.799 745.496 117.996 779.461C123.851 807.57 134.394 836.85 147.275 862.613C163.67 891.894 189.437 910.633 215.203 931.711C226.916 941.082 238.625 952.793 250.34 960.992C255.024 956.304 259.707 952.793 264.393 949.281C166.014 879.01 137.907 773.605 113.313 661.174C108.629 643.606 100.43 617.84 105.114 600.274C99.2591 602.616 93.4051 603.788 87.5481 606.129" fill="#0A4B7F"/>
<path d="M71.0829 623.511C72.8129 635.386 78.9849 646.382 84.1919 657.031C92.0829 673.179 96.3399 689.306 100.014 706.859C107.774 743.968 112.741 781.468 124.594 817.621C134.739 848.555 148.449 876.383 171.621 899.537C183.111 911.019 196.107 920.992 208.715 931.191C222.11 942.027 234.545 954.019 248.465 964.199C249.824 965.191 251.842 964.678 252.965 963.617C257.233 959.594 261.569 956.035 266.268 952.486C268.598 950.726 268.672 947.82 266.268 946.074C212.039 906.709 175.811 852.097 152.364 789.931C141.37 760.777 133.307 730.566 126.016 700.308C122.491 685.689 119.77 670.812 115.844 656.302C111.051 638.597 104.836 619.704 108.696 601.259C109.231 598.708 106.977 595.669 104.128 596.691C98.3099 598.775 92.3799 600.462 86.5619 602.546C82.0869 604.151 84.0169 611.329 88.5369 609.71C94.3549 607.624 100.285 605.937 106.103 603.853C104.58 602.33 103.056 600.808 101.537 599.285C98.5919 613.348 100.955 627.121 104.117 640.949C108.125 658.48 112.705 675.9 116.763 693.435C124.806 728.164 134.154 762.609 146.743 795.99C170.327 858.525 208.153 913.023 262.518 952.486C262.518 950.349 262.518 948.211 262.518 946.074C258.672 948.978 254.903 951.929 251.227 955.053C248.231 957.598 231.793 941 229.541 939.02C217.072 928.053 203.863 917.971 191.176 907.26C161.168 881.92 144.498 852.531 131.758 815.647C119.385 779.829 114.563 741.899 107.174 704.887C104.174 689.85 100.707 675.178 94.3869 661.186C88.5629 648.29 80.3149 635.748 78.2419 621.538C77.5549 616.812 70.4009 618.828 71.0829 623.511Z" fill="black"/>
<path d="M32.502 634.236C45.383 651.802 44.2109 681.084 48.8979 700.994C54.7529 731.443 55.9249 763.066 62.9529 792.346C78.1759 859.1 110.969 911.805 157.816 959.821C171.871 972.706 175.382 977.387 192.949 966.848C177.726 939.91 148.447 920 132.051 894.235C117.996 871.983 103.942 847.389 93.403 822.794C75.837 778.294 71.151 722.075 62.954 674.058C59.438 654.148 57.0989 633.068 57.0989 613.158C52.4129 614.33 45.3839 614.33 40.7009 615.498" fill="#0A4B7F"/>
<path d="M29.2938 636.111C39.6178 651.789 40.6098 670.843 43.0358 688.945C45.5198 707.47 49.1568 725.804 51.4378 744.394C55.8678 780.513 62.9928 815.908 77.5398 849.457C91.4348 881.498 110.151 910.574 132.442 937.396C142.27 949.222 152.934 962.669 165.587 971.595C175.888 978.861 184.401 975.898 194.825 970.052C196.577 969.07 197.18 966.685 196.157 964.972C181.997 941.288 160.333 923.87 142.835 902.851C120.95 876.566 102.897 840.361 92.0828 808.124C82.3248 779.03 77.9068 748.206 73.4068 717.96C68.2308 683.157 61.1798 648.44 60.8128 613.155C60.7818 610.577 58.4728 609.149 56.1098 609.573C50.6608 610.55 45.1588 610.94 39.7118 611.913C35.0008 612.757 37.0048 619.915 41.6888 619.077C47.1378 618.1 52.6378 617.712 58.0848 616.737C56.5168 615.542 54.9498 614.348 53.3838 613.155C53.7258 645.78 60.0168 677.573 64.7428 709.741C69.7158 743.536 74.6338 777.429 84.9208 810.098C94.5558 840.703 111.903 869.088 128.843 896.108C145.763 923.088 173.337 941.28 189.743 968.721C190.188 967.026 190.634 965.332 191.075 963.639C182.11 968.666 175.788 970.51 167.212 963.366C161.116 958.288 155.773 952.378 150.388 946.575C138.745 934.03 128.029 920.667 118.091 906.745C99.1178 880.171 84.5868 850.753 74.3368 819.79C63.1848 786.11 60.1608 751.126 55.2018 716.218C53.0198 700.872 50.3058 685.595 48.0278 670.259C46.0238 656.784 43.2858 643.87 35.7118 632.361C33.0878 628.378 26.6528 632.097 29.2938 636.111Z" fill="black"/>
<path d="M-2.71024 669.687C-6.61424 657.195 6.66077 648.605 7.43777 636.111C8.22077 626.742 5.0978 618.156 13.6838 611.129C22.2778 604.881 30.0818 609.565 37.8928 607.223C44.1388 605.66 44.9218 602.539 49.6058 600.196C52.7268 598.633 57.4108 598.633 60.5358 597.073C64.4378 595.512 67.5628 590.827 70.6878 589.264C78.4928 586.141 90.9888 590.045 90.2058 579.114C89.4228 568.18 77.7138 572.866 84.7388 558.032C88.6468 550.225 94.8908 548.661 95.6728 538.512C96.4518 531.483 90.9888 525.239 93.3328 517.43C96.4518 508.84 105.821 510.403 110.509 505.717C112.072 503.375 110.509 497.908 112.849 495.567C115.193 490.881 118.318 490.881 121.439 487.756C127.689 480.733 129.248 478.389 137.837 476.043C147.989 473.703 150.329 473.703 158.919 468.238C169.849 461.211 180.782 459.648 194.056 458.867C209.673 448.717 227.63 444.812 245.587 447.156C253.4 448.717 261.206 448.717 269.796 449.498C272.138 449.498 277.603 451.842 279.946 451.842C285.411 451.059 288.534 447.156 294.001 447.156C304.929 447.156 308.052 457.304 317.421 459.648C323.009 461.044 328.542 458.794 334.12 458.58C340.802 458.322 348.206 460.717 355.036 459.184C363.581 457.26 361.489 455.733 370.073 459.52C381.645 464.627 395.831 457.233 406.055 464.665C409.248 466.987 408.157 468.683 411.957 470.159C415.59 471.567 417.855 469.552 421.262 469.382C427.598 469.071 433.879 471.591 439.532 473.782C446.684 476.552 447.786 480.985 456.298 481.411C462.903 481.739 468.216 476.204 473.771 476.768C480.312 477.436 481.826 485.288 485.994 488.067C492.746 492.577 495.705 488.59 497.404 498.919C498.638 506.401 502.166 513.554 502.22 521.255C502.275 528.286 502.275 536.103 500.15 542.855C498.9 546.818 498.306 551.009 497.119 554.953C495.881 559.084 493.519 564.029 489.055 564.088C484.145 564.158 483.885 563.305 482.135 559.258C480.653 555.832 476.422 551.281 472.072 552.569C467.92 553.798 466.279 560.081 461.656 562.077C459.763 562.893 456.244 564.007 454.775 562.405C454.384 561.981 454.209 558.551 453.884 557.753C453.15 555.983 451.099 554.692 450.489 553.179C449.655 551.089 450.723 549.671 451.344 547.511C453.428 540.275 450.215 533.523 441.602 535.044C436.108 536.015 431.666 542.017 426.723 541.503C423.123 541.13 420.041 538.495 418.246 543.124C417.016 546.29 418.246 545.038 415.482 546.827C414.191 547.663 413.058 548.798 411.767 549.788C408.499 552.282 405.496 551.874 401.677 550.218C396.491 547.966 395.206 546.347 393.241 541.429C390.907 535.593 386.065 535.197 380.378 534.993C378.398 534.921 375.394 535.6 373.587 534.745C372.087 534.04 371.878 532.261 370.226 531.934C368.523 531.596 365.83 533.612 364.13 533.979C362.771 534.268 361.089 534.557 359.653 534.333C355.516 533.679 355.018 530.87 354.991 527.55C354.93 519.519 353.384 510.655 348.589 504.015C345.929 500.327 343.116 499.124 339.286 497.22C338.243 496.699 326.067 488.4 326.009 488.542C318.984 506.501 299.464 480.735 286.972 490.103C283.847 491.666 286.972 495.57 281.503 497.912C279.163 498.691 273.696 494.789 270.573 495.57C262.764 497.912 264.323 508.064 251.835 508.064C251.835 497.912 242.464 486.98 232.312 487.759C233.093 502.595 219.041 494.788 212.794 500.253C201.86 508.843 218.257 511.966 209.671 520.554C198.741 531.486 190.151 517.433 183.122 515.091C178.436 513.528 172.972 517.433 169.069 515.87C164.383 514.309 164.383 507.28 159.698 506.501C146.425 503.378 149.546 518.993 147.204 522.897C142.518 531.485 136.272 529.924 128.466 534.608C124.562 538.514 122.999 541.635 120.659 545.542C120.659 545.542 121.436 548.663 120.659 550.228C119.093 552.57 114.409 552.57 112.846 555.693C111.285 561.16 115.19 562.72 114.409 567.406C113.63 573.652 112.846 572.09 110.507 577.554C109.726 581.458 105.819 582.24 105.042 586.923C116.753 586.144 118.315 587.706 122.999 597.855C122.999 597.076 127.687 607.226 126.905 606.445C128.466 611.912 132.37 613.472 126.905 618.937C122.219 624.404 119.876 618.937 115.19 621.281C110.506 622.842 107.383 625.183 102.696 628.308C89.4208 636.898 90.9867 628.308 78.4907 629.087C68.3387 629.868 64.4358 643.144 54.2858 643.925C43.3578 643.925 41.7938 637.677 30.0808 643.925C28.5218 645.486 20.7118 650.952 19.9328 652.511C16.8098 656.417 17.5888 661.101 16.0268 663.445C14.4658 666.568 8.99979 668.908 7.43679 671.254C6.65979 672.817 3.53475 683.748 3.53475 683.748C3.53475 684.527 3.53475 685.307 3.53475 686.088C-7.39925 687.652 -1.93022 672.817 -3.49222 666.568" fill="white"/>
<path d="M0.871659 668.701C-1.02334 658.656 6.42263 652.793 9.28963 644.189C11.4806 637.613 11.2276 631.425 11.2346 624.558C11.2556 608.956 33.7326 612.732 42.6856 609.376C44.2816 608.776 45.6566 607.706 46.9606 606.628C52.4176 602.108 57.0236 603.476 62.4096 600.276C69.3936 596.13 73.7496 592.024 82.2946 591.057C86.1206 590.623 88.7396 589.479 91.5816 587.067C98.1366 581.51 91.7456 571.421 87.1696 567.407C82.5896 563.393 95.8766 549.78 98.0676 544.811C100.277 539.803 99.3277 534.379 98.0907 529.315C94.9557 516.487 104.902 514.45 112.382 508.922C113.175 508.334 113.841 507.707 114.087 506.701C115.632 500.469 118.025 495.013 123.312 490.961C130.646 485.338 133.435 480.836 143.314 478.611C149.839 477.142 155.074 474.886 160.793 471.441C171.289 465.117 182.008 463.416 194.055 462.58C196.354 462.42 198.489 460.521 200.244 459.459C207.019 455.355 214.648 453.133 222.305 451.412C241.846 447.021 260.782 455.553 279.946 455.553C281.864 455.553 283.837 454.805 285.555 453.985C292.446 450.694 300.381 452.307 306.147 457.292C310.93 461.421 315.372 463.14 321.602 463.813C323.895 464.061 333.118 462.401 334.12 462.292C339.126 461.749 344.813 463.093 349.825 463.413C353.149 463.624 356.868 462.538 360.044 461.696C364.87 460.415 368.632 462.952 373.032 464.376C379.712 466.538 387.903 464.841 394.753 464.874C403.524 464.919 406.774 474.333 415.228 474.333C426.486 474.333 434.445 474.132 444.197 480.745C449.334 484.227 453.992 485.37 460.119 484.712C468.256 483.839 474.371 482.37 481.471 488.937C487.532 494.546 492.682 494.652 494.791 504.361C497.326 516.011 499.344 525.683 497.607 537.701C497.093 541.236 489.88 567.324 485.341 557.381C480.816 547.469 471.025 546.531 464.415 554.406C453.204 567.765 456.862 545.633 455.239 539.734C453.591 533.732 446.93 529.291 440.614 531.461C436.887 532.74 433.987 534.391 430.637 536.522C426.68 539.042 422.233 535.208 418.567 537.354C416.087 538.807 415.717 542.29 413.608 543.618C397.192 553.952 400.227 540.934 394.18 535.909C391.68 533.831 390.707 533.263 387.68 532.083C384.012 530.653 377.36 533.208 374.59 530.571C373.152 529.196 371.324 527.833 369.24 528.35C367.859 528.526 366.547 528.905 365.302 529.485C356.888 533.036 358.48 522.897 358.083 519.352C356.079 501.348 342.233 493.52 327.884 485.332C326.214 484.379 323.714 484.84 322.8 486.664C316.282 499.707 294.687 476.053 284.347 487.473C282.568 489.436 282.105 490.125 281.536 492.723C281.218 494.174 272.225 491.942 270.573 491.852C263.003 491.44 259.807 503.584 251.835 504.348C253.073 505.586 254.312 506.823 255.55 508.061C254.103 495 245.89 484.883 232.312 484.043C230.232 483.914 228.673 485.832 228.597 487.756C228.327 494.672 212.812 495.072 207.656 500.047C201.551 505.938 210.949 512.891 207.047 517.926C200.947 525.791 190.106 514.356 184.998 511.881C181.82 510.34 178.072 511.274 174.814 511.897C165.921 513.598 169.025 506.897 163.898 504.415C160.144 502.601 157.125 502.259 152.968 502.89C147.462 503.724 145.517 511.025 144.929 515.454C143.824 523.796 137.337 525.997 130.365 529.503C124.023 532.694 121.025 537.646 117.451 543.665C115.441 547.052 118.32 547.897 113.347 550.2C111.357 551.118 109.331 553.438 109.132 555.69C108.628 561.456 111.921 567.378 108.788 572.665C106.202 577.024 103.222 581.188 101.464 585.935C100.636 588.162 102.767 590.736 105.042 590.634C112.581 590.31 122.815 597.538 123.19 606.443C123.272 608.339 130.194 619.461 119.325 617.113C117.389 616.693 115.081 617.324 113.315 618.074C107.629 620.494 97.4747 629.443 91.2877 628.043C88.2937 627.367 85.7957 625.543 82.5747 625.469C73.6857 625.26 68.7326 628.934 62.5886 635.045C54.3546 643.238 43.5656 636.219 33.5496 638.375C28.5106 639.461 19.0377 646.076 16.7257 650.635C14.8427 654.346 14.1556 659.885 11.6206 663.026C9.56962 665.565 5.94863 666.444 4.22963 669.378C1.58663 673.894 -0.180343 680.827 -0.180343 686.087C1.05966 684.851 2.29662 683.612 3.53462 682.374C-1.83638 682.378 0.632634 669.659 0.221634 666.567C-0.403366 661.891 -7.83736 661.829 -7.20836 666.567C-5.94636 676.018 -10.3784 689.811 3.53365 689.799C5.55865 689.799 7.24867 688.111 7.24867 686.086C7.24867 676.34 13.2836 672.723 18.6507 666.07C22.0826 661.82 21.4827 655.72 26.0177 651.888C33.0387 645.956 40.4336 645.197 49.1306 647.177C56.7906 648.919 62.4706 645.292 67.8416 640.298C74.5056 634.095 80.3236 631.614 89.3126 635.206C92.7126 636.565 96.1096 635.505 99.3436 634.354C104.123 632.657 108.448 628.891 112.785 626.305C116.219 624.262 122.646 626.703 125.629 624.485C128.418 622.409 132.01 620.075 133.012 616.434C134.448 611.207 130.815 611.098 130.6 606.022C130.387 600.948 125.463 594.161 123.069 589.879C119.256 583.051 111.971 582.906 105.042 583.207C106.235 584.773 107.431 586.34 108.624 587.908C111.147 581.094 118.476 575.426 118.124 567.402C117.851 561.256 116.436 557.961 122.534 553.431C124.675 551.839 124.95 548.824 124.53 546.308C123.37 539.337 147.522 532.245 150.784 523.88C151.983 520.812 152.05 517.374 152.643 514.155C154.153 505.983 165.655 518.78 168.081 519.448C173.194 520.854 178.763 517.089 183.649 519.458C187.856 521.497 190.838 525.675 195.426 527.124C202.412 529.327 212.498 527.315 215.131 519.114C216.08 516.153 216.072 514.075 214.912 511.18C211.646 503.039 219.027 502.086 225.01 501.231C232.996 500.09 235.721 495.504 236.026 487.754C234.788 488.992 233.549 490.231 232.311 491.467C241.885 492.821 247.155 498.35 248.12 508.059C248.325 509.913 249.661 511.981 251.835 511.772C260.782 510.917 263.642 507.235 269.126 500.711C273.542 495.459 283.733 507.002 287.806 496.904C293.839 481.959 319.378 510.088 329.218 490.412C327.521 490.855 325.827 491.299 324.134 491.744C328.722 494.361 332.9 497.676 337.411 500.42C353.042 509.934 346.341 522.131 353.405 534.893C355.542 538.752 362.718 538.569 366.005 537.182C369.984 535.502 370.644 538.086 373.587 538.455C381.663 539.467 387.427 537.529 391.452 546.428C396.847 558.348 414.413 556.811 420.802 546.963C421.956 545.186 434.273 543.006 437.288 541.086C450.972 532.377 446.64 549.922 446.772 553.174C446.92 556.619 450.415 559.778 451.19 563.389C451.448 564.59 452.592 565.713 453.784 565.983C459.054 567.174 462.063 566.333 466.522 563.124C469.293 561.132 473.325 551.696 478.924 561.13C479.916 562.798 480.373 564.433 481.779 565.839C487.822 571.884 497.275 565.304 499.541 559.099C504.229 546.269 508.338 529.41 505.393 515.703C503.288 505.89 503.043 490.344 491.897 486.803C479.924 482.996 481.504 469.192 466.131 474.672C448.475 480.965 435.424 462.938 417.154 466.389C411.42 467.473 408.447 460.547 403.494 459.118C396.414 457.075 389.588 457.495 382.269 457.759C374.701 458.032 368.736 453.056 361.544 453.667C357.614 454.001 353.841 455.587 349.821 455.985C343.239 456.639 336.647 454.59 329.938 455.321C318.786 456.534 314.321 452.628 305.614 447.286C301.913 445.013 297.536 442.823 293.009 443.575C284.837 444.938 279.325 447.565 270.779 445.917C261.097 444.052 250.539 443.935 240.689 442.96C232.271 442.128 223.773 443.48 215.591 445.317C206.778 447.297 197.968 454.883 189.179 455.493C170.804 456.768 158.45 467.444 141.337 471.452C129.911 474.126 119.392 480.768 112.212 490.28C108.028 495.827 108.345 503.68 101.771 506.009C96.3016 507.945 92.9036 510.437 90.1206 515.556C87.6226 520.158 89.6576 526.736 90.9276 531.29C94.8026 545.208 85.1636 547.116 81.1566 557.044C79.6936 560.661 77.7366 565.028 79.4636 568.937C81.7606 574.134 91.9436 582.541 79.3876 583.962C67.4556 585.312 59.9227 592.903 48.6167 596.616C41.6437 598.905 38.4607 604.18 30.0537 604.175C22.7977 604.169 18.2506 604.431 11.8076 607.923C1.03063 613.767 4.78063 629.325 3.27663 638.763C1.31963 651.07 -8.83635 657.179 -6.28935 670.677C-5.40635 675.378 1.75266 673.38 0.871659 668.701Z" fill="black"/>
<path d="M89.7384 589.347C94.8514 587.033 101.136 587.451 106.601 586.73C111.281 586.117 111.339 578.679 106.601 579.304C99.6834 580.214 92.4604 580.003 85.9884 582.933C81.6324 584.906 85.4124 591.308 89.7384 589.347Z" fill="black"/>
<path d="M89.4212 599.224C101.245 600.158 104.339 610.124 104.448 620.495C104.501 625.282 111.928 625.286 111.878 620.495C111.72 605.665 105.511 593.065 89.4212 591.798C84.6442 591.421 84.6792 598.851 89.4212 599.224Z" fill="black"/>
<path d="M54.0081 617.656C60.3871 622.931 58.758 633.314 66.465 637.756C70.623 640.152 74.363 633.733 70.215 631.344C67.289 629.656 66.4811 625.539 65.4321 622.578C64.0861 618.789 62.4261 615.023 59.2581 612.404C55.6001 609.376 50.3151 614.601 54.0081 617.656Z" fill="black"/>
<path d="M194.833 478.976C201.61 479.183 202.694 484.222 203.903 489.912C204.958 494.887 206.333 499.855 210.921 502.676C215.013 505.192 218.743 498.766 214.671 496.262C210.603 493.762 210.839 485.559 209.349 481.449C206.972 474.892 201.652 471.758 194.833 471.551C190.04 471.404 190.055 478.832 194.833 478.976Z" fill="black"/>
<path d="M252.615 468.826C257.865 469.252 258.222 475.93 258.719 479.974C259.063 482.781 259.367 485.538 259.903 488.314C260.489 491.375 262.508 493.421 261.755 496.785C260.702 501.451 267.864 503.433 268.915 498.76C269.819 494.746 269.138 491.973 267.63 488.19C265.841 483.696 266.105 478.368 265.208 473.618C263.901 466.686 259.755 461.977 252.616 461.399C247.835 461.011 247.875 468.441 252.615 468.826Z" fill="black"/>
<path d="M143.875 498.367C146.48 498.953 147.969 500.847 149.092 503.58C149.86 505.449 151.53 506.76 153.66 506.174C155.433 505.686 157.023 503.481 156.252 501.606C154.281 496.801 151.219 492.413 145.848 491.206C143.875 490.763 141.836 491.78 141.282 493.8C140.761 495.679 141.898 497.923 143.875 498.367Z" fill="black"/>
<path d="M161.938 488.455C166.061 489.758 170.563 491.393 172.963 495.262C174.442 497.653 174.926 500.813 175.902 503.434C177.781 508.497 181.207 511.844 186.777 511.934C189.425 511.977 190.687 509.547 190.355 507.233C189.636 502.188 190.484 497.266 190.763 492.229C191.066 486.772 189.355 481.715 186.941 476.909C184.789 472.628 178.382 476.389 180.523 480.659C185.175 489.915 181.787 499.38 183.195 509.208C184.388 507.642 185.584 506.073 186.777 504.509C182.091 504.431 181.101 494.982 179.375 491.513C176.549 485.833 169.547 483.075 163.914 481.294C159.335 479.843 157.389 487.015 161.938 488.455Z" fill="black"/>
<path d="M217.735 469.3C224.122 469.913 225.243 476.859 227.725 481.671C228.991 484.122 232.858 484.06 234.141 481.671C238.284 473.948 242.071 465.698 238.575 456.987C236.813 452.598 229.626 454.512 231.415 458.96C234.169 465.823 230.977 471.862 227.726 477.921C229.865 477.921 232.003 477.921 234.142 477.921C232.273 474.298 231.113 470.212 228.517 467.007C225.734 463.569 222.031 462.284 217.736 461.874C212.965 461.418 213.008 468.849 217.735 469.3Z" fill="black"/>
<path d="M360.751 485.253C360.286 490.163 363.394 493.198 367.075 495.905C369.452 497.651 371.985 498.712 373.114 501.655C374.548 505.397 373.454 510.151 372.051 513.7C371.344 515.479 372.805 517.917 374.643 518.268C382.618 519.793 386.819 513.534 388.868 506.653C389.931 503.081 389.866 499.512 389.802 495.844C389.714 490.885 394.49 486.119 394.911 480.854C395.292 476.077 387.86 476.112 387.481 480.854C386.995 486.963 382.293 491.245 382.407 497.772C382.466 500.928 381.768 512.092 376.618 511.106C377.481 512.629 378.347 514.151 379.212 515.674C381.31 510.377 382.411 502.414 379.306 497.238C377.029 493.443 367.786 489.408 368.181 485.252C368.631 480.484 361.202 480.529 360.751 485.253Z" fill="black"/>
<path d="M426.968 486.865C432.767 491.41 432.937 499.109 429.097 505.035C427.117 508.094 430.367 510.896 433.292 510.49C436.194 510.086 439.241 509.476 441.497 507.449C443.694 505.476 444.954 502.693 446.77 500.398C449.711 496.685 444.491 491.392 441.52 495.146C440.073 496.974 438.772 498.863 437.5 500.812C436.141 502.892 433.584 503.011 431.314 503.328C432.712 505.146 434.111 506.965 435.509 508.785C440.982 500.34 440.497 488.101 432.216 481.613C428.496 478.695 423.199 483.912 426.968 486.865Z" fill="black"/>
<path d="M454.46 537.357C454.446 535.433 455.292 534.191 456.171 532.556C457.214 530.607 457.425 528.531 457.603 526.365C457.966 521.902 456.171 517.246 455.001 513.025C453.728 508.414 446.562 510.375 447.841 515C448.935 518.949 451.542 524.748 449.755 528.807C448.435 531.813 447.007 533.936 447.03 537.358C447.065 542.146 454.493 542.148 454.46 537.357Z" fill="black"/>
<path d="M469.096 503.783C472.201 507.262 473.535 509.738 473.584 514.533C473.631 519.131 473.102 523.324 474.23 527.855C475.062 531.201 479.267 531.23 481.019 528.742C484.816 523.34 491.492 519.724 492.351 512.658C492.925 507.91 485.492 507.967 484.921 512.658C484.646 514.939 481.144 517.635 479.651 519.181C477.854 521.036 476.09 522.874 474.602 524.992C476.866 525.289 479.127 525.584 481.389 525.881C480.084 520.639 481.452 515.293 480.709 509.981C480.053 505.262 477.432 501.989 474.344 498.532C471.149 494.949 465.915 500.222 469.096 503.783Z" fill="black"/>
<path d="M391.278 527.466C394.942 530.493 392.383 536.15 391.676 540.091C390.832 544.775 397.992 546.777 398.836 542.066C400.055 535.295 402.789 527.382 396.527 522.214C392.866 519.189 387.581 524.412 391.278 527.466Z" fill="black"/>
<path d="M281.942 465.054C285.217 466.685 286.09 471.316 287.911 474.279C288.946 475.968 290.374 477.461 291.579 479.023C293.102 480.994 293.145 482.955 293.548 485.31C294.388 490.259 298.282 493.46 303.181 491.3C307.333 489.464 309.242 482.876 310.449 479.011C311.908 474.325 313.314 468.452 312.095 463.566C310.939 458.921 303.775 460.892 304.935 465.543C305.669 468.494 304.548 472.176 303.841 475.029C303.153 477.824 302.06 483.175 299.431 484.886C301.189 483.743 301.06 486.017 300.685 483.079C300.533 481.901 300.359 480.741 300.134 479.575C299.575 476.727 297.345 474.378 295.577 472.206C291.934 467.729 291.243 461.405 285.692 458.64C281.419 456.511 277.657 462.918 281.942 465.054Z" fill="black"/>
<path d="M404.195 514.378C403.312 518.675 405.539 520.81 407.949 524.007C410.851 527.849 410.84 531.741 410.824 536.343C410.818 538.993 413.187 540.253 415.527 539.925C422.724 538.913 426.261 531.146 428.609 525.148C430.363 520.683 423.175 518.769 421.449 523.175C420.004 526.859 417.967 532.142 413.551 532.761C415.119 533.956 416.688 535.15 418.254 536.343C418.266 532.654 418.309 529.011 417.149 525.468C416.532 523.583 415.483 521.878 414.368 520.257C413.88 519.556 411.194 517.146 411.356 516.355C412.316 511.679 405.156 509.689 404.195 514.378Z" fill="black"/>
<path d="M470.713 538.375C470.899 544.105 473.934 549.014 474.434 554.613C474.86 559.343 482.291 559.386 481.864 554.613C481.36 549.009 478.321 543.972 478.143 538.375C477.991 533.595 470.561 533.582 470.713 538.375Z" fill="black"/>
</g>
<path d="M100.101 150.578C99.615 143.549 99.146 136.515 98.876 129.474C98.745 125.976 98.659 122.478 98.647 118.978C98.639 116.417 97.879 112.146 98.889 109.767C100.237 106.585 105.983 106.747 108.789 106.648C112.268 106.531 115.775 106.648 119.242 106.959C125.748 107.541 133.228 108.977 138.287 113.439C153.877 126.949 142.963 148.253 127.375 155.007C140.365 154.489 149.721 167.997 144.004 180.989C138.287 194.499 114.385 193.46 102.436 193.46H101.916C102.742 193.46 100.351 154.136 100.101 150.578ZM128.044 140.113C131.511 136.824 133.069 130.933 131.511 126.431C130.839 124.495 129.409 122.265 127.74 121.027C125.726 119.543 122.924 119.871 120.625 119.158C118.805 118.592 113.279 116.98 111.648 118.508C110.617 119.473 110.835 123.321 110.816 124.742C110.781 127.012 110.748 129.285 110.734 131.558C110.703 136.138 110.351 141.038 110.994 145.568C117.05 146.878 123.691 144.47 128.044 140.113ZM123.568 163.554C122.859 163.331 122.152 163.175 121.47 163.099C119.208 162.839 116.843 163.413 114.652 163.714C112.707 163.98 112.355 163.831 111.75 165.316C110.445 168.492 111.426 172.531 111.543 175.853C111.65 178.964 111.826 182.146 111.99 185.292C111.988 185.233 115.23 185.274 115.482 185.249C119.175 184.897 123.722 184.497 126.812 182.128C131.324 178.663 133.097 173.874 130.312 168.685C129.011 166.265 126.285 164.406 123.568 163.554Z" fill="#0079EA"/>
<path d="M102.725 150.578C102.127 141.797 101.608 133.023 101.342 124.226C101.029 113.956 103.287 109.281 114.022 109.269C127.504 109.249 142.417 113.945 143.219 129.878C143.737 140.163 134.127 148.624 126.051 152.741C123.561 154.009 124.949 157.471 127.375 157.632C141.229 158.552 148.07 173.335 138.672 184.077C135.473 187.733 129.397 188.809 124.858 189.759C117.424 191.316 109.469 190.835 101.917 190.835C102.761 191.942 103.605 193.05 104.448 194.157C106.186 189.198 104.43 181.505 104.19 176.413C103.78 167.796 103.295 159.183 102.725 150.578C102.502 147.217 97.2483 147.195 97.4753 150.578C97.9133 157.137 98.2683 163.703 98.6233 170.267C98.9573 176.412 101.459 186.841 99.3853 192.763C98.8153 194.394 100.299 196.085 101.916 196.085C114.119 196.085 137.502 198.046 144.777 184.991C153.177 169.917 144.519 153.52 127.375 152.382C127.818 154.013 128.26 155.644 128.699 157.273C147.484 147.701 159.377 115.085 131.969 106.867C124.574 104.646 104.971 99.535 98.7563 106.096C95.8053 109.207 95.7213 111.696 95.8583 115.983C96.2213 127.53 96.6903 139.047 97.4753 150.579C97.7043 153.935 102.954 153.957 102.725 150.578Z" fill="black"/>
<path d="M129.901 141.968C134.046 137.488 135.643 131.659 134.042 125.734C131.999 118.179 125.671 117.8 119.382 116.07C114.98 114.863 108.956 114.371 108.351 120.238C107.513 128.383 107.466 137.457 108.369 145.568C108.488 146.648 109.072 147.898 110.297 148.099C117.708 149.322 124.411 147.039 129.901 141.968C132.391 139.667 128.671 135.964 126.186 138.257C122.19 141.948 117.157 143.937 111.69 143.036C112.331 143.88 112.975 144.724 113.618 145.567C113.348 143.141 112.073 120.499 114.725 120.518C117.813 120.536 121.264 121.975 124.329 122.463C131.929 123.676 129.69 134.468 126.186 138.257C123.893 140.739 127.596 144.46 129.901 141.968Z" fill="black"/>
<path d="M124.265 161.023C121.218 160.212 118.37 160.488 115.288 160.978C113.421 161.275 110.817 161.265 109.831 163.281C108.472 166.058 108.366 168.857 108.589 171.896C108.909 176.359 109.13 180.824 109.364 185.292C109.434 186.616 110.51 188.056 111.989 187.917C119.278 187.237 127.319 187.554 131.921 180.62C137.175 172.697 132.55 164.062 124.265 161.023C121.081 159.853 119.718 164.929 122.87 166.086C130.108 168.742 130.669 176.412 124.405 180.582C120.801 182.982 116.05 182.291 111.989 182.668C112.866 183.543 113.737 184.42 114.614 185.293C114.38 180.826 114.26 176.352 113.839 171.897C113.665 170.106 112.948 166.614 115.351 166.247C117.937 165.851 120.298 165.403 122.871 166.087C126.146 166.957 127.535 161.89 124.265 161.023Z" fill="black"/>
<path d="M162.365 115.173C162.709 124.353 161.324 133.53 161.674 142.712C162.018 152.237 160.979 162.458 163.576 171.638C165.135 177.007 167.734 182.202 173.103 184.109C177.953 186.013 184.537 186.187 189.556 185.148C194.406 184.109 200.294 182.896 203.587 179.085C207.05 175.101 208.608 169.905 209.13 164.882C210.167 156.394 211.034 148.601 210.341 140.112C209.65 131.799 209.302 123.313 210.861 114.999C207.05 114.651 203.412 114.651 199.603 114.306C198.216 123.833 199.083 134.226 199.083 143.751C199.083 152.237 199.774 165.921 191.288 170.771C188.171 172.503 181.761 173.542 178.47 171.638C174.486 169.386 174.659 161.417 173.968 157.261C172.234 147.214 173.103 137.515 173.794 127.296C173.968 122.794 173.794 117.942 173.794 113.267C170.157 114.132 166.175 113.267 162.708 114.132" fill="#0079EA"/>
<path d="M159.741 115.173C159.86 139.534 148.468 188.663 185.55 188.316C223.53 187.961 210.007 139.269 213.394 115.697C213.644 113.955 212.718 112.49 210.863 112.375C207.111 112.145 203.359 111.912 199.605 111.682C198.064 111.586 197.126 112.955 196.98 114.307C195.687 126.315 202.597 163.473 187.738 169.375C174.199 174.75 175.634 148.633 175.599 142.344C175.546 132.651 176.501 122.985 176.421 113.268C176.409 111.957 175.23 110.481 173.796 110.643C170.085 111.059 166.421 111.079 162.71 111.508C159.39 111.893 159.351 117.147 162.71 116.758C174.386 115.41 171.491 122.625 170.823 132.367C170.175 141.805 170.55 150.763 171.696 160.137C172.842 169.52 174.706 175.141 184.948 175.194C195.19 175.247 199.645 166.225 201.159 157.614C202.225 151.546 201.725 145.051 201.651 138.926C201.592 133.965 201.45 129.02 201.479 124.059C201.52 116.664 204.174 117.213 210.862 117.625C210.018 116.518 209.174 115.41 208.331 114.303C205.632 133.116 216.698 174.578 192.636 181.766C155.218 192.946 165.089 135.266 164.991 115.174C164.971 111.789 159.721 111.787 159.741 115.173Z" fill="black"/>
<path d="M264.556 124.699C266.701 120.031 262.574 117.42 259.163 115.269C256.774 113.765 254.124 112.691 251.37 112.074C246.018 110.879 240.182 111.424 235.284 113.961C225.585 118.984 223.331 132.84 230.782 140.633C238.057 148.256 251.003 146.35 253.253 158.645C255.159 169.907 244.03 177.352 234.073 171.465C230.639 169.434 228.749 165.25 227.116 160.813C223.479 161.161 218.655 162.977 218.829 167.307C219.003 171.465 223.681 176.661 226.276 179.606C233.032 187.227 245.503 185.669 253.124 180.126C261.96 173.718 265.249 164.884 262.479 154.317C260.571 146.698 252.26 139.596 245.159 136.997C241.346 135.786 236.971 135.222 236.104 130.198C235.586 126.04 239.268 122.796 243.077 122.276C250.353 121.41 259.707 135.265 264.556 124.699Z" fill="#0079EA"/>
<path d="M267.087 125.396C270.421 106.058 238.358 106.339 228.521 116.058C223.679 120.843 222.195 130.628 225.193 136.673C227.379 141.085 230.199 143.937 234.371 146.519C236.314 147.72 240.918 149.443 242.578 150.154C243.433 150.588 244.289 151.021 245.141 151.455C237.778 168.332 232.612 171.217 229.649 160.115C229.09 158.703 227.948 157.984 226.422 158.281C209.719 161.513 218.188 175.844 226.869 183.67C236.488 192.338 254.558 185.668 260.971 176.199C270.403 162.273 265.332 147.566 252.688 137.969C249.815 135.783 246.36 134.617 242.958 133.598C244.774 126.774 247.474 124.93 251.06 128.065C252.605 128.961 254.527 130.274 256.298 130.692C261.464 131.915 264.056 130.354 266.825 126.024C268.653 123.163 264.11 120.532 262.29 123.376C259.591 127.595 245.306 118.823 239.614 120.618C233.634 122.501 232.811 129.044 234.821 133.907C235.509 135.575 237.18 136.891 238.833 137.559C248.185 141.336 256.067 144.477 259.95 155.014C264.522 167.43 254.538 178.241 243.581 181.616C237.956 183.12 232.81 181.831 228.136 177.751C220.167 170.567 228.837 170.698 226.144 165.39C233.248 179.404 252.464 179.667 255.958 162.943C257.372 156.185 252.935 150.443 247.794 146.923C242.931 143.595 237.288 142.808 232.642 138.778C223.372 130.745 231.486 118.298 239.814 114.96C243.861 113.339 263.691 114.349 262.027 124.003C261.453 127.312 266.513 128.728 267.087 125.396Z" fill="black"/>
<path d="M277.199 183.587C282.396 166.612 283.783 147.56 288.631 130.241C290.709 122.62 291.402 113.958 300.408 114.651C310.107 115.342 314.957 127.815 317.383 136.475C321.885 150.678 326.737 165.575 329.16 180.469C318.074 184.973 319.611 179.436 315.306 169.385C312.681 163.26 307.337 164.879 300.753 164.879C296.251 164.879 294.648 164.838 292.224 167.608C289.798 170.381 289.583 174.147 289.236 177.612C288.892 182.464 289.322 183.241 284.474 184.28C282.048 184.626 279.275 184.28 277.199 183.932M301.621 133.791C300.93 137.604 298.33 141.326 297.291 145.137C294.52 152.758 293.488 155.543 303.18 155.184C317.208 154.664 306.869 140.464 301.621 133.791Z" fill="#0079EA"/>
<path d="M279.731 184.285C285.315 164.619 287.737 144.207 292.831 124.394C297.462 123.113 302.093 121.831 306.726 120.55C309.451 123.634 311.492 127.118 312.849 131.007C314.937 136.046 316.242 141.542 317.876 146.737C318.851 149.839 328.456 177.94 325.21 179.075C319.815 180.962 318.39 167.823 315.274 164.71C311.618 161.054 305.295 162.112 300.754 162.255C296.92 162.378 292.217 162.4 289.959 166.284C286.15 172.835 287.807 182.62 277.199 181.307C273.845 180.893 273.885 186.147 277.199 186.557C282.133 187.166 286.482 187.495 290.4 184.233C291.162 183.6 291.357 182.012 291.56 181.251C293.4 174.341 296.431 167.642 304.54 167.386C316.419 167.011 313.151 177.636 318.38 182.866C321.53 186.014 326.341 184.229 329.857 183.001C331.302 182.495 331.959 181.257 331.691 179.772C328.623 162.733 323.605 145.95 317.91 129.612C315.502 122.694 309.344 111.38 300.408 112.026C291.513 112.671 289.023 118.116 286.935 126.243C282.119 144.979 279.953 164.28 274.667 182.889C273.743 186.154 278.807 187.537 279.731 184.285Z" fill="black"/>
<path d="M299.089 133.093C297.636 139.312 292.087 146.031 292.808 152.691C293.466 158.773 301.75 158.086 306.051 157.494C320.653 155.486 307.72 137.357 303.478 131.935C301.392 129.271 297.706 133.013 299.764 135.648C302.221 138.789 312.311 150.742 304.655 152.433C302.682 152.867 300.103 152.734 298.158 152.21C297.638 152.069 298.334 150.216 298.537 149.522C300.051 144.379 302.933 139.694 304.152 134.487C304.923 131.195 299.861 129.796 299.089 133.093Z" fill="black"/>
<path d="M357.913 169.386C358.106 172.654 358.335 175.935 355.434 178.013C352.748 179.937 348.42 180.066 346.256 177.423C342.068 172.316 345.42 161.767 345.215 155.726C344.869 145.613 344.057 135.515 344.057 125.39C344.057 115.691 341.979 109.8 353.758 109.456C364.151 109.108 368.653 120.888 373.846 128.854C380.084 138.553 381.815 152.065 389.436 160.723C396.018 154.489 391.17 141.325 390.131 133.358C389.09 126.428 388.744 118.462 389.436 111.188C390.475 102.526 401.561 103.221 402.252 112.225C403.293 123.311 402.947 134.743 402.947 145.481C402.947 152.756 405.025 161.069 403.638 168.344C402.251 175.965 390.822 177.698 385.279 173.194C379.738 169.038 362.416 129.202 356.181 133.704C350.639 137.515 357.567 163.496 357.913 169.386Z" fill="#0079EA"/>
<path d="M355.289 169.386C352.453 169.138 349.617 168.89 346.777 168.64C346.89 166.343 347.097 164.054 347.406 161.775C348.017 156.357 347.654 151.054 347.386 145.617C346.921 136.099 346.464 126.554 346.581 117.027C346.739 103.884 364.265 118.365 366.374 121.533C368.937 125.385 371.208 129.529 373.507 133.543C378.878 142.918 380.489 153.313 387.169 162.049C388.071 163.229 390.148 164.061 391.294 162.58C395.325 157.365 396.052 151.84 394.968 145.299C393.825 138.399 392.421 131.653 391.863 124.656C391.687 121.646 391.658 118.636 391.769 115.623C394.511 116.08 397.253 116.539 399.996 116.996C400.184 120.191 400.297 123.389 400.34 126.59C400.494 132.883 400.344 139.188 400.324 145.483C400.297 152.713 406.131 171.518 393.16 173.024C384.193 174.067 378.129 157.356 374.707 151.376C372.176 146.954 363.006 126.665 354.859 131.44C345.539 136.896 354.468 161.605 355.289 169.386C355.641 172.716 360.894 172.749 360.539 169.386C359.523 159.747 356.832 150.437 356.672 140.681C356.516 131.136 362.502 141.593 364.401 144.449C367.524 149.14 370.237 154.117 373.016 159.012C376.657 165.416 379.774 172.948 386.28 176.86C391.942 180.266 401.608 177.958 404.948 172.253C407.186 168.433 406.718 163.435 406.622 159.251C406.411 149.938 405.61 140.73 405.628 131.376C405.642 125.106 408.405 105.626 398.868 103.128C374.333 96.7 394.38 150.075 387.581 158.868C388.958 159.046 390.333 159.223 391.706 159.401C381.101 145.538 379.22 120.712 363.757 110.296C355.29 104.591 342.767 105.571 341.333 117.028C339.979 127.848 341.854 139.825 342.388 150.673C342.747 158.036 338.937 169.521 342.626 176.257C348.864 187.648 360.837 180.298 360.54 169.388C360.449 166.007 355.195 165.998 355.289 169.386Z" fill="black"/>
<path d="M211.036 211.298C207.919 211.646 199.95 210.954 197.526 212.687C192.674 215.804 195.792 219.613 199.604 221C202.17 221.934 205.842 220.914 208.557 221.053C208.186 227.949 209.651 235.11 209.651 242.141C209.653 249.618 211.276 257.09 211.331 264.602C211.358 267.952 211.628 272.254 209.999 275.321C207.335 280.337 200.36 277.757 197.874 282.315C195.101 287.858 201.335 288.897 205.147 288.897C213.807 288.551 223.163 287.858 231.823 286.821C240.134 286.126 241.518 276.772 233.206 275.387C231.128 275.041 225.239 276.772 223.163 275.387C221.081 273.653 221.772 267.766 221.772 264.649C221.772 257.026 221.6 249.235 220.909 241.268C220.214 235.032 216.167 221.653 222.725 220.481C226.868 219.743 230.955 221.608 233.205 218.231C234.924 215.651 232.166 212.688 230.088 211.995C225.584 209.915 216.233 211.3 210.69 211.3" fill="#0079EA"/>
<path d="M211.036 208.673C204.054 209.001 192.491 207.571 192.694 217.491C192.749 220.272 196.581 222.889 198.907 223.53C200.546 223.979 205.936 222.659 205.948 226.268C205.964 233.373 206.958 240.631 207.28 247.747C207.825 259.675 212.909 272.569 199.135 277.786C196.276 278.868 194.572 282.2 194.572 285.126C194.572 296.573 221.896 290.456 226.552 290.024C232.904 289.434 245.892 286.381 240.284 276.811C238.395 273.586 234.448 272.733 231.05 272.809C220.152 273.053 224.318 255.149 223.96 247.209C223.575 238.717 217.325 223.385 230.405 222.773C234.333 222.589 235.657 219.4 236.153 216.316C237.893 205.455 215.089 208.521 210.688 208.671C207.313 208.786 207.301 214.036 210.688 213.921C214.762 213.782 218.829 213.564 222.907 213.474C228.313 217.208 228.251 218.665 222.723 217.853C222.248 217.855 221.809 217.974 221.399 218.212C216.856 220.435 216.45 224.196 216.471 228.972C216.508 238.878 218.875 248.888 219.108 258.896C219.225 263.898 217.145 273.084 221.301 277.242C222.137 278.076 223.59 278.197 224.615 278.451C225.793 278.654 226.982 278.637 228.179 278.4C233.304 277.054 232.759 279.179 226.55 284.773C219.441 285.558 212.286 285.931 205.144 286.269C201.835 282.82 202.121 281.117 205.992 281.165C207.09 280.716 208.185 280.263 209.275 279.8C214.384 276.808 213.992 269.56 213.953 264.599C213.84 250.079 211.219 235.599 211.18 221.05C211.176 219.685 209.989 218.337 208.555 218.425C204.438 220.13 202.397 218.712 202.43 214.173C205.243 213.819 208.198 214.056 211.034 213.921C214.405 213.765 214.422 208.515 211.036 208.673Z" fill="black"/>
<path d="M292.575 211.908C286.132 207.824 275.477 209.15 269.116 211.34C258.331 214.428 253.729 219.539 255.229 231.57C256.424 241.195 264.241 247.902 272.405 251.773C279.405 254.74 290.161 257.324 287.419 266.726C285.298 273.999 279.872 277.144 272.87 274.175C267.757 272.368 260.026 258.898 253.835 265.257C247.046 272.384 261.433 281.415 266.245 283.609C274.065 287.521 281.409 287.654 288.46 282.589C302.944 272.757 303.556 252.433 286.89 244.734C280.23 241.722 270.222 239.828 266.874 232.562C262.968 223.624 269.542 220.363 277.659 221.097C281.874 221.271 288.145 223.982 292.1 222.091C296.053 220.203 297.385 214.103 292.575 211.908Z" fill="#0079EA"/>
<path d="M293.9 209.642C282.117 204.265 266.273 206.439 256.539 215.23C247.119 223.736 253.939 239.748 260.738 247.084C265.752 252.488 273.146 254.676 279.629 257.596C276.943 269.85 273.367 273.248 268.895 267.791C267.504 266.414 266.036 265.119 264.497 263.91C262.677 262.396 261.024 261.791 258.845 261.078C249.488 258.021 248.005 272.084 252.779 276.976C263.002 287.458 276.467 292.431 289.787 284.855C299.15 279.531 305.035 265.589 300.558 255.437C297.876 249.351 293.982 245.664 288.216 242.468C284.269 240.279 279.458 239.105 275.386 237.189C267.884 225.621 269.568 221.265 280.443 224.125C281.937 224.514 283.449 224.805 284.978 224.994C293.978 225.918 304.044 217.646 294.435 210.053C291.806 207.979 288.066 211.668 290.72 213.766C296.732 218.516 275.782 218.436 274.306 218.407C271.982 218.362 268.759 219.067 266.923 220.632C261.476 225.271 262.833 231.146 266.421 236.693C272.798 246.552 287.958 244.849 294.757 255.213C304.189 269.576 285.54 285.758 271.583 282.963C268.642 281.967 265.876 280.635 263.282 278.965C256.419 274.895 260.458 267.092 265.184 271.506C270.391 276.365 275.479 279.199 282.674 276.826C287.352 275.281 291.488 267.474 290.383 262.81C288.615 255.388 282.469 252.968 275.871 250.353C264.191 245.718 253.131 234.121 259.119 220.527C263.402 210.806 284.103 210.916 291.252 214.177C294.308 215.57 296.976 211.046 293.9 209.642Z" fill="black"/>
<path d="M116.12 369.613C115.44 376.4 122.862 389.119 113.866 392.084C102.046 395.982 105.616 375.988 105.38 370.996C105.034 363.723 105.034 356.447 105.034 349.172C105.034 338.434 104.343 327.348 104.688 316.611C118.545 314.533 136.903 307.951 148.334 318.689C160.459 330.121 146.947 345.71 136.902 352.984C141.06 360.603 145.459 367.685 151.105 374.113C155.134 378.703 156.689 380.306 154.263 383.769C151.492 387.582 145.562 388.318 142.445 385.544C136.211 380.349 134.131 369.956 129.627 363.722C127.897 361.644 123.049 358.87 119.928 359.911C116.465 361.296 116.465 366.148 116.12 369.613ZM114.733 328.043C114.389 334.279 114.389 341.898 115.081 348.133C124.085 349.52 139.675 339.819 137.253 329.428C135.171 320.074 121.315 325.27 114.733 325.27C114.733 325.964 114.389 327.003 114.733 328.043Z" fill="#0079EA"/>
<path d="M113.496 369.613C113.594 373.074 114.205 376.222 114.949 379.621C109.859 388.566 107.445 389.437 107.707 382.236C107.654 380.47 107.678 378.707 107.77 376.945C108.129 365.908 107.713 354.828 107.61 343.777C107.544 336.519 107.262 329.265 107.221 322.006C107.188 316.274 122.239 316.07 125.303 315.66C136.465 314.162 157.602 318.006 147.754 337.758C145.047 343.184 139.738 347.483 135.047 351.129C134.121 351.85 134.113 353.375 134.637 354.309C137.157 358.791 139.77 363.129 142.6 367.418C143.696 368.986 144.832 370.527 146.004 372.035C151.797 376.588 149.871 378.812 140.234 378.711C135.929 372.412 134.972 364.75 128.894 359.723C119.582 352.023 114.322 361.294 113.496 369.613C113.162 372.98 118.414 372.949 118.746 369.613C122.219 369.056 125.691 368.502 129.164 367.947C130.305 370.131 131.361 372.355 132.334 374.617C133.883 378.035 135.498 382.138 138.156 384.883C142.625 389.504 146.211 390.662 152.385 388.576C168.323 383.195 144.477 360.763 141.703 356.166C139.539 352.58 152.746 341.211 154.246 336.383C155.887 331.104 156.809 324.723 152.887 320.045C140.157 304.867 120.883 311.199 103.992 314.08C102.84 314.277 102.082 315.531 102.064 316.611C101.748 334.685 102.093 352.929 102.755 370.996C103.023 378.291 100.985 385.976 105.321 392.461C108.331 396.959 114.214 394.918 117.842 392.813C124.674 388.848 118.891 374.907 118.744 369.614C118.652 366.234 113.402 366.224 113.496 369.613Z" fill="black"/>
<path d="M112.108 328.043C111.772 334.744 111.78 341.453 112.456 348.133C112.61 349.686 113.542 350.586 115.081 350.758C125.905 351.971 139.769 342.92 140.128 331.426C140.573 317.188 122.898 322.434 114.733 322.645C113.19 322.684 112.258 323.817 112.108 325.27C111.936 326.193 111.936 327.117 112.108 328.043C112.397 331.391 117.649 331.418 117.358 328.043C117.186 327.117 117.186 326.193 117.358 325.27C116.483 326.145 115.61 327.02 114.733 327.895C119.899 327.762 132.725 323.049 134.721 330.125C137.323 339.357 122.19 346.305 115.08 345.508C115.955 346.383 116.828 347.258 117.705 348.133C117.029 341.453 117.021 334.744 117.357 328.043C117.53 324.658 112.28 324.673 112.108 328.043Z" fill="black"/>
<path d="M219.351 313.837C205.839 312.107 191.984 314.878 178.472 313.493C176.742 333.583 179.859 354.022 179.167 374.112C179.167 376.538 177.433 382.083 178.821 384.159C181.245 386.932 191.635 385.2 195.1 385.2C199.258 385.2 211.727 388.317 215.538 385.891C219.696 382.774 217.964 374.459 214.499 373.073C208.96 370.995 201.685 374.807 196.14 372.729C191.984 370.995 192.675 368.916 192.331 364.069C191.983 358.87 191.29 357.141 196.833 356.1C201.685 355.407 214.153 359.911 217.271 355.752C218.312 354.715 217.964 347.092 217.271 346.053C216.234 344.668 212.078 344.668 210.343 344.668C204.452 344.322 194.407 347.092 191.636 341.897C188.173 334.969 191.984 325.963 199.259 324.924C205.493 324.229 212.769 325.963 219.351 325.963C220.738 322.498 220.738 317.994 219.697 314.877" fill="#0079EA"/>
<path d="M219.351 311.212C205.716 309.991 192.121 311.784 178.472 310.868C176.976 310.766 175.937 312.143 175.847 313.493C174.527 333.722 176.913 353.878 176.542 374.112C176.409 381.325 173.724 386.676 182.651 388.192C186.682 388.878 191.049 388.034 195.1 387.825C201.215 387.511 207.209 389.671 213.424 389.241C219.58 388.819 221.494 381.69 220.092 376.589C216.838 364.765 195.51 375.276 194.955 364.069C194.441 353.739 212.92 363.815 219.127 357.61C221.418 355.317 221.846 345.479 218.594 343.788C214.893 341.862 211.258 342.034 207.104 342.079C205.901 342.161 204.696 342.243 203.489 342.325C195.495 343.819 195.698 338.85 204.1 327.419C209.104 327.284 214.342 328.331 219.35 328.589C220.491 328.648 221.608 327.745 221.881 326.661C223.018 322.143 223.117 318.745 222.227 314.181C221.581 310.859 216.52 312.269 217.164 315.576C219.662 328.396 204.162 320.482 198.56 322.394C193.947 323.968 191.798 325.671 189.154 329.878C186.42 334.222 187.142 344.46 192.877 346.413C197.639 348.038 202.104 347.671 207.104 347.329C209.94 347.136 214.971 346.222 215.295 350.903C215.733 357.174 203.893 354.003 202.459 353.831C196.023 353.061 190.322 353.634 189.482 360.776C188.523 368.924 190.837 374.428 198.947 375.893C200.42 376.137 201.906 376.096 203.4 375.774C209.195 375.444 215.478 384.452 207.203 384.012C201.189 383.694 195.93 382.453 189.877 382.92C180.156 383.674 181.779 374.783 181.891 368.625C182.092 357.598 181.141 346.527 180.717 335.514C180.373 326.653 177.237 316.393 188.658 316.512C198.955 316.619 209.045 315.539 219.349 316.461C222.722 316.765 222.695 311.511 219.351 311.212Z" fill="black"/>
<path d="M246.022 386.933C245.077 388.964 240.79 387.806 239.219 387.482C238.528 387.339 237.842 387.181 237.156 387.021C236.713 386.921 235.861 386.912 235.498 386.687C234.299 385.941 235.316 383.517 235.455 382.496C235.717 380.549 236.002 378.601 236.31 376.66C236.91 372.816 237.591 368.984 238.318 365.164C240.318 354.707 242.697 344.328 244.984 333.932C246.716 327.348 245.675 315.918 252.259 313.147C254.681 312.108 260.224 312.108 262.65 312.801C268.539 313.838 269.58 318.344 272.002 323.539C278.932 337.742 284.475 354.369 288.631 369.613C289.67 372.383 291.748 377.926 290.709 380.697C290.018 383.123 285.168 386.24 282.049 384.853C277.199 382.775 279.276 370.65 274.774 367.187C271.657 364.416 264.038 365.455 260.225 365.8C254.682 366.148 252.26 366.839 250.528 372.73C249.487 376.539 247.729 383.269 246.022 386.933ZM257.108 331.853C255.721 336.701 255.03 341.552 254.682 346.402C254.336 348.132 252.604 353.328 253.645 354.369C254.682 355.408 261.612 355.062 262.997 354.717C271.311 353.676 270.966 347.789 267.849 341.207C266.464 338.434 260.226 327.348 257.109 331.506" fill="#0079EA"/>
<path d="M244.697 384.666C232.445 392.129 241.15 364.338 241.879 360.639C243.826 350.743 246.918 340.854 248.213 330.852C249.192 323.289 248.43 313.454 261.953 315.332C268.377 316.223 273.553 333.24 275.334 337.57C280.189 349.392 283.094 361.791 287.33 373.8C285.252 375.007 283.176 376.214 281.1 377.419C280.762 375.312 280.352 373.222 279.87 371.142C279.311 368.538 278.218 367.314 276.632 365.329C273.837 361.831 266.571 362.686 262.903 362.921C247.346 363.917 248.674 373.144 243.491 386.234C242.243 389.386 247.323 390.74 248.554 387.629C250.394 382.984 251.747 378.244 253.06 373.426C255.914 362.961 274.042 368.965 275.468 375.639C276.988 382.727 277.667 387.383 285.527 387.557C305.058 387.989 281.136 337.975 278.525 331.623C276.347 326.328 273.193 314.051 266.957 311.654C261.738 309.648 251.49 307.55 247.609 313.5C241.375 323.055 241.406 337.926 239.011 348.826C236.607 359.793 230.073 376.355 232.968 387.383C233.187 388.219 233.933 389.043 234.802 389.219C239.304 390.129 243.222 391.711 247.347 389.199C250.232 387.441 247.597 382.9 244.697 384.666Z" fill="black"/>
<path d="M254.576 331.156C253.14 336.467 253.117 342.025 251.76 347.289C251.114 349.797 249.588 354.023 251.787 356.225C255.244 359.68 266.775 357.836 269.9 354.672C274.963 349.555 271.494 342.039 268.408 336.805C266.111 332.914 260.301 324.307 255.25 329.651C252.928 332.108 256.633 335.829 258.965 333.362C259.574 332.716 264.6 340.696 265.059 341.534C267.147 345.333 269.08 350.528 263.606 351.968C261.866 352.427 259.971 352.415 258.19 352.439C257.229 352.451 256.249 352.416 255.299 352.25C255.514 352.549 255.729 352.848 255.942 353.145C255.977 352.35 256.094 351.565 256.296 350.795C257.566 344.732 258.017 338.561 259.64 332.553C260.523 329.277 255.458 327.89 254.576 331.156Z" fill="black"/>
<path d="M317.037 306.218C332.971 306.218 345.444 311.759 354.796 325.269C365.534 340.859 363.802 370.65 345.79 380.349C337.13 385.201 326.736 386.585 317.037 384.853C305.951 382.775 309.068 372.035 310.455 363.029C313.225 344.67 313.225 325.617 316.346 307.258M344.057 335.316C340.504 329.732 333.151 325.101 326.442 325.67C326.008 334.27 326.08 342.711 324.658 351.25C323.963 355.408 322.581 359.564 321.886 363.723C321.195 368.573 320.501 369.266 325.353 370.651C341.631 375.5 351.333 346.75 344.057 335.316Z" fill="#0079EA"/>
<path d="M317.038 308.843C348.679 309.878 369.714 341.157 353.161 369.956C347.932 379.056 336.495 382.003 326.878 382.907C309.358 384.555 312.296 368.79 313.739 358.198C316.018 341.503 316.317 324.632 318.878 307.954C319.386 304.643 314.327 303.222 313.815 306.559C311.502 321.614 310.639 336.788 309.206 351.94C308.601 358.366 303.485 373.96 307.452 380.733C316.253 395.76 342.602 387.003 353.054 378.274C366.3 367.21 366.007 344.836 360.439 330.247C353.584 312.28 334.962 304.179 317.039 303.593C313.651 303.484 313.659 308.734 317.038 308.843Z" fill="black"/>
<path d="M346.327 333.992C341.413 327.314 334.882 323.119 326.442 323.045C324.963 323.031 323.881 324.25 323.817 325.67C323.448 333.99 323.334 342.297 322.127 350.553C321.275 356.354 318.166 362.543 318.916 368.487C319.686 374.604 329.925 374.243 334.083 372.856C347.877 368.257 352.737 345.546 346.327 333.992C344.682 331.033 340.146 333.679 341.791 336.64C347.178 346.351 342.297 364.589 331.199 368.288C327.271 369.597 323.799 368.479 324.416 364.419C325.057 360.22 326.35 356.112 327.189 351.946C328.916 343.372 328.68 334.368 329.067 325.669C328.19 326.544 327.319 327.419 326.442 328.294C332.936 328.351 337.994 331.48 341.791 336.64C343.773 339.337 348.334 336.722 346.327 333.992Z" fill="black"/>
<path d="M380.213 324.578C385.76 331.16 391.994 337.396 393.379 346.055C394.764 354.717 394.764 363.723 394.416 372.383C394.416 374.461 392.686 381.391 394.07 383.123C395.111 384.508 402.73 385.201 404.465 384.16C410.354 380.697 406.541 366.496 406.197 360.603C405.847 354.716 405.502 345.363 407.232 339.818C409.314 332.89 417.974 323.539 422.476 317.996C425.593 314.533 434.945 307.258 432.521 302.062C424.552 285.435 404.464 325.964 399.267 326.31C392.685 327.003 384.027 311.421 380.564 306.915C377.572 303.026 375.519 299.442 369.871 299.632C357.014 300.068 377.877 321.804 380.213 324.578Z" fill="#0079EA"/>
<path d="M378.355 326.433C389.24 339.142 392.031 350.605 391.949 367.152C391.931 370.894 388.771 381.535 392.213 384.978C399.619 392.382 409.129 385.458 410.221 377.435C411.131 370.771 408.959 363.388 408.627 356.712C407.83 340.573 414.451 331.739 424.334 319.851C429.397 313.759 442.701 302.533 430.17 295.99C422.664 292.072 413.885 304.803 410.416 309.215C406.959 313.611 403.853 318.285 400.146 322.485C395.791 327.419 383.007 305.169 380.283 302.255C377.095 298.849 363.959 292.644 363.226 301.86C362.494 311.062 372.824 320.126 378.355 326.433C380.593 328.984 384.291 325.257 382.07 322.722C380.052 320.421 378.015 318.138 376.047 315.794C374.465 313.907 372.986 311.944 371.611 309.905C369.037 306.237 366.56 292.841 378.297 308.239C383.697 315.319 387.627 323.747 395.682 328.241C404.745 333.3 418.053 307.632 422.803 303.216C428.588 298.247 429.373 301.05 425.149 311.622C422.922 314.05 420.581 316.186 418.469 318.729C414.838 323.094 411.326 327.422 408.11 332.106C402.028 340.967 402.78 353.001 403.839 363.165C404.132 365.354 404.431 367.542 404.73 369.731C404.835 370.917 404.941 372.104 405.046 373.292C406.458 380.978 403.675 381.677 396.698 375.392C397.563 369.183 397.257 362.812 397.069 356.57C396.639 342.16 391.225 333.414 382.071 322.722C379.865 320.148 376.166 323.878 378.355 326.433Z" fill="black"/>
<path d="M92.8291 142.957C92.3391 135.93 91.8701 128.894 91.6001 121.855C91.4691 118.355 91.3851 114.857 91.3731 111.357C91.3631 108.798 90.6031 104.525 91.6151 102.146C92.9631 98.966 98.7091 99.126 101.511 99.029C104.991 98.91 108.501 99.027 111.964 99.338C118.474 99.92 125.954 101.356 131.013 105.818C146.603 119.328 135.689 140.632 120.099 147.388C133.091 146.867 142.445 160.378 136.728 173.368C131.013 186.878 107.111 185.839 95.1601 185.839H94.6391C95.4651 185.839 93.0751 146.515 92.8291 142.957ZM120.768 132.494C124.235 129.203 125.793 123.312 124.235 118.812C123.565 116.874 122.135 114.644 120.464 113.408C118.452 111.922 115.648 112.25 113.349 111.535C111.531 110.972 106.003 109.361 104.372 110.887C103.341 111.852 103.561 115.7 103.54 117.121C103.505 119.392 103.472 121.666 103.458 123.939C103.429 128.517 103.077 133.418 103.718 137.947C109.774 139.259 116.413 136.849 120.768 132.494ZM116.292 155.933C115.585 155.712 114.878 155.556 114.194 155.478C111.932 155.218 109.569 155.792 107.378 156.093C105.433 156.359 105.081 156.21 104.476 157.695C103.171 160.871 104.15 164.91 104.267 168.23C104.374 171.345 104.55 174.525 104.714 177.673C104.712 177.612 107.952 177.652 108.206 177.628C111.901 177.276 116.448 176.878 119.536 174.509C124.048 171.042 125.823 166.251 123.038 161.064C121.737 158.644 119.008 156.785 116.292 155.933Z" fill="white"/>
<path d="M95.4551 142.957C94.8551 134.176 94.336 125.404 94.07 116.605C93.756 106.334 96.0151 101.662 106.746 101.646C120.23 101.628 135.144 106.326 135.945 122.257C136.465 132.542 126.855 141.005 118.777 145.12C116.289 146.388 117.675 149.85 120.101 150.013C133.96 150.931 140.796 165.716 131.398 176.456C128.199 180.112 122.125 181.19 117.585 182.14C110.149 183.695 102.192 183.214 94.6401 183.214C95.4841 184.321 96.3281 185.429 97.1711 186.536C98.9131 181.585 97.1551 173.88 96.9131 168.792C96.5071 160.177 96.0231 151.562 95.4551 142.957C95.2321 139.598 89.9821 139.574 90.2051 142.957C90.6391 149.516 90.9961 156.082 91.3511 162.646C91.6811 168.785 94.189 179.23 92.109 185.142C91.535 186.771 93.0231 188.464 94.6401 188.464C106.843 188.464 130.23 190.427 137.503 177.37C145.903 162.298 137.245 145.899 120.101 144.763C120.544 146.394 120.984 148.023 121.425 149.654C140.21 140.082 152.101 107.466 124.695 99.246C117.299 97.027 97.699 91.916 91.482 98.476C88.531 101.585 88.4471 104.072 88.5821 108.359C88.9491 119.91 89.4181 131.425 90.2051 142.957C90.4331 146.316 95.6871 146.337 95.4551 142.957Z" fill="black"/>
<path d="M122.629 134.349C126.774 129.867 128.371 124.038 126.768 118.115C124.727 110.562 118.399 110.176 112.108 108.451C107.712 107.244 101.684 106.75 101.081 112.615C100.239 120.76 100.192 129.836 101.095 137.947C101.216 139.027 101.798 140.277 103.025 140.478C110.434 141.701 117.135 139.418 122.629 134.349C125.117 132.05 121.399 128.345 118.914 130.636C114.914 134.327 109.883 136.318 104.418 135.415C105.059 136.259 105.703 137.103 106.344 137.946C106.074 135.518 104.801 112.88 107.449 112.897C110.543 112.917 113.992 114.354 117.054 114.844C124.656 116.057 122.417 126.848 118.913 130.635C116.62 133.119 120.323 136.839 122.629 134.349Z" fill="black"/>
<path d="M116.992 153.402C113.941 152.593 111.097 152.867 108.015 153.359C106.152 153.654 103.542 153.644 102.556 155.658C101.197 158.435 101.091 161.234 101.314 164.277C101.636 168.74 101.855 173.203 102.089 177.673C102.159 178.997 103.235 180.437 104.714 180.298C112.007 179.616 120.042 179.937 124.646 172.999C129.902 165.076 125.279 156.441 116.992 153.402C113.806 152.232 112.445 157.308 115.597 158.465C122.835 161.119 123.394 168.793 117.132 172.963C113.527 175.363 108.777 174.668 104.714 175.049C105.591 175.924 106.464 176.799 107.339 177.674C107.105 173.207 106.985 168.731 106.564 164.278C106.39 162.485 105.673 158.993 108.076 158.626C110.664 158.231 113.021 157.784 115.597 158.466C118.871 159.332 120.261 154.267 116.992 153.402Z" fill="black"/>
<path d="M155.09 107.55C155.436 116.734 154.049 125.909 154.399 135.091C154.745 144.616 153.706 154.835 156.303 164.017C157.862 169.386 160.459 174.581 165.83 176.488C170.678 178.392 177.262 178.566 182.283 177.527C187.131 176.488 193.021 175.273 196.314 171.464C199.775 167.48 201.334 162.284 201.853 157.261C202.892 148.773 203.759 140.98 203.066 132.493C202.375 124.179 202.029 115.692 203.587 107.38C199.774 107.032 196.138 107.032 192.329 106.683C190.942 116.212 191.809 126.605 191.809 136.13C191.809 144.616 192.5 158.302 184.012 163.151C180.895 164.881 174.485 165.921 171.196 164.016C167.212 161.762 167.383 153.797 166.692 149.639C164.958 139.592 165.829 129.895 166.52 119.674C166.692 115.172 166.52 110.322 166.52 105.645C162.881 106.512 158.899 105.645 155.434 106.512" fill="white"/>
<path d="M152.466 107.55C152.585 131.909 141.193 181.046 178.277 180.696C216.254 180.335 202.734 131.649 206.121 108.077C206.373 106.333 205.445 104.868 203.59 104.755C199.836 104.523 196.084 104.292 192.332 104.058C190.789 103.964 189.852 105.333 189.707 106.683C188.414 118.691 195.322 155.855 180.463 161.753C166.926 167.128 168.359 141.011 168.324 134.722C168.273 125.029 169.226 115.363 169.148 105.646C169.136 104.335 167.957 102.859 166.523 103.021C162.812 103.437 159.146 103.459 155.437 103.888C152.115 104.273 152.078 109.527 155.437 109.138C167.113 107.784 164.218 115.005 163.55 124.745C162.902 134.184 163.277 143.141 164.421 152.515C165.567 161.9 167.431 167.517 177.673 167.572C187.917 167.629 192.37 158.605 193.886 149.992C194.952 143.924 194.452 137.429 194.378 131.304C194.319 126.343 194.175 121.398 194.206 116.437C194.245 109.044 196.901 109.591 203.589 110.005C202.745 108.898 201.901 107.79 201.058 106.683C198.357 125.492 209.421 166.956 185.361 174.146C147.943 185.326 157.816 127.644 157.716 107.55C157.699 104.166 152.449 104.164 152.466 107.55Z" fill="black"/>
<path d="M257.28 117.078C259.425 112.412 255.298 109.799 251.887 107.65C249.498 106.144 246.848 105.07 244.094 104.455C238.744 103.26 232.908 103.803 228.01 106.34C218.311 111.361 216.057 125.219 223.506 133.014C230.781 140.635 243.729 138.731 245.979 151.026C247.885 162.286 236.756 169.731 226.797 163.844C223.363 161.815 221.475 157.631 219.842 153.192C216.203 153.538 211.381 155.358 211.553 159.688C211.727 163.844 216.405 169.04 219.002 171.985C225.756 179.606 238.229 178.048 245.85 172.505C254.682 166.099 257.975 157.263 255.204 146.696C253.296 139.077 244.985 131.973 237.884 129.378C234.073 128.165 229.698 127.601 228.831 122.577C228.311 118.421 231.991 115.175 235.804 114.655C243.077 113.787 252.432 127.644 257.28 117.078Z" fill="white"/>
<path d="M259.812 117.775C263.15 98.439 231.082 98.72 221.246 108.437C216.404 113.222 214.922 123.007 217.918 129.054C220.106 133.464 222.926 136.318 227.098 138.898C229.037 140.101 233.643 141.824 235.305 142.533C236.16 142.967 237.012 143.4 237.868 143.834C230.503 160.711 225.337 163.598 222.376 152.492C221.817 151.082 220.673 150.363 219.147 150.66C202.446 153.894 210.915 168.223 219.594 176.047C229.213 184.717 247.283 178.051 253.696 168.58C263.126 154.65 258.063 139.945 245.415 130.346C242.54 128.164 239.087 126.996 235.683 125.979C237.499 119.153 240.201 117.309 243.787 120.442C245.33 121.342 247.252 122.653 249.025 123.073C254.189 124.294 256.783 122.733 259.552 118.403C261.38 115.542 256.835 112.911 255.017 115.755C252.322 119.972 238.033 111.204 232.337 112.997C226.357 114.878 225.536 121.427 227.548 126.286C228.236 127.954 229.905 129.27 231.558 129.938C240.91 133.717 248.79 136.856 252.675 147.393C257.251 159.809 247.261 170.622 236.306 173.997C230.681 175.497 225.535 174.208 220.861 170.13C212.892 162.946 221.562 163.077 218.869 157.769C225.974 171.783 245.189 172.048 248.685 155.324C250.097 148.566 245.662 142.822 240.521 139.304C235.658 135.976 230.013 135.187 225.369 131.159C216.099 123.126 224.209 110.677 232.541 107.339C236.586 105.72 256.416 106.728 254.752 116.382C254.179 119.689 259.238 121.107 259.812 117.775Z" fill="black"/>
<path d="M269.924 175.966C275.123 158.993 276.508 139.941 281.358 122.62C283.434 114.999 284.128 106.339 293.135 107.032C302.834 107.723 307.682 120.194 310.108 128.854C314.612 143.057 319.463 157.954 321.885 172.846C310.799 177.352 312.338 171.815 308.031 161.762C305.406 155.639 300.062 157.26 293.478 157.26C288.976 157.26 287.373 157.217 284.951 159.987C282.525 162.76 282.308 166.528 281.963 169.989C281.617 174.841 282.049 175.62 277.199 176.661C274.773 177.005 272.002 176.661 269.924 176.313M294.346 126.171C293.655 129.982 291.057 133.704 290.018 137.515C287.245 145.136 286.213 147.921 295.905 147.562C309.936 147.043 299.594 132.841 294.346 126.171Z" fill="white"/>
<path d="M272.456 176.664C278.042 157 280.464 136.586 285.556 116.773C290.187 115.492 294.82 114.21 299.452 112.929C302.175 116.013 304.218 119.499 305.573 123.386C307.663 128.425 308.968 133.923 310.6 139.116C311.577 142.218 321.18 170.319 317.934 171.452C312.541 173.339 311.114 160.202 307.998 157.087C304.342 153.433 298.021 154.491 293.478 154.636C289.644 154.757 284.943 154.779 282.683 158.663C278.874 165.216 280.533 174.999 269.923 173.688C266.569 173.274 266.61 178.53 269.923 178.938C274.861 179.547 279.208 179.874 283.126 176.61C283.884 175.975 284.083 174.391 284.286 173.63C286.126 166.718 289.157 160.023 297.266 159.765C309.143 159.392 305.875 170.013 311.106 175.245C314.254 178.393 319.067 176.608 322.583 175.378C324.026 174.874 324.683 173.634 324.415 172.151C321.349 155.112 316.327 138.331 310.634 121.991C308.228 115.073 302.068 103.761 293.134 104.407C284.239 105.052 281.747 110.495 279.659 118.622C274.843 137.358 272.677 156.659 267.391 175.268C266.467 178.533 271.534 179.916 272.456 176.664Z" fill="black"/>
<path d="M291.814 125.474C290.361 131.691 284.81 138.408 285.533 145.07C286.193 151.152 294.474 150.465 298.775 149.875C313.375 147.863 300.447 129.736 296.205 124.316C294.119 121.65 290.43 125.394 292.49 128.027C294.947 131.168 305.037 143.119 297.379 144.812C295.408 145.248 292.83 145.113 290.885 144.589C290.365 144.448 291.061 142.595 291.262 141.9C292.776 136.759 295.658 132.076 296.877 126.869C297.648 123.576 292.585 122.175 291.814 125.474Z" fill="black"/>
<path d="M350.639 161.763C350.83 165.031 351.061 168.314 348.159 170.394C345.473 172.316 341.147 172.447 338.981 169.802C334.795 164.695 338.143 154.146 337.938 148.105C337.596 137.992 336.784 127.894 336.784 117.769C336.784 108.072 334.704 102.181 346.483 101.835C356.876 101.487 361.376 113.267 366.573 121.233C372.807 130.934 374.542 144.444 382.163 153.102C388.745 146.866 383.897 133.704 382.856 125.737C381.815 118.807 381.471 110.841 382.163 103.565C383.202 94.905 394.288 95.6 394.979 104.606C396.018 115.69 395.67 127.122 395.67 137.862C395.67 145.135 397.75 153.45 396.365 160.725C394.978 168.346 383.547 170.077 378.004 165.573C372.463 161.417 355.141 121.581 348.906 126.083C343.364 129.896 350.292 155.876 350.639 161.763Z" fill="white"/>
<path d="M348.015 161.763C345.179 161.515 342.338 161.269 339.502 161.021C339.611 158.722 339.818 156.435 340.127 154.156C340.738 148.736 340.377 143.433 340.111 137.996C339.646 128.48 339.19 118.935 339.307 109.406C339.467 96.261 356.99 110.746 359.095 113.912C361.658 117.766 363.931 121.908 366.232 125.922C371.599 135.299 373.211 145.693 379.892 154.428C380.794 155.61 382.872 156.442 384.017 154.961C388.046 149.746 388.774 144.219 387.694 137.678C386.549 130.778 385.147 124.032 384.589 117.037C384.413 114.027 384.382 111.016 384.495 108.002C387.237 108.461 389.978 108.918 392.721 109.375C392.909 112.57 393.023 115.768 393.064 118.969C393.216 125.262 393.069 131.569 393.045 137.864C393.018 145.094 398.859 163.899 385.886 165.405C376.917 166.446 370.854 149.737 367.428 143.753C364.901 139.333 355.73 119.044 347.583 123.817C338.265 129.275 347.195 153.982 348.015 161.763C348.367 165.095 353.619 165.128 353.265 161.763C352.247 152.126 349.557 142.814 349.397 133.062C349.241 123.513 355.226 133.972 357.125 136.83C360.25 141.519 362.96 146.496 365.741 151.391C369.38 157.797 372.497 165.325 379.003 169.239C384.667 172.645 394.332 170.337 397.672 164.634C399.91 160.812 399.441 155.812 399.345 151.632C399.132 142.319 398.331 133.111 398.351 123.757C398.367 117.486 401.129 98.007 391.594 95.507C367.059 89.079 387.105 142.454 380.304 151.249C381.679 151.427 383.056 151.603 384.429 151.78C373.824 137.917 371.946 113.092 356.481 102.675C348.012 96.97 335.491 97.952 334.059 109.407C332.704 120.227 334.579 132.204 335.11 143.05C335.469 150.417 331.661 161.9 335.35 168.636C341.59 180.029 353.561 172.675 353.266 161.765C353.173 158.386 347.923 158.375 348.015 161.763Z" fill="black"/>
<path d="M203.761 203.679C200.644 204.027 192.675 203.335 190.253 205.064C185.401 208.183 188.519 211.992 192.331 213.378C194.897 214.312 198.567 213.294 201.284 213.431C200.911 220.327 202.376 227.488 202.376 234.519C202.378 241.996 203.999 249.468 204.058 256.98C204.085 260.328 204.355 264.632 202.726 267.699C200.062 272.715 193.083 270.135 190.599 274.693C187.828 280.238 194.062 281.277 197.874 281.277C206.534 280.929 215.888 280.238 224.548 279.197C232.859 278.504 234.245 269.15 225.931 267.765C223.855 267.417 217.964 269.15 215.888 267.765C213.808 266.033 214.499 260.144 214.499 257.027C214.499 249.406 214.327 241.613 213.636 233.646C212.941 227.41 208.892 214.031 215.452 212.859C219.593 212.121 223.681 213.986 225.931 210.609C227.652 208.027 224.894 205.064 222.814 204.373C218.312 202.295 208.96 203.68 203.418 203.68" fill="white"/>
<path d="M203.761 201.054C196.781 201.382 185.218 199.95 185.419 209.87C185.476 212.651 189.308 215.268 191.632 215.909C193.271 216.358 198.661 215.04 198.673 218.647C198.691 225.752 199.683 233.01 200.007 240.124C200.55 252.054 205.634 264.948 191.862 270.165C189.003 271.247 187.299 274.579 187.299 277.507C187.299 288.952 214.621 282.837 219.279 282.403C225.631 281.815 238.619 278.76 233.013 269.19C231.12 265.963 227.171 265.112 223.775 265.188C212.877 265.432 217.045 247.528 216.685 239.586C216.302 231.098 210.05 215.762 223.134 215.152C227.06 214.97 228.384 211.781 228.88 208.693C230.618 197.834 207.814 200.9 203.415 201.052C200.04 201.167 200.028 206.417 203.415 206.302C207.489 206.161 211.556 205.943 215.634 205.853C221.04 209.585 220.978 211.046 215.45 210.232C214.973 210.234 214.532 210.353 214.126 210.591C209.581 212.814 209.177 216.577 209.194 221.351C209.235 231.259 211.602 241.267 211.833 251.277C211.95 256.279 209.872 265.461 214.028 269.619C214.864 270.453 216.319 270.576 217.341 270.83C218.521 271.033 219.708 271.014 220.907 270.777C226.032 269.431 225.485 271.558 219.278 277.152C212.169 277.939 205.012 278.31 197.872 278.65C194.563 275.197 194.845 273.496 198.718 273.545C199.818 273.098 200.909 272.643 202.001 272.182C207.11 269.188 206.72 261.944 206.681 256.979C206.568 242.461 203.945 227.981 203.908 213.43C203.904 212.065 202.715 210.719 201.283 210.805C197.166 212.51 195.123 211.092 195.156 206.553C197.969 206.199 200.924 206.436 203.76 206.303C207.132 206.146 207.148 200.894 203.761 201.054Z" fill="black"/>
<path d="M285.299 204.289C278.858 200.205 268.201 201.531 261.842 203.717C251.055 206.807 246.454 211.918 247.95 223.949C249.149 233.574 256.967 240.281 265.129 244.152C272.131 247.119 282.884 249.701 280.142 259.105C278.021 266.38 272.595 269.523 265.595 266.554C260.482 264.747 252.752 251.279 246.561 257.636C239.77 264.765 254.158 273.794 258.97 275.99C266.786 279.9 274.135 280.035 281.184 274.967C295.668 265.137 296.28 244.813 279.614 237.113C272.956 234.101 262.948 232.207 259.598 224.943C255.694 216.004 262.268 212.742 270.385 213.476C274.598 213.652 280.868 216.359 284.825 214.472C288.777 212.584 290.112 206.48 285.299 204.289Z" fill="white"/>
<path d="M286.624 202.023C274.843 196.644 258.999 198.816 249.263 207.607C239.841 216.115 246.661 232.127 253.464 239.462C258.476 244.868 265.87 247.054 272.355 249.974C269.667 262.226 266.091 265.626 261.621 260.171C260.23 258.792 258.762 257.499 257.221 256.288C255.403 254.774 253.75 254.171 251.571 253.458C242.21 250.401 240.731 264.464 245.503 269.356C255.728 279.838 269.192 284.809 282.511 277.233C291.874 271.905 297.759 257.969 293.282 247.813C290.602 241.729 286.706 238.042 280.94 234.846C276.993 232.657 272.18 231.483 268.11 229.565C260.608 217.999 262.294 213.645 273.169 216.502C274.661 216.893 276.177 217.182 277.706 217.373C286.7 218.297 296.772 210.023 287.161 202.432C284.532 200.358 280.79 204.045 283.446 206.143C289.458 210.893 268.507 210.815 267.03 210.786C264.708 210.741 261.485 211.446 259.647 213.009C254.204 217.648 255.557 223.523 259.145 229.07C265.524 238.929 280.682 237.226 287.481 247.59C296.913 261.955 278.266 278.137 264.305 275.34C261.367 274.344 258.602 273.012 256.008 271.344C249.141 267.274 253.184 259.471 257.91 263.883C263.115 268.742 268.203 271.576 275.398 269.203C280.078 267.66 284.214 259.851 283.107 255.187C281.339 247.765 275.195 245.347 268.597 242.73C256.915 238.097 245.855 226.496 251.843 212.902C256.128 203.183 276.827 203.293 283.976 206.554C287.032 207.949 289.702 203.425 286.624 202.023Z" fill="black"/>
<path d="M108.847 361.992C108.163 368.779 115.588 381.498 106.594 384.465C94.7735 388.361 98.3435 368.367 98.1055 363.377C97.7615 356.102 97.7615 348.826 97.7615 341.551C97.7615 330.815 97.0665 319.729 97.4135 308.992C111.268 306.912 129.628 300.33 141.061 311.07C153.186 322.502 139.674 338.09 129.627 345.363C133.785 352.984 138.186 360.066 143.83 366.494C147.859 371.082 149.416 372.685 146.99 376.15C144.217 379.961 138.287 380.699 135.17 377.925C128.936 372.73 126.857 362.335 122.354 356.101C120.624 354.023 115.774 351.251 112.655 352.292C109.191 353.677 109.191 358.527 108.847 361.992ZM107.46 320.421C107.114 326.655 107.114 334.276 107.806 340.513C116.812 341.898 132.402 332.199 129.978 321.806C127.898 312.452 114.04 317.65 107.46 317.65C107.46 318.343 107.115 319.382 107.46 320.421Z" fill="white"/>
<path d="M106.223 361.992C106.317 365.453 106.93 368.601 107.676 372C102.586 380.945 100.172 381.816 100.434 374.617C100.383 372.851 100.403 371.088 100.495 369.324C100.856 358.287 100.438 347.207 100.337 336.156C100.271 328.898 99.985 321.646 99.944 314.386C99.915 308.654 114.965 308.45 118.026 308.038C129.188 306.542 150.329 310.384 140.479 330.136C137.772 335.562 132.463 339.861 127.774 343.507C126.848 344.228 126.838 345.753 127.364 346.687C129.884 351.169 132.497 355.507 135.325 359.796C136.423 361.366 137.559 362.905 138.733 364.413C144.522 368.968 142.598 371.192 132.962 371.091C128.655 364.79 127.7 357.126 121.622 352.103C112.307 344.404 107.047 353.671 106.223 361.992C105.887 365.361 111.141 365.328 111.473 361.992C114.944 361.437 118.418 360.881 121.891 360.324C123.03 362.51 124.086 364.734 125.063 366.998C126.61 370.414 128.223 374.518 130.881 377.264C135.352 381.883 138.938 383.043 145.11 380.957C161.048 375.574 137.204 353.143 134.43 348.545C132.264 344.959 145.469 333.59 146.971 328.762C148.612 323.483 149.535 317.102 145.612 312.426C132.883 297.248 113.608 303.578 96.719 306.461C95.567 306.656 94.811 307.91 94.789 308.992C94.471 327.066 94.82 345.31 95.48 363.377C95.748 370.672 93.71 378.356 98.046 384.84C101.056 389.338 106.939 387.299 110.569 385.192C117.397 381.227 111.614 367.286 111.471 361.993C111.381 358.613 106.131 358.603 106.223 361.992Z" fill="black"/>
<path d="M104.837 320.421C104.501 327.124 104.509 333.831 105.183 340.513C105.337 342.066 106.271 342.964 107.808 343.138C118.634 344.351 132.497 335.3 132.857 323.806C133.302 309.568 115.625 314.812 107.462 315.025C105.919 315.064 104.985 316.197 104.837 317.65C104.662 318.572 104.662 319.496 104.837 320.421C105.124 323.769 110.374 323.796 110.087 320.421C109.911 319.495 109.911 318.571 110.087 317.65C109.212 318.523 108.337 319.4 107.462 320.275C112.626 320.14 125.454 315.429 127.448 322.504C130.05 331.738 114.919 338.686 107.807 337.889C108.684 338.762 109.555 339.639 110.432 340.514C109.758 333.832 109.75 327.125 110.086 320.422C110.257 317.037 105.007 317.054 104.837 320.421Z" fill="black"/>
<path d="M212.077 306.218C198.565 304.486 184.706 307.257 171.198 305.872C169.468 325.962 172.585 346.401 171.893 366.493C171.893 368.919 170.159 374.462 171.543 376.54C173.969 379.31 184.361 377.579 187.826 377.579C191.982 377.579 204.451 380.698 208.264 378.272C212.42 375.155 210.69 366.838 207.225 365.452C201.684 363.376 194.407 367.186 188.864 365.108C184.706 363.376 185.401 361.295 185.055 356.446C184.705 351.251 184.014 349.518 189.557 348.481C194.407 347.786 206.877 352.292 209.995 348.133C211.036 347.092 210.69 339.471 209.995 338.432C208.96 337.049 204.802 337.049 203.067 337.049C197.178 336.701 187.131 339.471 184.362 334.276C180.897 327.348 184.706 318.342 191.983 317.303C198.217 316.608 205.493 318.342 212.077 318.342C213.462 314.877 213.462 310.373 212.421 307.256" fill="white"/>
<path d="M212.078 303.593C198.441 302.37 184.846 304.163 171.199 303.247C169.703 303.145 168.662 304.518 168.574 305.872C167.254 326.101 169.64 346.257 169.269 366.493C169.136 373.706 166.445 379.057 175.376 380.571C179.407 381.255 183.772 380.413 187.827 380.204C193.94 379.89 199.936 382.05 206.149 381.622C212.307 381.198 214.221 374.069 212.817 368.968C209.565 357.144 188.237 367.657 187.68 356.447C187.166 346.121 205.645 356.197 211.854 349.99C214.143 347.699 214.573 337.859 211.319 336.168C207.62 334.242 203.983 334.414 199.831 334.461C198.626 334.543 197.421 334.625 196.218 334.707C188.22 336.199 188.425 331.228 196.827 319.799C201.831 319.664 207.069 320.711 212.077 320.969C213.216 321.028 214.335 320.127 214.608 319.041C215.745 314.525 215.842 311.125 214.952 306.559C214.306 303.239 209.245 304.649 209.889 307.954C212.389 320.778 196.891 312.86 191.287 314.774C186.67 316.35 184.525 318.051 181.879 322.258C179.147 326.604 179.869 336.84 185.604 338.793C190.364 340.416 194.829 340.051 199.831 339.711C202.663 339.518 207.696 338.604 208.022 343.285C208.458 349.555 196.62 346.383 195.186 346.211C188.747 345.441 183.049 346.016 182.207 353.158C181.246 361.304 183.564 366.806 191.674 368.275C193.147 368.517 194.629 368.478 196.127 368.154C201.918 367.824 208.205 376.834 199.928 376.392C193.914 376.074 188.655 374.831 182.604 375.3C172.881 376.052 174.506 367.163 174.616 361.005C174.819 349.978 173.866 338.909 173.442 327.894C173.1 319.035 169.962 308.773 181.385 308.89C191.682 308.999 201.772 307.919 212.076 308.843C215.449 309.144 215.419 303.894 212.078 303.593Z" fill="black"/>
<path d="M238.75 379.31C237.803 381.343 233.516 380.185 231.943 379.861C231.254 379.718 230.57 379.562 229.882 379.4C229.441 379.298 228.585 379.291 228.222 379.066C227.023 378.32 228.042 375.898 228.181 374.875C228.445 372.928 228.73 370.982 229.036 369.039C229.636 365.197 230.319 361.363 231.046 357.543C233.044 347.086 235.423 336.707 237.708 326.311C239.442 319.729 238.401 308.297 244.985 305.526C247.409 304.487 252.952 304.487 255.378 305.178C261.265 306.219 262.306 310.723 264.73 315.918C271.658 330.121 277.201 346.748 281.359 361.992C282.398 364.762 284.476 370.305 283.435 373.076C282.744 375.5 277.894 378.619 274.775 377.232C269.925 375.156 272.004 363.031 267.5 359.566C264.383 356.795 256.764 357.836 252.953 358.179C247.41 358.527 244.986 359.218 243.252 365.109C242.214 368.919 240.457 375.65 238.75 379.31ZM249.835 324.23C248.448 329.082 247.757 333.931 247.409 338.781C247.061 340.513 245.331 345.709 246.37 346.748C247.409 347.787 254.337 347.441 255.722 347.094C264.038 346.057 263.689 340.168 260.572 333.586C259.189 330.815 252.953 319.729 249.836 323.887" fill="white"/>
<path d="M237.425 377.044C225.171 384.509 233.878 356.714 234.605 353.019C236.554 343.121 239.64 333.23 240.937 323.232C241.917 315.666 241.156 305.836 254.679 307.709C261.101 308.6 266.281 325.621 268.06 329.949C272.917 341.771 275.818 354.17 280.06 366.179C277.98 367.386 275.902 368.593 273.826 369.8C273.486 367.693 273.076 365.601 272.596 363.523C272.039 360.919 270.944 359.693 269.36 357.71C266.561 354.21 259.301 355.064 255.63 355.3C240.075 356.296 241.403 365.523 236.22 378.613C234.97 381.765 240.052 383.117 241.283 380.008C243.123 375.363 244.474 370.625 245.785 365.807C248.633 355.336 266.771 361.348 268.197 368.018C269.715 375.106 270.394 379.76 278.256 379.936C297.787 380.374 273.863 330.352 271.252 324.004C269.076 318.707 265.92 306.432 259.684 304.033C254.467 302.027 244.217 299.931 240.336 305.879C234.102 315.434 234.131 330.303 231.74 341.207C229.334 352.176 222.804 368.73 225.693 379.764C225.912 380.598 226.658 381.424 227.527 381.598C232.033 382.504 235.947 384.092 240.076 381.578C242.959 379.82 240.322 375.277 237.425 377.044Z" fill="black"/>
<path d="M247.304 323.535C245.866 328.846 245.843 334.402 244.488 339.668C243.84 342.178 242.314 346.402 244.515 348.604C247.968 352.059 259.503 350.215 262.628 347.053C267.687 341.936 264.218 334.42 261.132 329.186C258.837 325.293 253.027 316.686 247.976 322.03C245.654 324.489 249.359 328.208 251.691 325.743C252.3 325.097 257.326 333.075 257.785 333.913C259.871 337.71 261.808 342.907 256.332 344.349C254.594 344.806 252.697 344.794 250.916 344.818C249.955 344.83 248.977 344.795 248.027 344.63C248.242 344.927 248.455 345.226 248.668 345.525C248.703 344.728 248.82 343.943 249.023 343.173C250.294 337.11 250.742 330.939 252.367 324.931C253.25 321.656 248.185 320.269 247.304 323.535Z" fill="black"/>
<path d="M309.766 298.597C325.7 298.597 338.172 304.14 347.524 317.65C358.26 333.238 356.528 363.031 338.514 372.73C329.856 377.58 319.465 378.964 309.766 377.232C298.68 375.156 301.797 364.414 303.182 355.41C305.953 337.051 305.953 317.996 309.071 299.639M336.786 327.697C333.231 322.109 325.88 317.48 319.169 318.051C318.735 326.647 318.81 335.092 317.386 343.631C316.693 347.787 315.31 351.945 314.615 356.102C313.924 360.954 313.228 361.645 318.078 363.032C334.36 367.878 344.059 339.128 336.786 327.697Z" fill="white"/>
<path d="M309.766 301.222C341.407 302.257 362.442 333.538 345.887 362.337C340.658 371.433 329.221 374.382 319.606 375.286C302.086 376.934 305.022 361.169 306.465 350.579C308.746 333.882 309.043 317.011 311.602 300.335C312.11 297.024 307.051 295.601 306.539 298.94C304.23 313.995 303.367 329.17 301.934 344.321C301.329 350.745 296.209 366.341 300.18 373.114C308.981 388.139 335.326 379.382 345.778 370.655C359.028 359.591 358.735 337.216 353.165 322.626C346.31 304.659 327.688 296.558 309.767 295.972C306.379 295.861 306.387 301.113 309.766 301.222Z" fill="black"/>
<path d="M339.053 326.373C334.141 319.695 327.61 315.498 319.168 315.426C317.689 315.412 316.605 316.631 316.543 318.051C316.176 326.371 316.06 334.676 314.853 342.934C314.003 348.735 310.894 354.922 311.642 360.866C312.413 366.985 322.652 366.62 326.808 365.235C340.601 360.638 345.463 337.929 339.053 326.373C337.41 323.412 332.874 326.059 334.517 329.021C339.906 338.732 335.021 356.97 323.923 360.669C319.995 361.976 316.527 360.858 317.144 356.796C317.783 352.599 319.078 348.489 319.915 344.327C321.644 335.751 321.406 326.749 321.793 318.05C320.918 318.923 320.045 319.8 319.168 320.675C325.664 320.732 330.72 323.859 334.517 329.021C336.5 331.718 341.063 329.103 339.053 326.373Z" fill="black"/>
<path d="M372.943 316.957C378.486 323.539 384.72 329.775 386.103 338.434C387.492 347.094 387.492 356.102 387.144 364.762C387.144 366.84 385.412 373.768 386.796 375.5C387.837 376.887 395.456 377.58 397.191 376.541C403.078 373.076 399.269 358.873 398.923 352.984C398.573 347.093 398.23 337.742 399.96 332.199C402.04 325.271 410.7 315.918 415.202 310.375C418.319 306.912 427.671 299.639 425.249 294.441C417.28 277.812 397.19 318.343 391.995 318.687C385.411 319.382 376.753 303.8 373.292 299.292C370.3 295.405 368.245 291.823 362.597 292.013C349.74 292.449 370.605 314.185 372.943 316.957Z" fill="white"/>
<path d="M371.086 318.812C381.965 331.521 384.756 342.986 384.676 359.529C384.66 363.273 381.498 373.914 384.942 377.357C392.348 384.761 401.856 377.839 402.95 369.816C403.858 363.15 401.688 355.767 401.356 349.093C400.559 332.95 407.18 324.12 417.063 312.23C422.126 306.138 435.428 294.91 422.899 288.369C415.391 284.451 406.612 297.183 403.143 301.594C399.686 305.992 396.58 310.666 392.875 314.864C388.518 319.798 375.734 297.548 373.012 294.634C369.824 291.228 356.688 285.023 355.953 294.241C355.223 303.441 365.551 312.507 371.086 318.812C373.324 321.361 377.024 317.632 374.801 315.101C372.78 312.8 370.746 310.519 368.774 308.175C367.192 306.286 365.715 304.323 364.34 302.282C361.764 298.618 359.285 285.219 371.024 300.616C376.424 307.698 380.356 316.126 388.411 320.62C397.472 325.679 410.782 300.011 415.53 295.595C421.319 290.626 422.102 293.429 417.876 304.003C415.649 306.429 413.31 308.567 411.194 311.108C407.567 315.475 404.055 319.801 400.837 324.487C394.755 333.346 395.509 345.382 396.567 355.542C396.86 357.733 397.155 359.923 397.458 362.112C397.56 363.298 397.665 364.483 397.771 365.671C399.183 373.357 396.404 374.058 389.427 367.771C390.29 361.564 389.984 355.191 389.796 348.949C389.364 334.541 383.949 325.791 374.801 315.101C372.593 312.523 368.899 316.257 371.086 318.812Z" fill="black"/>
</g>
</svg>
